<?xml version="1.0" encoding="utf-8"?>
<!-- Generator: Adobe Illustrator 17.0.0, SVG Export Plug-In . SVG Version: 6.00 Build 0)  -->
<!DOCTYPE svg PUBLIC "-//W3C//DTD SVG 1.1//EN" "http://www.w3.org/Graphics/SVG/1.1/DTD/svg11.dtd">
<svg version="1.1" id="Camada_1" xmlns="http://www.w3.org/2000/svg" xmlns:xlink="http://www.w3.org/1999/xlink" x="0px" y="0px"
	 width="431px" height="368px" viewBox="0 0 431 368" enable-background="new 0 0 431 368" xml:space="preserve">
<g>
	<path fill="#8AB996" d="M425.104,179.79c0,8.692-0.95,17.347-3.012,25.758c-0.678,2.768-1.492,5.526-2.424,8.239
		c-0.271,0.778-0.543,1.556-0.832,2.324c-0.235,0.633-0.479,1.266-0.724,1.89c-0.072,0.172-0.136,0.344-0.208,0.516
		c-0.262,0.651-0.525,1.302-0.805,1.945c-0.045,0.099-0.09,0.208-0.136,0.317c-0.271,0.633-0.552,1.266-0.832,1.89
		c-0.127,0.28-0.253,0.552-0.38,0.823c-0.253,0.561-0.516,1.112-0.787,1.664c-0.28,0.588-0.57,1.167-0.859,1.746
		c-0.109,0.208-0.208,0.416-0.317,0.615c-0.253,0.497-0.516,0.995-0.769,1.492c-0.208,0.389-0.416,0.769-0.624,1.149
		c-0.959,1.773-1.963,3.518-3.012,5.246c-0.425,0.705-0.859,1.411-1.302,2.107c-0.099,0.172-0.208,0.344-0.317,0.516
		c-0.507,0.796-1.022,1.592-1.547,2.388c-0.425,0.642-0.85,1.284-1.293,1.926c-0.38,0.561-0.76,1.112-1.149,1.673
		c-0.081,0.118-0.163,0.235-0.253,0.353c-0.398,0.579-0.814,1.158-1.221,1.736c-0.507,0.715-1.022,1.411-1.538,2.116
		c-0.109,0.145-0.208,0.289-0.317,0.425c-0.588,0.805-1.194,1.601-1.791,2.388c-0.362,0.47-0.724,0.95-1.094,1.411
		c-0.651,0.859-1.32,1.709-1.999,2.56c-0.642,0.814-1.293,1.619-1.954,2.424c-0.072,0.09-0.145,0.172-0.217,0.262
		c-0.651,0.805-1.302,1.601-1.972,2.397c-0.19,0.244-0.398,0.488-0.597,0.724c-0.606,0.733-1.221,1.465-1.836,2.189
		c-1.773,2.098-3.563,4.178-5.363,6.241c-3.663,4.215-7.407,8.402-11.224,12.563c-3.175,3.437-6.394,6.856-9.677,10.211
		c-15.755,16.18-32.813,31.275-51.363,43.304c-2.306,1.492-4.631,2.948-6.982,4.332c-0.859,0.506-1.718,1.013-2.578,1.51
		c-0.145,0.081-0.298,0.172-0.443,0.253c-0.886,0.506-1.773,1.004-2.668,1.492c-0.913,0.506-1.827,1.004-2.749,1.483
		c-0.416,0.217-0.832,0.434-1.248,0.651c-1.8,0.941-3.618,1.845-5.454,2.713c-0.986,0.47-1.972,0.923-2.967,1.366
		c-0.913,0.416-1.836,0.823-2.759,1.221c-0.38,0.163-0.751,0.326-1.131,0.479c-0.841,0.362-1.691,0.705-2.541,1.049
		c-1.637,0.66-3.292,1.293-4.956,1.89c-0.633,0.235-1.275,0.461-1.917,0.687c-0.362,0.127-0.724,0.244-1.085,0.371
		c-0.597,0.199-1.194,0.398-1.791,0.588c-0.516,0.172-1.04,0.335-1.556,0.497c-0.018,0.009-0.036,0.009-0.054,0.018
		c-1.022,0.317-2.044,0.624-3.066,0.923c-1.619,0.47-3.238,0.904-4.866,1.32c-1.076,0.271-2.153,0.525-3.238,0.769
		c-1.022,0.235-2.044,0.452-3.075,0.669c-0.081,0.018-0.163,0.036-0.244,0.045c-1.067,0.217-2.144,0.425-3.22,0.615
		c-0.552,0.099-1.094,0.19-1.646,0.28s-1.103,0.181-1.664,0.262c-0.497,0.081-1.004,0.154-1.501,0.217
		c-0.606,0.09-1.221,0.172-1.827,0.253c-6.431,0.823-12.879,1.167-19.328,1.094c-0.389,0-0.769-0.009-1.158-0.018
		c-5.843-0.109-11.685-0.561-17.501-1.311c-0.425-0.054-0.85-0.109-1.275-0.172c-0.733-0.099-1.465-0.199-2.198-0.307
		c-0.57-0.09-1.14-0.181-1.709-0.271c-2.415-0.38-4.812-0.814-7.208-1.302c-0.534-0.099-1.058-0.208-1.583-0.326
		c-1.61-0.335-3.229-0.696-4.83-1.076c-1.076-0.253-2.144-0.516-3.211-0.787c-0.534-0.136-1.067-0.271-1.601-0.416
		c-0.534-0.136-1.067-0.28-1.601-0.425c-2.125-0.57-4.242-1.185-6.349-1.827c-2.451-0.742-4.884-1.529-7.308-2.361
		c-0.877-0.298-1.764-0.606-2.641-0.913c-2.722-0.968-5.445-1.99-8.131-3.048c-0.479-0.19-0.968-0.389-1.474-0.597
		c-0.389-0.163-0.778-0.335-1.185-0.516c-0.262-0.118-0.525-0.235-0.796-0.362c-1.755-0.796-3.663-1.727-5.716-2.777
		c-0.344-0.181-0.696-0.362-1.049-0.543c-1.257-0.66-2.569-1.357-3.916-2.098c-2.831-1.556-5.861-3.274-9.044-5.146
		c-36.186-21.29-91.583-61.248-104.588-76.397c-0.66-0.769-1.302-1.547-1.945-2.333c-0.497-0.615-0.995-1.239-1.474-1.872
		c-0.443-0.57-0.877-1.14-1.302-1.727c-0.38-0.506-0.751-1.022-1.112-1.547c-0.344-0.479-0.687-0.968-1.022-1.456
		c-0.018-0.036-0.045-0.072-0.072-0.109c-0.407-0.606-0.814-1.212-1.212-1.827c-0.38-0.588-0.76-1.176-1.121-1.773
		c-0.181-0.28-0.353-0.57-0.525-0.859c-0.407-0.669-0.805-1.339-1.194-2.008c0-0.009,0-0.009-0.009-0.018
		c-0.416-0.742-0.832-1.483-1.239-2.234c-0.705-1.311-1.384-2.632-2.017-3.97c-0.163-0.344-0.326-0.696-0.488-1.04
		c-1.284-2.749-2.415-5.553-3.383-8.402c-0.353-0.995-0.669-1.999-0.977-3.003c-0.389-1.293-0.742-2.596-1.067-3.898
		c-0.063-0.262-0.127-0.516-0.181-0.778c-0.163-0.678-0.317-1.366-0.452-2.053c-0.208-0.959-0.38-1.917-0.543-2.885
		c-0.036-0.235-0.081-0.47-0.109-0.705c-0.081-0.497-0.154-0.995-0.217-1.501c-0.081-0.597-0.154-1.203-0.217-1.8
		c-0.027-0.208-0.045-0.407-0.063-0.606c-0.054-0.516-0.09-1.031-0.136-1.538c0-0.045,0-0.09-0.009-0.127
		c-0.045-0.615-0.081-1.221-0.099-1.827c-0.009-0.063-0.009-0.118-0.009-0.172c-0.027-0.642-0.045-1.284-0.054-1.926
		c-0.004-0.24,0.003-0.478,0.002-0.717c-0.002-0.376-0.002-0.752,0.003-1.128c0.013-0.944,0.04-1.888,0.095-2.83
		c0.036-0.615,0.081-1.23,0.136-1.836c0.109-1.212,0.253-2.424,0.434-3.627c0.09-0.615,0.19-1.23,0.308-1.836
		c0.217-1.221,0.479-2.442,0.787-3.663c0.814-3.211,1.854-6.304,3.12-9.27c0.959-2.288,2.044-4.486,3.247-6.639
		c0.09-0.181,0.199-0.371,0.308-0.552c4.875-8.583,11.504-16.198,18.975-23.253c0.796-0.76,1.601-1.501,2.424-2.234
		c0.859-0.787,1.727-1.556,2.605-2.333c0.054-0.045,0.109-0.099,0.163-0.145c1.402-1.23,2.822-2.442,4.26-3.645
		c2.216-1.854,4.468-3.672,6.738-5.481c0.072-0.063,0.154-0.118,0.226-0.181c1.945-1.538,3.907-3.066,5.861-4.585
		c3.075-2.379,6.159-4.748,9.18-7.109c0.805-0.624,1.601-1.248,2.388-1.872c0.877-0.687,1.737-1.375,2.596-2.062
		c8.104-6.494,15.086-13.404,21.58-20.476c1.257-1.375,2.505-2.759,3.744-4.151c0.588-0.669,1.176-1.33,1.755-1.999
		c8.257-9.406,15.936-18.921,24.483-27.902c2.035-2.144,4.115-4.251,6.259-6.322c1.809-1.727,3.645-3.428,5.553-5.092
		c2.18-1.917,4.423-3.79,6.774-5.598c3.211-2.496,6.593-4.893,10.211-7.181c0.886-0.57,1.764-1.121,2.65-1.664
		c90.181-56.048,156.557-37.751,200.838,0c3.337,2.831,6.557,5.788,9.641,8.845c1.881,1.818,3.699,3.699,5.463,5.598
		c0.199,0.199,0.38,0.407,0.57,0.624c1.239,1.32,2.442,2.65,3.618,3.989c0.353,0.398,0.696,0.796,1.04,1.194
		c0.516,0.597,1.031,1.194,1.538,1.8c0.624,0.733,1.239,1.474,1.854,2.216c0.389,0.47,0.769,0.941,1.149,1.411
		c2.469,3.039,4.821,6.123,7.064,9.225c0.452,0.615,0.895,1.239,1.339,1.863c3.093,4.341,5.969,8.728,8.637,13.087
		c0.38,0.624,0.76,1.248,1.131,1.863c0.38,0.624,0.751,1.248,1.112,1.872c0.362,0.615,0.724,1.239,1.076,1.854
		c0.362,0.624,0.715,1.239,1.058,1.854s0.687,1.239,1.031,1.854c0.353,0.615,0.687,1.23,1.004,1.836
		c0.335,0.615,0.66,1.23,0.986,1.836c0.326,0.606,0.642,1.221,0.959,1.827c0.308,0.606,0.624,1.212,0.932,1.809
		c0.307,0.606,0.606,1.212,0.904,1.809c1.185,2.388,2.306,4.748,3.374,7.073c0.525,1.176,1.049,2.342,1.547,3.491
		c2.252,5.173,4.178,10.121,5.752,14.724c0.009,0.018,0.018,0.045,0.018,0.063c0.154,0.443,0.298,0.877,0.443,1.311
		c0.154,0.452,0.298,0.895,0.443,1.339c0.109,0.344,0.226,0.678,0.326,1.022c0.163,0.506,0.326,1.013,0.479,1.528
		c0.172,0.552,0.335,1.103,0.488,1.655c0.298,1.013,0.588,2.026,0.859,3.048c0.235,0.859,0.461,1.718,0.678,2.587
		c0.045,0.163,0.09,0.317,0.127,0.479c0.036,0.136,0.063,0.271,0.099,0.407c0.127,0.506,0.253,1.013,0.371,1.529
		c0.326,1.348,0.624,2.704,0.904,4.061c0.154,0.742,0.307,1.474,0.443,2.216c0.027,0.136,0.054,0.271,0.081,0.416
		c0.136,0.696,0.262,1.393,0.38,2.089c0.163,0.932,0.317,1.872,0.452,2.804c0.118,0.705,0.217,1.42,0.317,2.134
		c0.009,0.099,0.027,0.208,0.045,0.317c0.063,0.47,0.127,0.95,0.181,1.429c0.054,0.398,0.099,0.796,0.145,1.185
		c0.163,1.438,0.307,2.867,0.425,4.305c0.027,0.326,0.054,0.651,0.081,0.977c0.036,0.543,0.072,1.094,0.109,1.637
		c0.036,0.606,0.072,1.212,0.099,1.827c0.027,0.47,0.045,0.932,0.063,1.402c0.027,0.687,0.045,1.384,0.054,2.071
		C425.095,178.18,425.104,178.985,425.104,179.79z"/>
	<g opacity="0.7">
		<path fill="#FFFFFF" d="M425.104,179.79c0,8.692-0.95,17.347-3.012,25.758c-0.678,2.768-1.492,5.526-2.424,8.239
			c-0.271,0.778-0.543,1.556-0.832,2.324c-0.235,0.633-0.479,1.266-0.724,1.89c-0.072,0.172-0.136,0.344-0.208,0.516
			c-0.262,0.651-0.525,1.302-0.805,1.945c-0.045,0.099-0.09,0.208-0.136,0.317c-0.271,0.633-0.552,1.266-0.832,1.89
			c-0.127,0.28-0.253,0.552-0.38,0.823c-0.253,0.561-0.516,1.112-0.787,1.664c-0.28,0.588-0.57,1.167-0.859,1.746
			c-0.109,0.208-0.208,0.416-0.317,0.615c-0.253,0.497-0.516,0.995-0.769,1.492c-0.208,0.389-0.416,0.769-0.624,1.149
			c-0.959,1.773-1.963,3.518-3.012,5.246c-0.425,0.705-0.859,1.411-1.302,2.107c-0.099,0.172-0.208,0.344-0.317,0.516
			c-0.507,0.796-1.022,1.592-1.547,2.388c-0.425,0.642-0.85,1.284-1.293,1.926c-0.38,0.561-0.76,1.112-1.149,1.673
			c-0.081,0.118-0.163,0.235-0.253,0.353c-0.398,0.579-0.814,1.158-1.221,1.736c-0.507,0.715-1.022,1.411-1.538,2.116
			c-0.109,0.145-0.208,0.289-0.317,0.425c-0.588,0.805-1.194,1.601-1.791,2.388c-0.362,0.47-0.724,0.95-1.094,1.411
			c-0.651,0.859-1.32,1.709-1.999,2.56c-0.642,0.814-1.293,1.619-1.954,2.424c-0.072,0.09-0.145,0.172-0.217,0.262
			c-0.651,0.805-1.302,1.601-1.972,2.397c-0.19,0.244-0.398,0.488-0.597,0.724c-0.606,0.733-1.221,1.465-1.836,2.189
			c-1.773,2.098-3.563,4.178-5.363,6.241c-3.663,4.215-7.407,8.402-11.224,12.563c-3.175,3.437-6.394,6.856-9.677,10.211
			c-15.755,16.18-32.813,31.275-51.363,43.304c-2.306,1.492-4.631,2.948-6.982,4.332c-0.859,0.506-1.718,1.013-2.578,1.51
			c-0.145,0.081-0.298,0.172-0.443,0.253c-0.886,0.506-1.773,1.004-2.668,1.492c-0.913,0.506-1.827,1.004-2.749,1.483
			c-0.416,0.217-0.832,0.434-1.248,0.651c-1.8,0.941-3.618,1.845-5.454,2.713c-0.986,0.47-1.972,0.923-2.967,1.366
			c-0.913,0.416-1.836,0.823-2.759,1.221c-0.38,0.163-0.751,0.326-1.131,0.479c-0.841,0.362-1.691,0.705-2.541,1.049
			c-1.637,0.66-3.292,1.293-4.956,1.89c-0.633,0.235-1.275,0.461-1.917,0.687c-0.362,0.127-0.724,0.244-1.085,0.371
			c-0.597,0.199-1.194,0.398-1.791,0.588c-0.516,0.172-1.04,0.335-1.556,0.497c-0.018,0.009-0.036,0.009-0.054,0.018
			c-1.022,0.317-2.044,0.624-3.066,0.923c-1.619,0.47-3.238,0.904-4.866,1.32c-1.076,0.271-2.153,0.525-3.238,0.769
			c-1.022,0.235-2.044,0.452-3.075,0.669c-0.081,0.018-0.163,0.036-0.244,0.045c-1.067,0.217-2.144,0.425-3.22,0.615
			c-0.552,0.099-1.094,0.19-1.646,0.28s-1.103,0.181-1.664,0.262c-0.497,0.081-1.004,0.154-1.501,0.217
			c-0.606,0.09-1.221,0.172-1.827,0.253c-6.431,0.823-12.879,1.167-19.328,1.094c-0.389,0-0.769-0.009-1.158-0.018
			c-5.843-0.109-11.685-0.561-17.501-1.311c-0.425-0.054-0.85-0.109-1.275-0.172c-0.733-0.099-1.465-0.199-2.198-0.307
			c-0.57-0.09-1.14-0.181-1.709-0.271c-2.415-0.38-4.812-0.814-7.208-1.302c-0.534-0.099-1.058-0.208-1.583-0.326
			c-1.61-0.335-3.229-0.696-4.83-1.076c-1.076-0.253-2.144-0.516-3.211-0.787c-0.534-0.136-1.067-0.271-1.601-0.416
			c-0.534-0.136-1.067-0.28-1.601-0.425c-2.125-0.57-4.242-1.185-6.349-1.827c-2.451-0.742-4.884-1.529-7.308-2.361
			c-0.877-0.298-1.764-0.606-2.641-0.913c-2.722-0.968-5.445-1.99-8.131-3.048c-0.479-0.19-0.968-0.389-1.474-0.597
			c-0.389-0.163-0.778-0.335-1.185-0.516c-0.262-0.118-0.525-0.235-0.796-0.362c-1.755-0.796-3.663-1.727-5.716-2.777
			c-0.344-0.181-0.696-0.362-1.049-0.543c-1.257-0.66-2.569-1.357-3.916-2.098c-2.831-1.556-5.861-3.274-9.044-5.146
			c-36.186-21.29-91.583-61.248-104.588-76.397c-0.66-0.769-1.302-1.547-1.945-2.333c-0.497-0.615-0.995-1.239-1.474-1.872
			c-0.443-0.57-0.877-1.14-1.302-1.727c-0.38-0.506-0.751-1.022-1.112-1.547c-0.344-0.479-0.687-0.968-1.022-1.456
			c-0.018-0.036-0.045-0.072-0.072-0.109c-0.407-0.606-0.814-1.212-1.212-1.827c-0.38-0.588-0.76-1.176-1.121-1.773
			c-0.181-0.28-0.353-0.57-0.525-0.859c-0.407-0.669-0.805-1.339-1.194-2.008c0-0.009,0-0.009-0.009-0.018
			c-0.416-0.742-0.832-1.483-1.239-2.234c-0.705-1.311-1.384-2.632-2.017-3.97c-0.163-0.344-0.326-0.696-0.488-1.04
			c-1.284-2.749-2.415-5.553-3.383-8.402c-0.353-0.995-0.669-1.999-0.977-3.003c-0.389-1.293-0.742-2.596-1.067-3.898
			c-0.063-0.262-0.127-0.516-0.181-0.778c-0.163-0.678-0.317-1.366-0.452-2.053c-0.208-0.959-0.389-1.917-0.543-2.885
			c-0.036-0.235-0.081-0.47-0.109-0.705c-0.081-0.497-0.154-0.995-0.217-1.501c-0.081-0.597-0.154-1.203-0.217-1.8
			c-0.027-0.208-0.045-0.407-0.063-0.606c-0.054-0.516-0.09-1.031-0.136-1.538c0-0.045,0-0.09-0.009-0.127
			c-0.045-0.615-0.081-1.221-0.099-1.827c-0.009-0.063-0.009-0.118-0.009-0.172c-0.027-0.642-0.045-1.284-0.054-1.926
			c-0.027-1.565,0.009-3.12,0.099-4.676c0.036-0.615,0.081-1.23,0.136-1.836c0.109-1.212,0.253-2.424,0.434-3.627
			c0.09-0.615,0.19-1.23,0.308-1.836c0.217-1.221,0.479-2.442,0.787-3.663c0.814-3.211,1.854-6.304,3.12-9.27
			c0.959-2.288,2.044-4.486,3.247-6.639c0.09-0.181,0.199-0.371,0.308-0.552c4.875-8.583,11.504-16.198,18.975-23.253
			c0.425-0.407,0.85-0.805,1.284-1.203c0.38-0.344,0.76-0.687,1.14-1.031c0.859-0.787,1.727-1.556,2.605-2.333
			c0.054-0.045,0.109-0.099,0.163-0.145c1.402-1.23,2.822-2.442,4.26-3.645c2.216-1.854,4.468-3.672,6.738-5.481
			c0.072-0.063,0.154-0.118,0.226-0.181c1.945-1.538,3.907-3.066,5.861-4.585c0.986-0.76,1.963-1.519,2.948-2.279
			c2.089-1.61,4.178-3.22,6.232-4.83c0.805-0.624,1.601-1.248,2.388-1.872c0.877-0.687,1.737-1.375,2.596-2.062
			c8.104-6.494,15.086-13.404,21.58-20.476c1.257-1.375,2.505-2.759,3.744-4.151c0.588-0.669,1.176-1.33,1.755-1.999
			c8.257-9.406,15.936-18.921,24.483-27.902c2.035-2.144,4.115-4.251,6.259-6.322c1.809-1.727,3.645-3.428,5.553-5.092
			c2.18-1.917,4.423-3.79,6.774-5.598c3.211-2.496,6.593-4.893,10.211-7.181c0.886-0.57,1.764-1.121,2.65-1.664
			c90.181-56.048,156.557-37.751,200.838,0c3.337,2.831,6.557,5.788,9.641,8.845c1.881,1.818,3.699,3.699,5.463,5.598
			c0.199,0.199,0.38,0.407,0.57,0.624c1.239,1.32,2.442,2.65,3.618,3.989c0.353,0.398,0.696,0.796,1.04,1.194
			c0.516,0.597,1.031,1.194,1.538,1.8c0.624,0.733,1.239,1.474,1.854,2.216c0.389,0.47,0.769,0.941,1.149,1.411
			c2.469,3.039,4.821,6.123,7.064,9.225c0.452,0.615,0.895,1.239,1.339,1.863c3.093,4.341,5.969,8.728,8.637,13.087
			c0.38,0.624,0.76,1.248,1.131,1.863c0.38,0.624,0.751,1.248,1.112,1.872c0.362,0.615,0.724,1.239,1.076,1.854
			c0.362,0.624,0.715,1.239,1.058,1.854s0.687,1.239,1.031,1.854c0.353,0.615,0.687,1.23,1.004,1.836
			c0.335,0.615,0.66,1.23,0.986,1.836c0.326,0.606,0.642,1.221,0.959,1.827c0.308,0.606,0.624,1.212,0.932,1.809
			c0.307,0.606,0.606,1.212,0.904,1.809c1.194,2.388,2.315,4.748,3.374,7.073c0.525,1.176,1.049,2.342,1.547,3.491
			c2.252,5.173,4.178,10.121,5.752,14.724c0.009,0.018,0.018,0.045,0.018,0.063c0.154,0.443,0.298,0.877,0.443,1.311
			c0.154,0.452,0.298,0.895,0.443,1.339c0.109,0.344,0.226,0.678,0.326,1.022c0.163,0.506,0.326,1.013,0.479,1.528
			c0.172,0.552,0.335,1.103,0.488,1.655c0.298,1.013,0.588,2.026,0.859,3.048c0.235,0.859,0.461,1.718,0.678,2.587
			c0.045,0.163,0.09,0.317,0.127,0.479c0.036,0.136,0.063,0.271,0.099,0.407c0.127,0.506,0.253,1.013,0.371,1.529
			c0.326,1.348,0.624,2.704,0.904,4.061c0.154,0.742,0.307,1.474,0.443,2.216c0.027,0.136,0.054,0.271,0.081,0.416
			c0.136,0.696,0.262,1.393,0.38,2.089c0.163,0.932,0.317,1.872,0.452,2.804c0.118,0.705,0.217,1.42,0.317,2.134
			c0.009,0.099,0.027,0.208,0.045,0.317c0.063,0.47,0.127,0.95,0.181,1.429c0.054,0.398,0.099,0.796,0.145,1.185
			c0.163,1.438,0.307,2.867,0.425,4.305c0.027,0.326,0.054,0.651,0.081,0.977c0.036,0.543,0.072,1.094,0.109,1.637
			c0.036,0.606,0.072,1.212,0.099,1.827c0.027,0.47,0.045,0.932,0.063,1.402c0.027,0.687,0.045,1.384,0.054,2.071
			C425.095,178.18,425.104,178.985,425.104,179.79z"/>
	</g>
</g>
<path opacity="0.2" fill="#253137" d="M18.49,194.65C18.309,194.532,18.354,194.451,18.49,194.65L18.49,194.65z"/>
<g>
	<path opacity="0.2" fill="#010002" d="M103.081,186.673c-0.923,6.15-5.463,11.152-11.369,13.087l-2.243,0.733
		c-8.068,11.423-22.213,16.298-34.269,9.216l-3.527-2.071l-9.876-11.74c-0.036,0.009-0.081,0.018-0.118,0.027
		c-3.129,0.651-6.666,0.172-8.981-2.035c-0.371,1.935-2.894,3.075-4.585,2.08c-1.691-0.995-1.908-3.762-0.398-5.02
		c-1.99,1.755-5.065,0.95-6.982-0.968c-0.081-5.237,0.47-10.473,1.764-15.638c0.814-3.211,1.854-6.304,3.12-9.27
		c0.959-2.288,2.044-4.486,3.247-6.639c0.09-0.181,0.199-0.371,0.308-0.552c1.782-3.147,3.799-6.159,6.014-9.062
		c0.38-0.344,0.76-0.687,1.14-1.031c0.859-0.787,1.727-1.556,2.605-2.333c0.054-0.045,0.109-0.099,0.163-0.145
		c1.402-1.23,2.822-2.442,4.26-3.645c2.216-1.854,4.468-3.672,6.738-5.481c0.072-0.063,0.154-0.118,0.226-0.181
		c1.945-1.538,3.907-3.066,5.861-4.585c0.986-0.76,1.963-1.519,2.948-2.279c0.597,0.072,1.176,0.208,1.737,0.407
		c2.415,0.841,2.831,3.057,4.504,4.576c2.225,2.035,4.359-1.384,7.787-1.275c10.537,0.326,6.449,11.134,11.595,9.777
		c22.222-5.861,18.487,22.566,8.827,28.806C99.274,176.154,104.185,179.275,103.081,186.673z"/>
	<g>
		<ellipse fill="#FFFFFF" stroke="#253137" stroke-miterlimit="10" cx="55.298" cy="176.677" rx="37.479" ry="37.015"/>
		<ellipse fill="#253137" stroke="#FFFFFF" stroke-miterlimit="10" cx="55.298" cy="175.179" rx="34.173" ry="33.75"/>
	</g>
	<g>
		<g>
			<g>
				<g>
					<g>
						<g>
							<path fill="#8AB996" d="M18.577,188.484c-2.152,1.336-2.768,5.835-1.071,7.784c1.697,1.938,4.936,0.441,5.599-2.595
								c0.313,0.85,1.312,0.988,1.827,0.255c0.363-0.525,0.378-1.343,0.125-1.903c-0.162-0.137-0.103-0.235,0,0
								c1.101,0.875,2.999-0.079,3.263-1.949c-0.806,4.971,3.714,9.313,7.046,6.784c-0.983,2.113,0.305,4.893,2.028,5.426
								c1.715,0.534,3.565-0.48,5.212-1.607c1.647-1.127,3.329-2.414,5.129-2.493c1.57-0.075,3.024,0.81,4.517,1.336
								c4.758,1.656,10.325-0.538,13.965-5.526c2.405,4.115,8.33,2.6,9.918-2.524c0.334,2.399,1.976,4.225,3.807,4.249
								c1.831,0.024,3.679-1.754,4.305-4.139l-0.001,0.031c0.041,2.27,2.065,3.382,3.513,1.921c1.849-1.862,2.996-5.284,2.085-8.024
								c2.466-0.099,4.85-2.957,5.223-6.268c0.381-3.312-1.291-6.634-3.669-7.284c4.08-1.695,7.278-7.253,7.431-12.928
								c0.145-5.664-2.765-10.932-6.773-12.257c-1.527-0.503-3.311-0.405-4.6,0.962c-0.475-3.228-1.941-6.112-4.1-7.561
								c-3.44-2.323-8.224-0.732-10.784,3.593c1.248-2.234,1.332-5.464,0.196-7.584c-1.136-2.109-3.395-2.955-5.311-1.958
								c-0.413-3.462-3.086-5.927-5.702-5.253c-2.608,0.673-4.72,4.373-4.497,7.878c-0.244-2.823-3.574-3.52-4.775-1.153
								c0.103,0.214-0.051,0.087,0,0c-1.661-3.49-5.045-5.283-8.184-4.264c-3.338,1.095-6.142,5.288-6.57,9.859
								c-2.302-2.1-5.663-2.009-8.135,0.226c-2.472,2.225-3.896,6.459-3.465,10.245c-2.598-2.564-6.968-1.165-8.749,2.798
								c-1.781,3.963-0.553,9.574,2.455,11.233c-2.076,0.316-3.9,3.066-3.902,5.852c0.006,2.796,1.835,5.176,3.914,5.101
								c-2.097,0.181-4.073,2.658-4.379,5.473C15.166,185.048,16.568,187.863,18.577,188.484z"/>
						</g>
					</g>
					<g opacity="0.2">
						<g>
							<path fill="#FFFFFF" d="M53.031,175.513c-1.048-0.878-2.383-1.304-3.661-0.902c-1.278,0.402-2.451,1.725-2.742,3.361
								c-0.291,1.635,0.465,3.442,1.719,3.753c1.525,0.379,3.089-1.327,4.647-1.141c0.556,0.067,1.063,0.372,1.603,0.524
								c2.231,0.627,4.489-1.378,6.385-3.263c0.667-0.663,1.349-1.347,1.803-2.254c0.454-0.907,0.638-2.099,0.242-2.974
								c-0.551-1.219-1.906-1.32-3.04-1.086c-2.275,0.47-4.487,1.772-6.3,3.707c0.067-0.457,0.133-0.914,0.2-1.371L53.031,175.513z"
								/>
						</g>
						<g>
							<path fill="#FFFFFF" d="M85.699,171.058c-0.599-0.506-1.217-1.022-1.937-1.195c-0.719-0.173-1.574,0.077-2.045,0.852
								c-0.646,1.062-0.277,2.639,0.504,3.401c0.782,0.762,1.834,0.923,2.837,1.06c1.031,0.141,2.334,0.109,2.867-1.087
								c0.388-0.871,0.109-1.975-0.435-2.606c-0.544-0.631-1.29-0.902-2.011-1.155L85.699,171.058z"/>
						</g>
						<g>
							<path fill="#FFFFFF" d="M34.559,152.578c-2.098,1.234-3.748,3.783-4.284,6.616c-0.162,0.855-0.16,1.918,0.412,2.332
								c0.407,0.294,0.935,0.13,1.407-0.041c2.002-0.725,4.004-1.449,6.006-2.174c-0.961,0.526-1.946,1.071-2.723,1.986
								c-0.777,0.915-1.313,2.294-1.087,3.542c0.266,1.466,1.524,2.299,2.724,2.204c1.2-0.095,2.33-0.924,3.321-1.874
								c1.058-1.014,2.098-2.395,2.148-4.028c0.05-1.633-1.534-3.048-2.536-1.942c2.29-0.928,4.488-2.324,6.479-4.115
								c0.72-0.648,1.431-1.372,1.896-2.326c0.464-0.954,0.639-2.189,0.246-3.117c-1.955-4.604-4.661,2.49-5.929,3.185
								C40.234,154.145,37.611,150.782,34.559,152.578z"/>
							<path fill="#FFFFFF" d="M24.907,173.331c-0.227,0.938-0.103,2.044,0.476,2.608c0.579,0.564,1.628,0.298,1.916-0.617
								c-1.343,0.613-2.777,1.31-3.635,2.793c-0.857,1.482-0.697,3.973,0.62,4.444c0.822,0.294,1.716-0.278,2.491-0.858
								c2.191-1.641,4.289-3.503,6.265-5.562c-0.624,1.781,0.766,3.673,2.248,3.744c1.483,0.071,2.889-1.037,4.182-2.102
								c1.585-1.307,3.41-3.265,3.041-5.512c-0.321-1.955-2.289-2.709-3.825-2.036c-1.536,0.673-2.712,2.313-3.808,3.882
								c0.866-1.607-0.282-3.844-1.743-4.007c-1.421-0.158-2.863,1.036-3.775,2.428c1.681-1.263,2.109-4.316-0.108-4.53
								C27.808,167.865,25.284,171.772,24.907,173.331z"/>
							<path fill="#FFFFFF" d="M70.608,163.741c-1.243-0.521-2.834,0.616-3.202,2.289c-0.368,1.673,0.571,3.5,1.889,3.678
								c-0.975,0.166-1.918,0.843-2.561,1.837c-0.358,0.553-0.633,1.252-0.567,1.932c0.098,1.018,0.942,1.638,1.753,1.626
								c0.811-0.012,1.593-0.498,2.34-0.973c-0.803,0.145-1.655,0.316-2.302,0.984c-0.647,0.668-0.948,2.017-0.39,2.706
								c0.467,0.576,1.254,0.427,1.907,0.156c1.465-0.609,2.837-1.664,3.964-3.048c0.807,1.119,2.02,1.888,3.244,1.559
								c1.225-0.328,2.291-2.049,1.936-3.525c-0.253-1.053-1.118-1.673-1.991-1.755c-0.873-0.081-1.757,0.278-2.602,0.676
								c0.872-0.83,1.799-1.753,2.137-3.054c0.337-1.3-0.31-2.98-1.364-2.813c-1.183,0.19-1.824,2.278-2.77,3.071
								C70.902,167.783,73.109,164.789,70.608,163.741z"/>
							<g>
								<path fill="#FFFFFF" d="M49.443,158.781c-1.365,1.242-1.871,3.558-1.816,5.618c0.061,2.274,0.83,4.661,2.454,5.476
									c2.137,1.071,4.876-1.384,5.326-4.37c0.45-2.986-1.019-5.904-3.084-7.162C52.323,158.343,50.808,157.539,49.443,158.781z"/>
							</g>
							<g>
								<path fill="#FFFFFF" d="M64.562,155.397c0.182,0.193,0.363,0.385,0.545,0.578c-0.889-1.422-2.818-1.498-3.928-0.155
									c-1.11,1.343-1.162,3.815-0.105,5.035c1.056,1.219,2.994,0.923,3.945-0.604c1.541,0.827,3.603,0.342,4.73-1.412
									c1.127-1.754,0.933-4.68-0.542-5.669c-1.475-0.99-3.777,0.772-3.658,2.943c-0.21-0.294-0.421-0.588-0.632-0.881
									L64.562,155.397z"/>
							</g>
							<g>
								<path fill="#FFFFFF" d="M81.138,157.804c-1.092,1.405-2.228,2.903-2.652,4.77c-0.425,1.867,0.178,4.174,1.62,4.555
									c1.433,0.379,2.829-1.221,3.68-2.852c0.769-1.473,1.368-3.285,0.97-4.883c-0.397-1.598-2.214-2.447-3.154-1.14
									L81.138,157.804z"/>
							</g>
							<path fill="#FFFFFF" d="M57.365,148.138c-0.516-1.511-2.227-1.947-3.372-0.983c-1.144,0.964-1.597,3.006-1.133,4.549
								c0.464,1.543,1.71,2.533,3.028,2.636c1.632,0.128,3.595-1.675,3.265-3.698c0.684,1.142,1.942,1.534,3.105,1.317
								c1.164-0.216,2.254-0.954,3.279-1.758c1.391-1.091,2.884-2.739,2.777-4.742c-0.086-1.596-1.28-2.755-2.534-2.826
								c-1.254-0.072-2.505,0.748-3.484,1.852c-0.769,0.868-1.415,1.919-2.243,2.689c-0.829,0.769-1.945,1.222-2.808,0.677
								L57.365,148.138z"/>
						</g>
					</g>
				</g>
			</g>
		</g>
	</g>
</g>
<g>
	<g>
		
			<rect x="121.182" y="204.148" fill="#8AB996" stroke="#253137" stroke-linecap="round" stroke-linejoin="round" stroke-miterlimit="10" width="208.623" height="87.863"/>
		<g>
			<rect x="125.54" y="209.464" fill="#FFFFFF" stroke="#253137" stroke-miterlimit="10" width="19.629" height="10.866"/>
			<rect x="294.062" y="262.431" fill="#FFFFFF" stroke="#253137" stroke-miterlimit="10" width="30.917" height="10.866"/>
			<rect x="305.895" y="223.033" fill="#FFFFFF" stroke="#253137" stroke-miterlimit="10" width="19.084" height="10.866"/>
			<rect x="125.54" y="249.034" fill="#FFFFFF" stroke="#253137" stroke-miterlimit="10" width="19.629" height="10.866"/>
			<rect x="125.54" y="235.948" fill="#FFFFFF" stroke="#253137" stroke-miterlimit="10" width="15.89" height="10.866"/>
			<g>
				<rect x="125.54" y="222.706" fill="#FFFFFF" stroke="#253137" stroke-miterlimit="10" width="10.866" height="10.866"/>
				<rect x="139.408" y="222.706" fill="#FFFFFF" stroke="#253137" stroke-miterlimit="10" width="10.866" height="10.866"/>
				<rect x="153.277" y="222.706" fill="#FFFFFF" stroke="#253137" stroke-miterlimit="10" width="10.866" height="10.866"/>
				<rect x="167.145" y="222.706" fill="#FFFFFF" stroke="#253137" stroke-miterlimit="10" width="10.866" height="10.866"/>
				<rect x="181.013" y="222.706" fill="#FFFFFF" stroke="#253137" stroke-miterlimit="10" width="10.866" height="10.866"/>
				<rect x="194.881" y="222.706" fill="#FFFFFF" stroke="#253137" stroke-miterlimit="10" width="10.866" height="10.866"/>
				<rect x="208.75" y="222.706" fill="#FFFFFF" stroke="#253137" stroke-miterlimit="10" width="10.866" height="10.866"/>
				<rect x="222.618" y="222.706" fill="#FFFFFF" stroke="#253137" stroke-miterlimit="10" width="10.866" height="10.866"/>
				<rect x="236.486" y="222.706" fill="#FFFFFF" stroke="#253137" stroke-miterlimit="10" width="10.866" height="10.866"/>
				<rect x="250.354" y="222.706" fill="#FFFFFF" stroke="#253137" stroke-miterlimit="10" width="10.866" height="10.866"/>
				<rect x="264.222" y="222.706" fill="#FFFFFF" stroke="#253137" stroke-miterlimit="10" width="10.866" height="10.866"/>
				<rect x="278.091" y="222.706" fill="#FFFFFF" stroke="#253137" stroke-miterlimit="10" width="10.866" height="10.866"/>
				<rect x="291.959" y="222.706" fill="#FFFFFF" stroke="#253137" stroke-miterlimit="10" width="10.866" height="10.866"/>
			</g>
			<g>
				<rect x="125.54" y="275.829" fill="#FFFFFF" stroke="#253137" stroke-miterlimit="10" width="10.866" height="10.866"/>
				<rect x="139.408" y="275.829" fill="#FFFFFF" stroke="#253137" stroke-miterlimit="10" width="10.866" height="10.866"/>
				<rect x="153.277" y="275.829" fill="#FFFFFF" stroke="#253137" stroke-miterlimit="10" width="10.866" height="10.866"/>
				<rect x="167.145" y="275.829" fill="#FFFFFF" stroke="#253137" stroke-miterlimit="10" width="13.258" height="10.866"/>
				<rect x="183.405" y="275.829" fill="#FFFFFF" stroke="#253137" stroke-miterlimit="10" width="66.339" height="10.866"/>
				<rect x="272.047" y="275.829" fill="#FFFFFF" stroke="#253137" stroke-miterlimit="10" width="10.866" height="10.866"/>
				<rect x="285.915" y="275.829" fill="#FFFFFF" stroke="#253137" stroke-miterlimit="10" width="10.866" height="10.866"/>
				<rect x="299.807" y="275.829" fill="#FFFFFF" stroke="#253137" stroke-miterlimit="10" width="10.866" height="10.866"/>
				<rect x="252.457" y="275.829" fill="#FFFFFF" stroke="#253137" stroke-miterlimit="10" width="16.871" height="10.866"/>
				<rect x="314.113" y="275.829" fill="#FFFFFF" stroke="#253137" stroke-miterlimit="10" width="10.866" height="10.866"/>
			</g>
			<g>
				<rect x="144.514" y="235.948" fill="#FFFFFF" stroke="#253137" stroke-miterlimit="10" width="10.866" height="10.866"/>
				<rect x="158.382" y="235.948" fill="#FFFFFF" stroke="#253137" stroke-miterlimit="10" width="10.866" height="10.866"/>
				<rect x="172.25" y="235.948" fill="#FFFFFF" stroke="#253137" stroke-miterlimit="10" width="10.866" height="10.866"/>
				<rect x="186.118" y="235.948" fill="#FFFFFF" stroke="#253137" stroke-miterlimit="10" width="10.866" height="10.866"/>
				<rect x="199.987" y="235.948" fill="#FFFFFF" stroke="#253137" stroke-miterlimit="10" width="10.866" height="10.866"/>
				<rect x="213.855" y="235.948" fill="#FFFFFF" stroke="#253137" stroke-miterlimit="10" width="10.866" height="10.866"/>
				<rect x="227.723" y="235.948" fill="#FFFFFF" stroke="#253137" stroke-miterlimit="10" width="10.866" height="10.866"/>
				<rect x="241.591" y="235.948" fill="#FFFFFF" stroke="#253137" stroke-miterlimit="10" width="10.866" height="10.866"/>
				<rect x="255.459" y="235.948" fill="#FFFFFF" stroke="#253137" stroke-miterlimit="10" width="10.866" height="10.866"/>
				<rect x="269.328" y="235.948" fill="#FFFFFF" stroke="#253137" stroke-miterlimit="10" width="10.866" height="10.866"/>
				<rect x="283.196" y="235.948" fill="#FFFFFF" stroke="#253137" stroke-miterlimit="10" width="10.866" height="10.866"/>
				<rect x="297.064" y="235.948" fill="#FFFFFF" stroke="#253137" stroke-miterlimit="10" width="10.866" height="10.866"/>
				<polygon fill="#FFFFFF" stroke="#253137" stroke-miterlimit="10" points="324.979,235.95 324.979,260.056 314.116,260.056 
					314.116,246.813 310.929,246.813 310.929,235.95 				"/>
			</g>
			<g>
				<rect x="147.694" y="249.189" fill="#FFFFFF" stroke="#253137" stroke-miterlimit="10" width="10.866" height="10.866"/>
				<rect x="161.563" y="249.189" fill="#FFFFFF" stroke="#253137" stroke-miterlimit="10" width="10.866" height="10.866"/>
				<rect x="175.431" y="249.189" fill="#FFFFFF" stroke="#253137" stroke-miterlimit="10" width="10.866" height="10.866"/>
				<rect x="189.299" y="249.189" fill="#FFFFFF" stroke="#253137" stroke-miterlimit="10" width="10.866" height="10.866"/>
				<rect x="203.167" y="249.189" fill="#FFFFFF" stroke="#253137" stroke-miterlimit="10" width="10.866" height="10.866"/>
				<rect x="217.035" y="249.189" fill="#FFFFFF" stroke="#253137" stroke-miterlimit="10" width="10.866" height="10.866"/>
				<rect x="230.904" y="249.189" fill="#FFFFFF" stroke="#253137" stroke-miterlimit="10" width="10.866" height="10.866"/>
				<rect x="244.772" y="249.189" fill="#FFFFFF" stroke="#253137" stroke-miterlimit="10" width="10.866" height="10.866"/>
				<rect x="258.64" y="249.189" fill="#FFFFFF" stroke="#253137" stroke-miterlimit="10" width="10.866" height="10.866"/>
				<rect x="272.508" y="249.189" fill="#FFFFFF" stroke="#253137" stroke-miterlimit="10" width="10.866" height="10.866"/>
				<rect x="286.376" y="249.189" fill="#FFFFFF" stroke="#253137" stroke-miterlimit="10" width="10.866" height="10.866"/>
				<rect x="300.245" y="249.189" fill="#FFFFFF" stroke="#253137" stroke-miterlimit="10" width="10.866" height="10.866"/>
			</g>
			<g>
				<rect x="141.8" y="262.431" fill="#FFFFFF" stroke="#253137" stroke-miterlimit="10" width="10.866" height="10.866"/>
				<rect x="155.669" y="262.431" fill="#FFFFFF" stroke="#253137" stroke-miterlimit="10" width="10.866" height="10.866"/>
				<rect x="169.537" y="262.431" fill="#FFFFFF" stroke="#253137" stroke-miterlimit="10" width="10.866" height="10.866"/>
				<rect x="183.405" y="262.431" fill="#FFFFFF" stroke="#253137" stroke-miterlimit="10" width="10.866" height="10.866"/>
				<rect x="197.273" y="262.431" fill="#FFFFFF" stroke="#253137" stroke-miterlimit="10" width="10.866" height="10.866"/>
				<rect x="211.141" y="262.431" fill="#FFFFFF" stroke="#253137" stroke-miterlimit="10" width="10.866" height="10.866"/>
				<rect x="225.01" y="262.431" fill="#FFFFFF" stroke="#253137" stroke-miterlimit="10" width="10.866" height="10.866"/>
				<rect x="238.878" y="262.431" fill="#FFFFFF" stroke="#253137" stroke-miterlimit="10" width="10.866" height="10.866"/>
				<rect x="252.746" y="262.431" fill="#FFFFFF" stroke="#253137" stroke-miterlimit="10" width="10.866" height="10.866"/>
				<rect x="266.614" y="262.431" fill="#FFFFFF" stroke="#253137" stroke-miterlimit="10" width="10.866" height="10.866"/>
				<rect x="280.482" y="262.431" fill="#FFFFFF" stroke="#253137" stroke-miterlimit="10" width="10.866" height="10.866"/>
			</g>
			<g>
				<rect x="147.694" y="210.12" fill="#FFFFFF" stroke="#253137" stroke-miterlimit="10" width="10.866" height="10.866"/>
				<rect x="161.563" y="210.12" fill="#FFFFFF" stroke="#253137" stroke-miterlimit="10" width="10.866" height="10.866"/>
				<rect x="175.431" y="210.12" fill="#FFFFFF" stroke="#253137" stroke-miterlimit="10" width="10.866" height="10.866"/>
				<rect x="189.299" y="210.12" fill="#FFFFFF" stroke="#253137" stroke-miterlimit="10" width="10.866" height="10.866"/>
				<rect x="203.167" y="210.12" fill="#FFFFFF" stroke="#253137" stroke-miterlimit="10" width="10.866" height="10.866"/>
				<rect x="217.035" y="210.12" fill="#FFFFFF" stroke="#253137" stroke-miterlimit="10" width="10.866" height="10.866"/>
				<rect x="230.904" y="210.12" fill="#FFFFFF" stroke="#253137" stroke-miterlimit="10" width="10.866" height="10.866"/>
				<rect x="244.772" y="210.12" fill="#FFFFFF" stroke="#253137" stroke-miterlimit="10" width="10.866" height="10.866"/>
				<rect x="258.64" y="210.12" fill="#FFFFFF" stroke="#253137" stroke-miterlimit="10" width="10.866" height="10.866"/>
				<rect x="272.508" y="210.12" fill="#FFFFFF" stroke="#253137" stroke-miterlimit="10" width="10.866" height="10.866"/>
				<rect x="286.376" y="210.12" fill="#FFFFFF" stroke="#253137" stroke-miterlimit="10" width="10.866" height="10.866"/>
				<rect x="300.245" y="210.12" fill="#FFFFFF" stroke="#253137" stroke-miterlimit="10" width="10.866" height="10.866"/>
				<rect x="314.113" y="210.12" fill="#FFFFFF" stroke="#253137" stroke-miterlimit="10" width="10.866" height="10.866"/>
			</g>
			<rect x="125.54" y="262.431" fill="#FFFFFF" stroke="#253137" stroke-miterlimit="10" width="13.164" height="10.866"/>
		</g>
	</g>
	<polygon fill="#253137" points="121.182,204.71 125.54,203.257 326.971,203.257 329.842,204.692 	"/>
</g>
<g>
	<path opacity="0.2" fill="#010002" d="M270.093,355.404l-4.242-25.55c-0.932-3.808-2.93-7.272-5.743-10.003
		c-8.438-8.14-19.59-16.497-20.069-27.169c-0.733-16.307-3.274-15.819-3.003-19.843c0.009-0.145,1.266-1.945,2.903-5.969
		c0.525-1.302,0.877-3.238,1.23-4.83c0.362-1.673,1.954-2.813,3.654-2.578c1.14,0.154,2.261,0.669,3.066,1.438
		c1.547,1.501,2.234,3.717,2.297,5.879c0.063,2.153-0.416,4.287-0.904,6.385c1.519,3.401,2.234,7.534,2.722,11.224
		c0.968-2.985,1.7-5.996,2.668-8.972c0.199-0.109,0.127-0.344,0.317-0.452c-1.366-2.93-0.208-2.768-2.912-9.216
		c-4.549-10.853-9.623-21.317-13.25-34.956c-0.289-1.058-0.271-2.795,0.081-3.835c1.311-3.898,5.327-3.003,7.082-0.733
		c0.47,0.597,0.814,1.266,1.085,1.972c1.854,4.857,5.806,12.345,8.655,16.687l9.849,15.014c0,0,3.428-2.813,3.952-4.07l0.009-0.009
		c0.516-1.266,0.769-11.459,0.769-11.459s-0.778,1.908-2.505,1.8c-1.248-0.09-3.781,0.633-5.58-1.393
		c-1.474-1.655-1.474-4.142-0.163-5.915l4.459-6.024c0,0,2.994-2.623,7-0.841c3.998,1.791,7.878,5.517,7.878,5.517
		s3.708-0.19,6.856,1.32c3.156,1.519,6.467,5.879,6.467,5.879s3.681,0.226,5.336,1.429c0.416,0.298,6.033,9.044,4.007,15.855
		c-1.203,4.061-1.945,9.958-2.487,11.541l-2.759,39.876l5.562,26.247l-11.892,6.63c-4.373,2.438-8.953,4.486-13.686,6.119
		L270.093,355.404z"/>
	<g>
		<g>
			<g>
				<g>
					<g>
						<defs>
							<path id="XMLID_2_" d="M303.867,308.806l0.106-39.979c0.436-1.616,0.784-7.549,1.713-11.681
								c1.568-6.929-4.616-15.281-5.052-15.552c-1.732-1.084-5.42-1.065-5.42-1.065s-3.59-4.132-6.842-5.439
								c-3.242-1.297-6.929-0.861-6.929-0.861s-4.113-3.465-8.226-4.984c-4.113-1.51-6.929,1.307-6.929,1.307l-4.045,6.3
								c-1.19,1.858-1.026,4.345,0.552,5.894c1.936,1.906,4.413,1.016,5.661,1.016c1.732,0,2.381-1.955,2.381-1.955
								s0.426,10.181,0,11.478l-0.01,0.01c-0.445,1.297-3.678,4.326-3.678,4.326l-10.82-14.323
								c-3.136-4.142-7.578-11.352-9.746-16.075c-0.319-0.687-0.706-1.336-1.219-1.897c-1.897-2.149-5.962-2.778-7.016,1.2
								c-0.281,1.065-0.184,2.797,0.174,3.832c4.529,13.365,10.288,23.469,15.543,33.998c3.126,6.252,1.965,6.174,3.523,9
								c-0.184,0.126-0.097,0.358-0.29,0.474c-0.765,3.039-1.297,6.087-2.061,9.126c-0.735-3.649-1.723-7.723-3.465-11.013
								c0.348-2.129,0.687-4.287,0.474-6.436c-0.203-2.148-1.036-4.316-2.681-5.71c-0.852-0.716-2.003-1.152-3.155-1.229
								c-1.713-0.126-3.223,1.123-3.474,2.816c-0.242,1.607-0.465,3.561-0.91,4.897c-1.365,4.123-2.497,6-2.497,6.145
								c0,4.036,2.497,3.378,4.316,19.607c1.413,12.639,17.691,20.991,26.556,30.117l9.446,29.711
								c10.965-4.394,21.456-10.017,31.521-16.549L303.867,308.806z"/>
						</defs>
						<use xlink:href="#XMLID_2_"  overflow="visible" fill="#FFFFFF"/>
						<clipPath id="XMLID_6_">
							<use xlink:href="#XMLID_2_"  overflow="visible"/>
						</clipPath>
						<g clip-path="url(#XMLID_6_)">
							<g>
								<path fill="#8AB996" d="M299.23,254.481c0.481-1.176,1.051-2.385,2.077-3.134c1.026-0.749,2.637-0.843,3.461,0.123
									c-0.675-2.074-1.392-4.135-2.15-6.181c-0.577-1.557-1.229-3.178-2.514-4.229c-1.286-1.051-3.405-1.273-4.506-0.031
									c0.786,4.718,0.871,9.552,0.253,14.294c-0.335,2.568-0.767,5.521,0.963,7.448c0.477,0.389,1.303-0.309,1.002-0.844
									c-0.143-0.253-0.655-0.27-0.876-0.248C297.495,259.225,298.278,256.811,299.23,254.481z"/>
								<path fill="#8AB996" d="M299.23,254.481c0.481-1.176,1.051-2.385,2.077-3.134c1.026-0.749,2.637-0.843,3.461,0.123
									c-0.675-2.074-1.392-4.135-2.15-6.181c-0.577-1.557-1.229-3.178-2.514-4.229c-1.286-1.051-3.405-1.273-4.506-0.031
									c0.786,4.718,0.871,9.552,0.253,14.294c-0.335,2.568-0.767,5.521,0.963,7.448c0.477,0.389,1.303-0.309,1.002-0.844
									c-0.143-0.253-0.655-0.27-0.876-0.248C297.495,259.225,298.278,256.811,299.23,254.481z"/>
								<path opacity="0.5" fill="#FFFFFF" d="M299.23,254.481c0.481-1.176,1.051-2.385,2.077-3.134
									c1.026-0.749,2.637-0.843,3.461,0.123c-0.675-2.074-1.392-4.135-2.15-6.181c-0.577-1.557-1.229-3.178-2.514-4.229
									c-1.286-1.051-3.405-1.273-4.506-0.031c0.786,4.718,0.871,9.552,0.253,14.294c-0.335,2.568-0.767,5.521,0.963,7.448
									c0.477,0.389,1.303-0.309,1.002-0.844c-0.143-0.253-0.655-0.27-0.876-0.248C297.495,259.225,298.278,256.811,299.23,254.481
									z"/>
							</g>
							<g>
								<path fill="#8AB996" d="M284.802,250.19c0.068,1.74,0.057,3.502,0.486,5.189c0.429,1.687,1.368,3.331,2.89,4.175
									c-0.897-3.37-0.412-6.935,0.078-10.388c0.298-2.098,0.596-4.196,0.894-6.293c0.104-0.729,0.218-1.488,0.638-2.094
									s1.243-1,1.912-0.693c-0.893,0.53-2.054-0.18-2.593-1.068c-0.539-0.888-0.752-1.961-1.39-2.781
									c-1.209-1.554-3.795-1.898-5.584-1.484C282.676,239.919,284.593,244.852,284.802,250.19z"/>
								<g>
									<path fill="#8AB996" d="M284.802,250.19c0.068,1.74,0.057,3.502,0.486,5.189c0.429,1.687,1.368,3.331,2.89,4.175
										c-0.897-3.37-0.412-6.935,0.078-10.388c0.298-2.098,0.596-4.196,0.894-6.293c0.104-0.729,0.218-1.488,0.638-2.094
										s1.243-1,1.912-0.693c-0.893,0.53-2.054-0.18-2.593-1.068c-0.539-0.888-0.752-1.961-1.39-2.781
										c-1.209-1.554-3.795-1.898-5.584-1.484C282.676,239.919,284.593,244.852,284.802,250.19z"/>
								</g>
								<g opacity="0.5">
									<path fill="#FFFFFF" d="M284.802,250.19c0.068,1.74,0.057,3.502,0.486,5.189c0.429,1.687,1.368,3.331,2.89,4.175
										c-0.897-3.37-0.412-6.935,0.078-10.388c0.298-2.098,0.596-4.196,0.894-6.293c0.104-0.729,0.218-1.488,0.638-2.094
										s1.243-1,1.912-0.693c-0.893,0.53-2.054-0.18-2.593-1.068c-0.539-0.888-0.752-1.961-1.39-2.781
										c-1.209-1.554-3.795-1.898-5.584-1.484C282.676,239.919,284.593,244.852,284.802,250.19z"/>
								</g>
							</g>
							<g>
								<g>
									<path fill="#8AB996" d="M270.035,236.248c-0.584-0.429-0.778-1.199-0.954-1.901c-0.176-0.703-0.427-1.471-1.059-1.826
										c-2.778,1.761-1.26,6.925-4.068,8.638c-0.544,0.332-1.239,0.52-1.542,1.081c-0.274,0.508-0.1,1.173,0.297,1.592
										c0.396,0.419,0.969,0.628,1.537,0.73c2.234,0.401,4.588-0.739,5.921-2.576c1.1-1.515,1.862-3.962,1.318-5.758
										C271.06,236.464,270.451,236.553,270.035,236.248z"/>
									<path fill="#8AB996" d="M241.162,270.059c-0.05,0.194-0.086,0.435,0.068,0.562c0.238,0.196,0.555-0.108,0.732-0.36
										c1.165-1.657,3.472-2.406,5.388-1.75c0.732-0.014,0.98-1.128,0.501-1.681c-0.479-0.553-1.293-0.649-2.025-0.651
										c-0.732-0.002-1.515,0.037-2.135-0.352c-0.763-0.477-1.062-1.447-0.868-2.28
										C242.331,265.727,241.723,267.893,241.162,270.059z"/>
								</g>
								<g opacity="0.5">
									<path fill="#FFFFFF" d="M270.035,236.248c-0.584-0.429-0.778-1.199-0.954-1.901c-0.176-0.703-0.427-1.471-1.059-1.826
										c-2.778,1.761-1.26,6.925-4.068,8.638c-0.544,0.332-1.239,0.52-1.542,1.081c-0.274,0.508-0.1,1.173,0.297,1.592
										c0.396,0.419,0.969,0.628,1.537,0.73c2.234,0.401,4.588-0.739,5.921-2.576c1.1-1.515,1.862-3.962,1.318-5.758
										C271.06,236.464,270.451,236.553,270.035,236.248z"/>
									<path fill="#FFFFFF" d="M241.162,270.059c-0.05,0.194-0.086,0.435,0.068,0.562c0.238,0.196,0.555-0.108,0.732-0.36
										c1.165-1.657,3.472-2.406,5.388-1.75c0.732-0.014,0.98-1.128,0.501-1.681c-0.479-0.553-1.293-0.649-2.025-0.651
										c-0.732-0.002-1.515,0.037-2.135-0.352c-0.763-0.477-1.062-1.447-0.868-2.28
										C242.331,265.727,241.723,267.893,241.162,270.059z"/>
								</g>
							</g>
							<g>
								<path fill="#8AB996" d="M277.985,235.559c-1.582-0.212-3.255-0.251-4.632-1.058c-1.726-1.011-2.908-3.171-4.906-3.258
									c-1.775-0.077-3.097,1.55-4.106,3.013c-0.116-2.208,1.507-4.27,3.56-5.092c2.053-0.821,4.414-0.561,6.468,0.256
									c2.054,0.817,3.858,2.147,5.612,3.492c0.705,0.541,1.421,1.102,1.897,1.852
									C284.109,238.277,279.382,235.746,277.985,235.559z"/>
								<path opacity="0.5" fill="#FFFFFF" d="M277.985,235.559c-1.582-0.212-3.255-0.251-4.632-1.058
									c-1.726-1.011-2.908-3.171-4.906-3.258c-1.775-0.077-3.097,1.55-4.106,3.013c-0.116-2.208,1.507-4.27,3.56-5.092
									c2.053-0.821,4.414-0.561,6.468,0.256c2.054,0.817,3.858,2.147,5.612,3.492c0.705,0.541,1.421,1.102,1.897,1.852
									C284.109,238.277,279.382,235.746,277.985,235.559z"/>
							</g>
						</g>
						<g clip-path="url(#XMLID_6_)">
							<path fill="#8AB996" d="M249.695,286.924c0.109-0.198,0.203-0.402,0.297-0.607
								C249.802,286.463,249.676,286.664,249.695,286.924z"/>
							<path fill="#8AB996" d="M252.381,272.914c-0.178-2.229,0.14-4.471,0.047-6.706c-0.093-2.234-0.677-4.587-2.304-6.121
								c-2.334-2.2-8.725-1.075-6.581,3.1c0.594,1.157,2.127,1.759,3.318,1.237c1.191-0.521,1.778-2.143,1.126-3.268
								c2.584,3.919,2.353,9.483-0.548,13.174c3.314,2.871,4.367,8.012,2.553,11.986c0.387-0.296,1.063-0.336,1.488-0.015
								c0.633,0.478,0.845,1.313,1.154,2.044c0.308,0.731,0.907,1.492,1.698,1.439c1.087-2.664,0.726-5.694,0.02-8.482
								C253.646,278.513,252.61,275.782,252.381,272.914z"/>
							<path fill="#8AB996" d="M275.781,230.973c-1.244-0.954-2.721-1.602-4.277-1.804L275.781,230.973z"/>
							<path fill="#8AB996" d="M286.415,259.272c-0.343-1.538-1.053-2.969-1.476-4.487c-0.987-3.537-0.367-7.315-0.819-10.959
								c-0.584-4.712-3.043-9.165-6.719-12.17l-1.62-0.683c1.55,1.189,2.738,2.854,3.26,4.739c1.252,4.319,1.645,8.83,2.2,13.292
								c0.856,6.882,2.113,13.714,3.76,20.451C286.08,266.155,287.17,262.66,286.415,259.272z"/>
							<path fill="#8AB996" d="M269.195,243.188c1.12-0.886,1.719-2.301,1.91-3.716c0.171-1.265,0.049-2.547-0.102-3.817
								c-0.107,0.545-0.816,1.001-1.422,0.857c-0.769-0.183-1.276-0.895-1.711-1.556c-0.11,0.38-0.22,0.759-0.33,1.139
								c-0.044-0.205-0.089-0.411-0.133-0.616l-0.43,0.547c0.641,1.816,1.259,3.922,0.269,5.573c-0.479,0.8-1.269,1.355-2.036,1.885
								C266.381,244.301,268.076,244.074,269.195,243.188z"/>
							<path fill="#8AB996" d="M270.951,235.205c0.018,0.15,0.035,0.3,0.052,0.45C271.032,235.508,271.026,235.356,270.951,235.205z
								"/>
							<path fill="#8AB996" d="M266.225,253.508c-3.172-6.23-6.345-12.463-9.832-18.522c-2.038-3.542-4.198-7.045-6.916-10.097
								c-1.205-1.352-4.667-4.484-6.573-2.421c-1.271,1.376,0.401,3.877-1.164,5.366c0.359,0.021,2.126-0.172,2.313,0.06
								c3.972,4.907,6.16,11.228,6.071,17.541c1.277-1.001,3.024,0.389,4.02,1.669c6.127,7.874,11.856,16.059,17.155,24.512
								c-1.027-3.737-1.052-7.699-2.161-11.412C268.443,257.867,267.331,255.68,266.225,253.508z"/>
							<path fill="#8AB996" d="M303.066,268.693c1.516-4.056,2.699-8.212,2.834-12.517c0.122-3.912-0.773-7.976-2.839-11.328
								c-0.523-0.848-2.696-4.313-3.885-4.032c-2.123,0.503,0.665,4.193,1.151,5.115c1.834,3.481,3.718,7.163,3.6,11.096
								c-0.091,3.03-1.365,5.877-2.384,8.733c-0.71,1.99-1.289,4.118-1.274,6.205c-0.157,0.232-0.299,0.473-0.47,0.696
								c-1.409,1.848-3.388,3.372-5.682,3.745c0.874-2.698,1.748-5.396,2.622-8.095c0.312-0.963,0.424-2.28-0.136-2.951
								c0.181-0.369,0.293-0.759,0.276-1.179c-0.029-0.743-0.454-1.402-0.767-2.077c-1.21-2.607-0.8-5.635-0.506-8.494
								c0.363-3.526,0.5-7.158-0.534-10.549c-1.034-3.391-3.428-6.535-6.789-7.66c0.288,0.31,0.575,0.62,0.863,0.93l-1.14-0.829
								c0.707,1.47,1.413,2.939,2.12,4.409c-0.26,0.372-0.521,0.744-0.781,1.116c1.166-0.611,2.662,0.275,3.196,1.479
								c0.534,1.204,0.388,2.584,0.265,3.895c-0.687,7.314-0.317,14.723,1.067,21.938c-0.132,1.684-0.424,3.39-1.302,4.826
								c-0.948,1.55-2.725,2.715-4.523,2.452c0.398-1.737-0.272-3.793-1.744-4.821c-1.824,2.532-0.749,6.466-0.472,9.349
								c0.421,4.369,1.122,8.711,2.1,12.99c0.281-3.711,1.059-7.383,2.308-10.888c0.984,3.572,1.968,7.143,2.952,10.715
								c0.031-1,0.073-2.043,0.557-2.918c0.485-0.875,1.56-1.51,2.496-1.157c0.766,0.289,1.181,1.103,1.496,1.859
								c2.557,6.14,3.201,13.061,1.82,19.566c1.214,0.674,2.821-0.141,3.495-1.355c0.674-1.215,0.667-2.677,0.642-4.066
								C303.488,292.825,303.277,280.759,303.066,268.693z"/>
							<path fill="#8AB996" d="M272.406,272.52c-0.58,1.017,1.79,5.051,2.182,6.009c1.993,4.867,3.987,9.733,5.98,14.6
								c-0.661-6.408-2.226-12.723-4.636-18.697C275.526,273.423,273.557,270.503,272.406,272.52z"/>
							<path fill="#8AB996" d="M275.502,246.726c-0.339,0.514-0.826,1.148-1.415,0.967c-0.549-0.168-0.643-0.894-0.634-1.469
								c0.055-3.386,0.11-6.772,0.165-10.158c-2.734,1.958-2.383,4.527-2.575,7.45c-0.111,1.692,0.379,9.764-0.776,10.753
								c2.702-2.305,4.992-5.092,6.73-8.19C276.523,245.687,275.841,246.212,275.502,246.726z"/>
							<g opacity="0.5">
								<path fill="#FFFFFF" d="M249.695,286.924c0.109-0.198,0.203-0.402,0.297-0.607
									C249.802,286.463,249.676,286.664,249.695,286.924z"/>
								<path fill="#FFFFFF" d="M252.381,272.914c-0.178-2.229,0.14-4.471,0.047-6.706c-0.093-2.234-0.677-4.587-2.304-6.121
									c-2.334-2.2-8.725-1.075-6.581,3.1c0.594,1.157,2.127,1.759,3.318,1.237c1.191-0.521,1.778-2.143,1.126-3.268
									c2.584,3.919,2.353,9.483-0.548,13.174c3.314,2.871,4.367,8.012,2.553,11.986c0.387-0.296,1.063-0.336,1.488-0.015
									c0.633,0.478,0.845,1.313,1.154,2.044c0.308,0.731,0.907,1.492,1.698,1.439c1.087-2.664,0.726-5.694,0.02-8.482
									C253.646,278.513,252.61,275.782,252.381,272.914z"/>
								<path fill="#FFFFFF" d="M275.781,230.973c-1.244-0.954-2.721-1.602-4.277-1.804L275.781,230.973z"/>
								<path fill="#FFFFFF" d="M286.415,259.272c-0.343-1.538-1.053-2.969-1.476-4.487c-0.987-3.537-0.367-7.315-0.819-10.959
									c-0.584-4.712-3.043-9.165-6.719-12.17l-1.62-0.683c1.55,1.189,2.738,2.854,3.26,4.739c1.252,4.319,1.645,8.83,2.2,13.292
									c0.856,6.882,2.113,13.714,3.76,20.451C286.08,266.155,287.17,262.66,286.415,259.272z"/>
								<path fill="#FFFFFF" d="M269.195,243.188c1.12-0.886,1.719-2.301,1.91-3.716c0.171-1.265,0.049-2.547-0.102-3.817
									c-0.107,0.545-0.816,1.001-1.422,0.857c-0.769-0.183-1.276-0.895-1.711-1.556c-0.11,0.38-0.22,0.759-0.33,1.139
									c-0.044-0.205-0.089-0.411-0.133-0.616l-0.43,0.547c0.641,1.816,1.259,3.922,0.269,5.573
									c-0.479,0.8-1.269,1.355-2.036,1.885C266.381,244.301,268.076,244.074,269.195,243.188z"/>
								<path fill="#FFFFFF" d="M270.951,235.205c0.018,0.15,0.035,0.3,0.052,0.45C271.032,235.508,271.026,235.356,270.951,235.205
									z"/>
								<path fill="#FFFFFF" d="M266.225,253.508c-3.172-6.23-6.345-12.463-9.832-18.522c-2.038-3.542-4.198-7.045-6.916-10.097
									c-1.205-1.352-4.667-4.484-6.573-2.421c-1.271,1.376,0.401,3.877-1.164,5.366c0.359,0.021,2.126-0.172,2.313,0.06
									c3.972,4.907,6.16,11.228,6.071,17.541c1.277-1.001,3.024,0.389,4.02,1.669c6.127,7.874,11.856,16.059,17.155,24.512
									c-1.027-3.737-1.052-7.699-2.161-11.412C268.443,257.867,267.331,255.68,266.225,253.508z"/>
								<path fill="#FFFFFF" d="M303.066,268.693c1.516-4.056,2.699-8.212,2.834-12.517c0.122-3.912-0.773-7.976-2.839-11.328
									c-0.523-0.848-2.696-4.313-3.885-4.032c-2.123,0.503,0.665,4.193,1.151,5.115c1.834,3.481,3.718,7.163,3.6,11.096
									c-0.091,3.03-1.365,5.877-2.384,8.733c-0.71,1.99-1.289,4.118-1.274,6.205c-0.157,0.232-0.299,0.473-0.47,0.696
									c-1.409,1.848-3.388,3.372-5.682,3.745c0.874-2.698,1.748-5.396,2.622-8.095c0.312-0.963,0.424-2.28-0.136-2.951
									c0.181-0.369,0.293-0.759,0.276-1.179c-0.029-0.743-0.454-1.402-0.767-2.077c-1.21-2.607-0.8-5.635-0.506-8.494
									c0.363-3.526,0.5-7.158-0.534-10.549c-1.034-3.391-3.428-6.535-6.789-7.66c0.288,0.31,0.575,0.62,0.863,0.93l-1.14-0.829
									c0.707,1.47,1.413,2.939,2.12,4.409c-0.26,0.372-0.521,0.744-0.781,1.116c1.166-0.611,2.662,0.275,3.196,1.479
									c0.534,1.204,0.388,2.584,0.265,3.895c-0.687,7.314-0.317,14.723,1.067,21.938c-0.132,1.684-0.424,3.39-1.302,4.826
									c-0.948,1.55-2.725,2.715-4.523,2.452c0.398-1.737-0.272-3.793-1.744-4.821c-1.824,2.532-0.749,6.466-0.472,9.349
									c0.421,4.369,1.122,8.711,2.1,12.99c0.281-3.711,1.059-7.383,2.308-10.888c0.984,3.572,1.968,7.143,2.952,10.715
									c0.031-1,0.073-2.043,0.557-2.918c0.485-0.875,1.56-1.51,2.496-1.157c0.766,0.289,1.181,1.103,1.496,1.859
									c2.557,6.14,3.201,13.061,1.82,19.566c1.214,0.674,2.821-0.141,3.495-1.355c0.674-1.215,0.667-2.677,0.642-4.066
									C303.488,292.825,303.277,280.759,303.066,268.693z"/>
								<path fill="#FFFFFF" d="M272.406,272.52c-0.58,1.017,1.79,5.051,2.182,6.009c1.993,4.867,3.987,9.733,5.98,14.6
									c-0.661-6.408-2.226-12.723-4.636-18.697C275.526,273.423,273.557,270.503,272.406,272.52z"/>
								<path fill="#FFFFFF" d="M275.502,246.726c-0.339,0.514-0.826,1.148-1.415,0.967c-0.549-0.168-0.643-0.894-0.634-1.469
									c0.055-3.386,0.11-6.772,0.165-10.158c-2.734,1.958-2.383,4.527-2.575,7.45c-0.111,1.692,0.379,9.764-0.776,10.753
									c2.702-2.305,4.992-5.092,6.73-8.19C276.523,245.687,275.841,246.212,275.502,246.726z"/>
							</g>
						</g>
					</g>
					<g>
						<g>
							<g>
								<path fill="none" d="M282.426,235.649c1.597,5.896,2.428,12,2.468,18.108c0.007,1.022-0.006,2.067,0.322,3.036
									c0.327,0.968,1.072,1.865,2.074,2.067"/>
								<path fill="none" d="M295.218,241.591c2.686,5.664-0.063,18.31,0.14,19.201c0.203,0.891,0.711,1.757,1.524,2.173"/>
								<g>
									<path fill="none" d="M271.9,234.875c-0.316,1.8-0.58,3.887-0.896,5.687c-2.102-1.789-3.44-4.447-3.626-7.201"/>
									<path fill="none" d="M254.573,283.132c-0.651,0.287-1.301,0.573-1.952,0.859"/>
									<path fill="none" d="M255.073,284.699c-0.318,1.502-0.325,3.07-0.021,4.576"/>
									<path fill="none" d="M266.501,267.796c0.722,1.299,1.444,2.599,2.166,3.898"/>
									<path fill="none" d="M270.659,253.532c0.717-1.014,1.435-2.027,2.153-3.041"/>
									<path fill="none" d="M300.936,267.796c-0.217,0.794-0.433,1.588-0.65,2.382"/>
									<path fill="none" d="M295.671,261.278c0.635-2.026,1.269-4.052,1.904-6.078"/>
									<path fill="none" d="M302.036,250.5c1.117-0.648,2.74-0.143,3.292,1.024"/>
									<path fill="none" d="M289.037,240.118c1.494-0.435,3.201-0.045,4.358,0.997"/>
									<path fill="none" d="M248.754,246.149c1.389-1.544,3.549-2.358,5.612-2.114"/>
								</g>
							</g>
							<path fill="none" d="M240.594,229.089c1.293-0.946,2.976-1.34,4.555-1.066"/>
							<path fill="#FFFFFF" d="M242.272,269.562c-1.048,0.831-1.949,1.845-2.652,2.982L242.272,269.562z"/>
						</g>
						<path fill="none" d="M243.142,265.455c1.43-1.022,3.708,1.264,5.023,0.097c0.524-0.465,0.563-1.27,0.442-1.959
							c-0.121-0.69-0.364-1.38-0.261-2.072"/>
					</g>
				</g>
			</g>
			<path fill="none" d="M283.47,259.183c1.737,3.567,2.097,7.782,0.993,11.592"/>
			<path fill="none" d="M293.975,264.761c0.286,1.695-0.041,3.486-0.907,4.971"/>
		</g>
	</g>
	<g>
		<g>
			<g>
				<g>
					<g>
						<path fill="none" stroke="#253137" stroke-miterlimit="10" d="M279.846,351.863l-9.446-29.711
							c-8.865-9.126-25.143-17.478-26.556-30.117c-1.819-16.23-4.316-15.572-4.316-19.607c0-0.145,1.132-2.023,2.497-6.145
							c0.445-1.335,0.668-3.29,0.91-4.897c0.252-1.694,1.761-2.942,3.474-2.816c1.152,0.077,2.303,0.513,3.155,1.229
							c1.645,1.394,2.478,3.561,2.681,5.71c0.213,2.148-0.126,4.307-0.474,6.436c1.742,3.29,2.729,7.365,3.465,11.013
							c0.765-3.039,1.297-6.087,2.061-9.126c0.194-0.116,0.106-0.348,0.29-0.474c-1.558-2.826-0.397-2.748-3.523-9
							c-5.255-10.529-11.013-20.633-15.543-33.998c-0.358-1.035-0.455-2.768-0.174-3.832c1.055-3.978,5.12-3.349,7.016-1.2
							c0.513,0.561,0.9,1.21,1.219,1.897c2.168,4.723,6.61,11.933,9.746,16.075l10.82,14.323c0,0,3.232-3.029,3.678-4.326l0.01-0.01
							c0.426-1.297,0-11.478,0-11.478s-0.648,1.955-2.381,1.955c-1.248,0-3.726,0.89-5.661-1.016
							c-1.578-1.548-1.742-4.036-0.552-5.894l4.045-6.3c0,0,2.816-2.816,6.929-1.306c4.113,1.519,8.226,4.984,8.226,4.984
							s3.687-0.435,6.929,0.861c3.252,1.307,6.842,5.439,6.842,5.439s3.687-0.019,5.42,1.065c0.436,0.271,6.62,8.623,5.052,15.552
							c-0.929,4.132-1.278,10.065-1.713,11.681l-0.106,39.979l7.5,26.508"/>
					</g>
					<g>
						<g>
							<g>
								<path fill="none" stroke="#253137" stroke-miterlimit="10" d="M282.426,235.649c1.597,5.896,2.428,12,2.468,18.108
									c0.007,1.022-0.006,2.067,0.322,3.036c0.327,0.968,1.072,1.865,2.074,2.067"/>
								<path fill="none" stroke="#253137" stroke-miterlimit="10" d="M295.218,241.591c2.686,5.664-0.063,18.31,0.14,19.201
									c0.203,0.891,0.711,1.757,1.524,2.173"/>
								<g>
									<path fill="none" stroke="#253137" stroke-miterlimit="10" d="M271.9,234.875c-0.316,1.8-0.58,3.887-0.896,5.687
										c-2.102-1.789-3.44-4.447-3.626-7.201"/>
									<path fill="none" stroke="#253137" stroke-miterlimit="10" d="M254.573,283.132c-0.651,0.287-1.301,0.573-1.952,0.859"/>
									<path fill="none" stroke="#253137" stroke-miterlimit="10" d="M255.073,284.699c-0.318,1.502-0.325,3.07-0.021,4.576"/>
									<path fill="none" stroke="#253137" stroke-miterlimit="10" d="M266.501,267.796c0.722,1.299,1.444,2.599,2.166,3.898"/>
									<path fill="none" stroke="#253137" stroke-miterlimit="10" d="M270.659,253.532c0.717-1.014,1.435-2.027,2.153-3.041"/>
									<path fill="none" stroke="#253137" stroke-miterlimit="10" d="M300.936,267.796c-0.217,0.794-0.433,1.588-0.65,2.382"/>
									<path fill="none" stroke="#253137" stroke-miterlimit="10" d="M295.671,261.278c0.635-2.026,1.269-4.052,1.904-6.078"/>
									<path fill="none" stroke="#253137" stroke-miterlimit="10" d="M302.036,250.5c1.117-0.648,2.74-0.143,3.292,1.024"/>
									<path fill="none" stroke="#253137" stroke-miterlimit="10" d="M289.037,240.118c1.494-0.435,3.201-0.045,4.358,0.997"/>
									<path fill="none" stroke="#253137" stroke-miterlimit="10" d="M248.754,246.149c1.389-1.544,3.549-2.358,5.612-2.114"/>
								</g>
							</g>
							<path fill="none" stroke="#253137" stroke-miterlimit="10" d="M240.594,229.089c1.293-0.946,2.976-1.34,4.555-1.066"/>
							<path fill="none" stroke="#253137" stroke-miterlimit="10" d="M242.272,269.562c-1.048,0.831-1.949,1.845-2.652,2.982"/>
						</g>
						<path fill="none" stroke="#253137" stroke-miterlimit="10" d="M243.142,265.455c1.43-1.022,3.708,1.264,5.023,0.097
							c0.524-0.465,0.563-1.27,0.442-1.959c-0.121-0.69-0.364-1.38-0.261-2.072"/>
					</g>
				</g>
			</g>
			<path fill="none" stroke="#253137" stroke-miterlimit="10" d="M283.47,259.183c1.737,3.567,2.097,7.782,0.993,11.592"/>
			<path fill="none" stroke="#253137" stroke-miterlimit="10" d="M293.975,264.761c0.286,1.695-0.041,3.486-0.907,4.971"/>
		</g>
	</g>
	<path opacity="0.2" fill="#010002" d="M206.53,278.337c0.081,0.624,0.054,1.266-0.081,1.881
		c-0.588,2.722-2.288,10.654-2.912,14.995c-0.742,5.3-9.307,21.706-9.307,21.706s-7.887,9.804-11.902,14.905
		c-1.972,2.505-5.092,12.644-7.742,22.303c-3.346-1.013-6.657-2.107-9.949-3.274c-2.722-0.968-5.445-1.99-8.131-3.048
		c-3.781-1.492-8.601-3.862-14.136-6.892c1.501-5.454,2.505-9.65,2.487-9.894c-0.045-0.57,3.22-6.856,3.22-6.856l-2.849-37.48
		l-1.682-5.707c-0.877-2.948-1.429-5.987-1.655-9.026c-0.353-4.64,0.036-9.316,1.167-13.865l4.911-7.29l2.297-0.172l7.109-9.931
		c0,0,3.844-1.158,4.83,1.737c0.986,2.903-3.202,8.303-3.202,8.303l-1.438,8.927l3.419,8.357l1.773,0.651
		c0,0,0.597-14.715,0.19-17.655l3.781-13.431c0,0,2.252-4.486,2.948-6.747c0.687-2.252,4.73-4.486,7.055-0.534
		c0,0,1.293,2.008,0.362,4.766c-0.95,2.759-1.737,4.929-1.737,4.929s-0.859,11.378-1.131,11.694
		c-0.271,0.298,1.673,16.94,1.673,16.94l1.483,0.66l0.525-15.873l3.084-14.914c0,0-0.253-7.172,4.803-6.304
		c0,0,2.37-0.271,3.717,2.315c1.348,2.578,0.063,19.744,0.063,19.744l1.248,17.745l1.999,13.684l2.352-9.379
		c0,0,0.136-13.44,8.619-14.588c0,0,2.523-0.452,3.039,1.302c0.516,1.746-1.257,5.336-1.004,8.773
		C206.015,274.213,206.358,276.935,206.53,278.337z"/>
	<g>
		<g>
			<defs>
				<path id="XMLID_1_" d="M203.952,261.723c-0.387-1.791-2.932-1.529-2.932-1.529c-8.546,0.503-9.697,13.897-9.697,13.897
					l-3.058,9.175l-0.958-13.801l0.097-17.788c0,0,2.584-17.023,1.432-19.694c-1.142-2.681-3.532-2.584-3.532-2.584
					c-4.974-1.248-5.265,5.923-5.265,5.923l-4.2,14.633l-1.723,15.785l-1.432-0.765c0,0-0.678-16.743-0.387-17.023
					c0.29-0.29,2.013-11.575,2.013-11.575s0.948-2.1,2.1-4.781c1.142-2.681,0-4.781,0-4.781c-2.013-4.113-6.213-2.197-7.074,0
					c-0.861,2.197-3.445,6.503-3.445,6.503l-4.79,13.104c0.184,2.961-1.519,17.594-1.519,17.594l-1.723-0.784l-2.777-8.594
					l2.11-8.797c0,0,4.587-5.062,3.823-8.033c-0.765-2.961-4.684-2.1-4.684-2.1l-7.839,9.368h-2.303l-5.449,6.891
					c-1.471,4.452-2.216,9.088-2.216,13.743c0,3.048,0.319,6.116,0.968,9.126l1.248,5.816v37.589c0,0-3.726,6.02-3.726,6.591
					c0,0.261-1.539,5.013-3.687,10.936c9.378,5.516,17.459,9.784,23.178,12.039c2.69,1.065,5.41,2.081,8.139,3.048
					c3.436-9.649,7.452-19.975,9.668-22.385c4.394-4.781,12.997-13.965,12.997-13.965s9.784-15.707,10.926-20.933
					c0.948-4.287,3.242-12.068,4.036-14.739c0.184-0.6,0.261-1.239,0.223-1.868c-0.068-1.413-0.203-4.152-0.203-6.571
					C202.288,266.949,204.33,263.504,203.952,261.723z"/>
			</defs>
			<use xlink:href="#XMLID_1_"  overflow="visible" fill="#FFFFFF"/>
			<clipPath id="XMLID_7_">
				<use xlink:href="#XMLID_1_"  overflow="visible"/>
			</clipPath>
			<path clip-path="url(#XMLID_7_)" fill="#8AB996" d="M145.259,257.94c1.46-1.821,4.464-2.521,6.162-0.92
				c0.974,0.919,1.302,2.314,1.549,3.63c0.247,1.316,0.492,2.709,1.364,3.725c0.872,1.016,2.614,1.414,3.532,0.439
				c0.122,1.981,0.243,3.961,0.365,5.942c2.113-3.668,3.202-7.919,3.115-12.152c-0.042-2.057-0.353-4.148,0.124-6.149
				s2.03-3.949,4.085-4.043c2.28-0.104,4.082,2.116,4.52,4.355c0.438,2.239-0.075,4.54-0.214,6.817
				c-0.212,3.473,0.468,6.997,1.958,10.142c0.479-0.97,0.958-1.94,1.436-2.909c0.431,1.946,0.863,3.892,1.294,5.838
				c0.374-4.283,0.748-8.566,1.122-12.848c0.106-1.21,0.222-2.456,0.785-3.532c0.564-1.076,1.696-1.949,2.904-1.828
				c1.629,0.162,2.566,1.9,3.112,3.444c4.075,11.524,2.396,24.185,0.669,36.285c1.133,0.202,2.085-0.936,2.367-2.052
				c0.283-1.116,0.182-2.32,0.605-3.39c0.423-1.07,1.734-1.952,2.707-1.339c1.425,0.897,0.429,3.676,1.927,4.444
				c0.464-3.579,1.893-7.028,4.094-9.888c1.003-1.302,2.509-2.594,4.1-2.181c1.188,0.308,1.962,1.521,2.137,2.736
				c0.175,1.214,1.927-3.8,1.625-2.611c0.685-6.976-0.686-7.712-0.001-14.689c0.124-1.26,2.161-3.443,1.294-4.366
				c-0.824-0.877-3.283-2.163-4.375-1.658c-1.092,0.505-4.647,2.273-5.353,3.248c-4.444,6.136-4.141,15.023-5.523,22.472
				c-1.179-11.36-2.353-22.907-0.271-34.136c1.148-6.194,3.266-12.646,1.266-18.62c-0.913-2.727-3.335-5.454-6.164-4.936
				c-2.282,0.418-3.662,2.719-4.589,4.846c-3.114,7.146-4.497,14.905-5.856,22.581c1.699-7.725,3.399-15.449,5.098-23.174
				c0.442-2.007,0.885-4.079,0.52-6.102c-0.365-2.023-1.747-4.007-3.758-4.43c-1.996-0.42-3.979,0.761-5.483,2.137
				c-5.376,4.918-7.377,12.422-9.13,19.494c0.615-1.847,1.238-3.762,1.048-5.7c-0.19-1.938-1.423-3.916-3.325-4.333
				c-2.462-0.541-4.7,1.659-5.781,3.935c-1.082,2.277-1.615,4.896-3.338,6.736c-1.258-1.415-3.619-1.332-5.197-0.287
				c-1.578,1.045-2.53,2.794-3.301,4.523c-2.829,6.347-4.043,13.406-3.498,20.333c1.247-2.781,4.4-4.576,7.427-4.228
				c-0.18-1.541-0.36-3.082-0.54-4.623"/>
			<g clip-path="url(#XMLID_7_)">
				<g>
					<path fill="#8AB996" d="M151.213,272.655c-0.076,1.142-0.153,2.283-0.229,3.425c0.349-0.951,1.745-1.305,2.506-0.636
						c-0.169-0.725,0.282-1.429,0.569-2.116c0.287-0.687,0.317-1.664-0.352-1.991c-0.795-0.389-1.582,0.525-2,1.305
						c-0.035-0.283-0.07-0.566-0.105-0.849L151.213,272.655z"/>
				</g>
				<g>
					<path fill="#8AB996" d="M164.187,270.61c-0.933,1.066-1.571,2.388-1.826,3.781c0.393-0.385,0.804-0.782,1.321-0.97
						c0.518-0.188,1.176-0.107,1.504,0.335c0.204,0.276,0.277,0.673,0.582,0.831c0.306,0.159,0.701-0.033,0.884-0.326
						c0.183-0.293,0.209-0.653,0.231-0.998c0.041-0.658,0.08-1.333-0.11-1.965c-0.191-0.632-0.662-1.221-1.307-1.361
						c-0.645-0.139-1.409,0.334-1.414,0.994L164.187,270.61z"/>
				</g>
				<g>
					<path fill="#8AB996" d="M176.746,273.727c-0.991,1.332-1.648,2.911-1.896,4.553c0.666-0.096,1.225-0.532,1.757-0.944
						c0.532-0.412,1.111-0.83,1.782-0.882c0.671-0.052,1.427,0.432,1.406,1.105c-0.128-0.759-0.007-1.534,0.074-2.299
						c0.081-0.765,0.117-1.564-0.169-2.278c-0.286-0.714-0.974-1.32-1.742-1.279c-0.768,0.041-1.428,0.939-1.069,1.619
						L176.746,273.727z"/>
				</g>
				<g>
					<path fill="#8AB996" d="M142.188,278.264c-0.695,1.302-1.061,2.779-1.053,4.256c0.009-0.68,0.649-1.23,1.322-1.326
						c0.673-0.097,1.349,0.165,1.932,0.514c0.135-0.684,0.269-1.391,0.126-2.073c-0.143-0.682-0.638-1.341-1.326-1.452
						c-0.688-0.111-1.45,0.554-1.261,1.225c-0.071-0.174-0.142-0.348-0.214-0.522L142.188,278.264z"/>
				</g>
			</g>
			<path id="XMLID_3_" opacity="0.5" clip-path="url(#XMLID_7_)" fill="#FFFFFF" d="M145.259,257.94
				c1.46-1.821,4.464-2.521,6.162-0.92c0.974,0.919,1.302,2.314,1.549,3.63c0.247,1.316,0.492,2.709,1.364,3.725
				c0.872,1.016,2.614,1.414,3.532,0.439c0.122,1.981,0.243,3.961,0.365,5.942c2.113-3.668,3.202-7.919,3.115-12.152
				c-0.042-2.057-0.353-4.148,0.124-6.149s2.03-3.949,4.085-4.043c2.28-0.104,4.082,2.116,4.52,4.355
				c0.438,2.239-0.075,4.54-0.214,6.817c-0.212,3.473,0.468,6.997,1.958,10.142c0.479-0.97,0.958-1.94,1.436-2.909
				c0.431,1.946,0.863,3.892,1.294,5.838c0.374-4.283,0.748-8.566,1.122-12.848c0.106-1.21,0.222-2.456,0.785-3.532
				c0.564-1.076,1.696-1.949,2.904-1.828c1.629,0.162,2.566,1.9,3.112,3.444c4.075,11.524,2.396,24.185,0.669,36.285
				c1.133,0.202,2.085-0.936,2.367-2.052c0.283-1.116,0.182-2.32,0.605-3.39c0.423-1.07,1.734-1.952,2.707-1.339
				c1.425,0.897,0.429,3.676,1.927,4.444c0.464-3.579,1.893-7.028,4.094-9.888c1.003-1.302,2.509-2.594,4.1-2.181
				c1.188,0.308,1.962,1.521,2.137,2.736c0.175,1.214,1.927-3.8,1.625-2.611c0.685-6.976-0.686-7.712-0.001-14.689
				c0.124-1.26,2.161-3.443,1.294-4.366c-0.824-0.877-3.283-2.163-4.375-1.658c-1.092,0.505-4.647,2.273-5.353,3.248
				c-4.444,6.136-4.141,15.023-5.523,22.472c-1.179-11.36-2.353-22.907-0.271-34.136c1.148-6.194,3.266-12.646,1.266-18.62
				c-0.913-2.727-3.335-5.454-6.164-4.936c-2.282,0.418-3.662,2.719-4.589,4.846c-3.114,7.146-4.497,14.905-5.856,22.581
				c1.699-7.725,3.399-15.449,5.098-23.174c0.442-2.007,0.885-4.079,0.52-6.102c-0.365-2.023-1.747-4.007-3.758-4.43
				c-1.996-0.42-3.979,0.761-5.483,2.137c-5.376,4.918-7.377,12.422-9.13,19.494c0.615-1.847,1.238-3.762,1.048-5.7
				c-0.19-1.938-1.423-3.916-3.325-4.333c-2.462-0.541-4.7,1.659-5.781,3.935c-1.082,2.277-1.615,4.896-3.338,6.736
				c-1.258-1.415-3.619-1.332-5.197-0.287c-1.578,1.045-2.53,2.794-3.301,4.523c-2.829,6.347-4.043,13.406-3.498,20.333
				c1.247-2.781,4.4-4.576,7.427-4.228c-0.18-1.541-0.36-3.082-0.54-4.623"/>
			<g opacity="0.5" clip-path="url(#XMLID_7_)">
				<g>
					<path fill="#FFFFFF" d="M151.213,272.655c-0.076,1.142-0.153,2.283-0.229,3.425c0.349-0.951,1.745-1.305,2.506-0.636
						c-0.169-0.725,0.282-1.429,0.569-2.116c0.287-0.687,0.317-1.664-0.352-1.991c-0.795-0.389-1.582,0.525-2,1.305
						c-0.035-0.283-0.07-0.566-0.105-0.849L151.213,272.655z"/>
				</g>
				<g>
					<path fill="#FFFFFF" d="M164.187,270.61c-0.933,1.066-1.571,2.388-1.826,3.781c0.393-0.385,0.804-0.782,1.321-0.97
						c0.518-0.188,1.176-0.107,1.504,0.335c0.204,0.276,0.277,0.673,0.582,0.831c0.306,0.159,0.701-0.033,0.884-0.326
						c0.183-0.293,0.209-0.653,0.231-0.998c0.041-0.658,0.08-1.333-0.11-1.965c-0.191-0.632-0.662-1.221-1.307-1.361
						c-0.645-0.139-1.409,0.334-1.414,0.994L164.187,270.61z"/>
				</g>
				<g>
					<path fill="#FFFFFF" d="M176.746,273.727c-0.991,1.332-1.648,2.911-1.896,4.553c0.666-0.096,1.225-0.532,1.757-0.944
						c0.532-0.412,1.111-0.83,1.782-0.882c0.671-0.052,1.427,0.432,1.406,1.105c-0.128-0.759-0.007-1.534,0.074-2.299
						c0.081-0.765,0.117-1.564-0.169-2.278c-0.286-0.714-0.974-1.32-1.742-1.279c-0.768,0.041-1.428,0.939-1.069,1.619
						L176.746,273.727z"/>
				</g>
				<g>
					<path fill="#FFFFFF" d="M142.188,278.264c-0.695,1.302-1.061,2.779-1.053,4.256c0.009-0.68,0.649-1.23,1.322-1.326
						c0.673-0.097,1.349,0.165,1.932,0.514c0.135-0.684,0.269-1.391,0.126-2.073c-0.143-0.682-0.638-1.341-1.326-1.452
						c-0.688-0.111-1.45,0.554-1.261,1.225c-0.071-0.174-0.142-0.348-0.214-0.522L142.188,278.264z"/>
				</g>
			</g>
		</g>
		<g>
			<path fill="none" stroke="#253137" stroke-miterlimit="10" d="M133.324,335.769c2.148-5.923,3.687-10.675,3.687-10.936
				c0-0.571,3.726-6.591,3.726-6.591v-37.589l-1.248-5.816c-0.648-3.01-0.968-6.078-0.968-9.126c0-4.655,0.745-9.291,2.216-13.743
				l5.449-6.891h2.303l7.839-9.368c0,0,3.92-0.861,4.684,2.1c0.765,2.971-3.823,8.033-3.823,8.033l-2.11,8.797l2.777,8.594
				l1.723,0.784c0,0,1.703-14.633,1.519-17.594l4.79-13.104c0,0,2.584-4.307,3.445-6.503c0.861-2.197,5.061-4.113,7.074,0
				c0,0,1.142,2.1,0,4.781c-1.152,2.681-2.1,4.781-2.1,4.781s-1.723,11.284-2.013,11.575c-0.29,0.281,0.387,17.023,0.387,17.023
				l1.432,0.765l1.723-15.785l4.2-14.633c0,0,0.29-7.171,5.265-5.923c0,0,2.39-0.097,3.532,2.584
				c1.152,2.671-1.432,19.694-1.432,19.694l-0.097,17.788l0.958,13.801l3.058-9.175c0,0,1.152-13.394,9.697-13.897
				c0,0,2.545-0.261,2.932,1.529c0.377,1.781-1.665,5.226-1.665,8.671c0,2.419,0.135,5.158,0.203,6.571
				c0.039,0.629-0.039,1.268-0.223,1.868c-0.794,2.671-3.087,10.452-4.036,14.739c-1.142,5.226-10.926,20.933-10.926,20.933
				s-8.604,9.184-12.997,13.965c-2.216,2.41-6.233,12.736-9.668,22.385"/>
		</g>
		<path fill="#FFFFFF" stroke="#253137" stroke-miterlimit="10" d="M159.422,265.433c0.5,1.782-0.006,3.812-1.285,5.151"/>
		<path fill="#FFFFFF" stroke="#253137" stroke-miterlimit="10" d="M144.837,278.078c1.245-1.924,2.453-4.567,2.119-6.834
			c-0.654-4.439-2.676-9.55-1.766-13.943c0.582-2.807,1.163-5.614,1.745-8.421"/>
		<path fill="none" stroke="#253137" stroke-miterlimit="10" d="M180.897,236.13c1.471-0.386,3.042-0.382,4.511,0.013
			c0.017-0.42,0.034-0.839,0.051-1.259"/>
		<path fill="none" stroke="#253137" stroke-miterlimit="10" d="M169.021,230.479c0.866,0.622,2.088,0.705,3.03,0.207
			c0.943-0.498,1.562-1.555,1.536-2.621"/>
		<path fill="none" stroke="#253137" stroke-miterlimit="10" d="M201.71,261.876c-2.51,0.573-4.389,3.165-4.151,5.729
			c0.739,0.22,1.478,0.441,2.218,0.661"/>
		<path fill="#FFFFFF" stroke="#253137" stroke-miterlimit="10" d="M172.602,262.981c0.101,1.517-0.085,5.145,0.016,6.661"/>
		<path fill="#FFFFFF" stroke="#253137" stroke-miterlimit="10" d="M174.269,265.083c-0.183,2.486-0.366,4.971-0.549,7.457
			c0.015-0.316,0.03-0.632,0.044-0.949"/>
		<path fill="#FFFFFF" stroke="#253137" stroke-miterlimit="10" d="M188.067,286.044c0.663,2.72,0.359,5.666-0.845,8.193"/>
		<path fill="none" stroke="#253137" stroke-miterlimit="10" d="M165.141,273.011c-1.971,2.162-1.682,7.348-0.29,10.201"/>
		<path fill="none" stroke="#253137" stroke-miterlimit="10" d="M179.713,276.579c0.049,2.334-0.803,4.675-2.413,6.633"/>
		<path fill="none" stroke="#253137" stroke-miterlimit="10" d="M150.78,274.045c-0.327,2.171,0.162,4.456,1.349,6.303"/>
		<path fill="none" stroke="#253137" stroke-miterlimit="10" d="M142.39,280.797c-0.096,1.705,0.404,3.438,1.393,4.83"/>
		<path fill="none" stroke="#253137" stroke-miterlimit="10" d="M153.889,239.1c1.024-0.495,2.347-0.283,3.165,0.507
			c0.373-0.492,0.745-0.983,1.118-1.475"/>
		<path fill="none" stroke="#253137" stroke-miterlimit="10" d="M163.17,245.739c1.495-0.951,3.684-0.579,4.782,0.812"/>
		<path fill="none" stroke="#253137" stroke-miterlimit="10" d="M177.664,250.263c1.614-0.731,3.558-0.69,5.14,0.108"/>
		<path fill="none" stroke="#253137" stroke-miterlimit="10" d="M145.413,257.85c0.936-1.617,2.886-2.585,4.74-2.352"/>
		<path fill="none" stroke="#253137" stroke-miterlimit="10" d="M139.348,266.502c0.024-1.169,0.985-2.249,2.144-2.408"/>
	</g>
</g>
<g>
	
		<circle fill="none" stroke="#253137" stroke-linecap="round" stroke-linejoin="round" stroke-miterlimit="10" cx="372.39" cy="164.019" r="37.486"/>
	<g>
		<g>
			<g>
				<path opacity="0.2" fill="#010002" d="M414.83,165c-7.993,13.11-10.835,11.339-38.099,24.399
					c-13.84,6.63-27.216-14.685-18.167-36.562c0.442-1.068,4.352-6.466,4.352-6.466c1.646-7.235,7.651-13.295,14.878-14.995
					c7.217-1.709,15.303,1.013,20.015,6.747c5.119-4.531,12.544-6.213,19.156-4.576c0.317,0.923,0.615,1.827,0.904,2.713
					c0.109,0.344,0.226,0.678,0.326,1.022c0.344,1.058,0.669,2.116,0.968,3.184c0.597,2.026,1.149,4.061,1.664,6.114
					c-3.012-0.841-6.042-0.859-8.9,0.534c-1.999,0.977-3.672,2.587-5.752,3.383c-2.08,0.787-4.956,0.344-5.752-1.737
					c1.004,4.178,5.388,2.929,9.601,3.756C416.543,153.796,418.194,159.483,414.83,165z"/>
			</g>
			<g>
				<path fill="#FFFFFF" stroke="#253137" stroke-linecap="round" stroke-linejoin="round" stroke-miterlimit="10" d="
					M402.516,158.539c0,0,6.711-0.91,9.899-0.433c2.023,0.303,3.265,1.48,3.859,2.215c0.275,0.34,0.433,0.759,0.463,1.196
					l0.36,5.244c0.041,0.599-0.162,1.193-0.578,1.626c-1.308,1.362-5.263,3.849-16.961,4.744
					C383.106,174.389,402.516,158.539,402.516,158.539z"/>
				<g>
					<path fill="#FFFFFF" stroke="#253137" stroke-linecap="round" stroke-linejoin="round" stroke-miterlimit="10" d="
						M397.614,144.982c1.889,2.347,5.493,7.676,5.493,15.945c0,6.25-7.238,27.595-25.77,30.193
						c-19.616,2.75-35.386-14.039-32.018-34.241C347.648,142.906,381.866,125.41,397.614,144.982z"/>
					<ellipse fill="#FFFFFF" cx="373.645" cy="159.517" rx="28.463" ry="26.94"/>
					<ellipse fill="#253137" cx="373.587" cy="160.927" rx="23.366" ry="22.116"/>
					<path fill="none" stroke="#253137" stroke-linecap="round" stroke-linejoin="round" stroke-miterlimit="10" d="
						M402.108,159.517c0-14.878-12.743-26.94-28.462-26.94c-15.719,0-28.463,12.061-28.463,26.94"/>
					<path fill="none" stroke="#253137" stroke-linecap="round" stroke-linejoin="round" stroke-miterlimit="10" d="
						M394.598,177.751c4.663-4.798,7.51-11.201,7.51-18.234"/>
					<path fill="none" stroke="#253137" stroke-linecap="round" stroke-linejoin="round" stroke-miterlimit="10" d="
						M353.707,178.743c5.135,4.771,12.173,7.714,19.938,7.714c4.768,0,9.263-1.11,13.211-3.071"/>
					<path fill="none" stroke="#253137" stroke-linecap="round" stroke-linejoin="round" stroke-miterlimit="10" d="M349.601,173.94
						c0.373,0.556,0.767,1.098,1.181,1.625"/>
					<path fill="none" stroke="#253137" stroke-linecap="round" stroke-linejoin="round" stroke-miterlimit="10" d="
						M345.183,159.517c0,4.111,0.973,8.007,2.713,11.493"/>
				</g>
				<path fill="#FFFFFF" stroke="#253137" stroke-linecap="round" stroke-linejoin="round" stroke-miterlimit="10" d="
					M415.415,166.889c0,0-5.075-3.547-13.307-0.331"/>
				<path fill="#FFFFFF" stroke="#253137" stroke-linecap="round" stroke-linejoin="round" stroke-miterlimit="10" d="
					M411.046,169.356c-1.941,0.575-5.197,1.241-10.526,1.653"/>
				<path fill="#FFFFFF" stroke="#253137" stroke-linecap="round" stroke-linejoin="round" stroke-miterlimit="10" d="
					M413.684,168.235c0,0-0.307,0.27-1.269,0.653"/>
			</g>
		</g>
		<g>
			<g>
				<path fill="#FFFFFF" d="M418.194,137.282c-0.099-0.344-0.217-0.678-0.326-1.022c-1.727-5.354-3.952-11.233-6.657-17.437
					c-0.497-1.149-1.022-2.315-1.547-3.491c-0.208,0.018-0.407,0.036-0.606,0.054c-2.596,0.262-5.327,0.588-7.462,2.062
					c-2.143,1.501-3.41,4.585-2.026,6.801c1.357,2.198,4.911,3.419,4.35,5.924c-5.797,3.265-12.87,2.885-19.319,4.531
					c-3.88,0.986-7.552,2.731-10.772,5.083c-0.009,0-0.009,0.009-0.018,0.009c-1.022,0.769-2.008,1.583-2.93,2.46
					c-0.407,0.389-0.832,0.814-1.194,1.284c-0.009,0.009-0.009,0.009-0.009,0.018c-0.534,0.678-0.941,1.438-1.022,2.297
					c-0.226,2.415,1.972,4.061,4.314,5.11c0.434,0.199,0.407,0.823-0.036,0.977c-1.528,0.615-3.021,1.33-4.224,2.442
					c-0.009,0-0.018,0.009-0.027,0.018c-0.742,0.669-0.136,1.926,0.877,1.791c0.109-0.018,0.244-0.027,0.362-0.036
					c0.995-0.072,1.926,0.045,2.731,0.326c1.384,0.488,2.352,1.429,2.451,2.587c0.145,1.836-1.945,3.491-4.658,3.699
					c-0.66,0.063-0.154,0.85,0.814,1.013c1.926,0.344,3.889-0.027,5.788-0.47c2.27-0.543,4.694-1.33,5.978-3.274
					c0.543-0.823,0.705-1.899,0.543-2.876c-0.226-1.339-1.067-2.505-2.406-2.641c4.197-0.497,8.357-1.33,12.409-2.487h0.009
					l1.275-0.389c1.212-0.362,2.487-0.805,3.5-1.528c0.633-0.452,1.158-0.986,1.528-1.682c0.941-1.818-0.389-4.694-2.397-4.314
					c5.834-2.288,12.002-3.627,17.899-5.734C416.331,138.042,417.272,137.68,418.194,137.282z"/>
			</g>
		</g>
	</g>
</g>
<g>
	<path opacity="0.2" fill="#010002" d="M373.479,59.049c-5.463,4.857-11.703,8.981-17.998,12.698
		c-32.93,19.481-70.13,31.149-107.971,36.837c-37.832,5.689-76.37,5.517-114.501,2.379c-7.489-0.615-15.104-1.375-21.987-4.396
		c-5.834-2.569-11.125-7.036-13.603-12.816c8.257-9.406,15.936-18.921,24.483-27.902c2.035-2.144,4.115-4.251,6.259-6.322
		c1.809-1.727,3.645-3.428,5.553-5.092c2.18-1.917,4.423-3.79,6.774-5.598c3.211-2.496,6.593-4.893,10.211-7.181
		c0.886-0.57,1.764-1.121,2.65-1.664c90.181-56.048,156.557-37.751,200.838,0c3.337,2.831,6.557,5.788,9.641,8.845
		c1.881,1.818,3.699,3.699,5.463,5.598c0.199,0.199,0.38,0.407,0.57,0.624C371.1,56.38,372.303,57.71,373.479,59.049z"/>
	<path fill="#FFFFFF" stroke="#253137" stroke-linecap="round" stroke-linejoin="round" stroke-miterlimit="10" d="M377.039,50.055
		L73.633,51.439l4.589-6.877c2.207-3.307,5.919-5.292,9.895-5.292h274.545c3.601,0,7.008,1.631,9.266,4.436L377.039,50.055z"/>
	<g>
		<g>
			<path fill="#635E5E" stroke="#253137" stroke-linecap="round" stroke-linejoin="round" stroke-miterlimit="10" d="
				M230.624,173.938H214c-17.059,0-30.888-13.829-30.888-30.888v-16.624c0-17.059,13.829-30.888,30.888-30.888h16.624
				c17.059,0,30.888,13.829,30.888,30.888v16.624C261.512,160.109,247.683,173.938,230.624,173.938z"/>
			<path fill="#857E7E" stroke="#253137" stroke-linecap="round" stroke-linejoin="round" stroke-miterlimit="10" d="
				M197.362,141.358v11.146c0,3.497,2.835,6.332,6.332,6.332h38.227c3.48,0,6.299-2.808,6.332-6.288
				c0.048-5.014,0.316-11.19,0.316-11.19H197.362z"/>
			<g>
				<g>
					<path fill="#AFA9AB" stroke="#253137" stroke-linecap="round" stroke-linejoin="round" stroke-miterlimit="10" d="
						M337.281,145.083H113.7c-2.361,0-4.48-1.449-5.337-3.648L73.877,52.928c-0.902-2.315,0.806-4.814,3.291-4.814h296.646
						c2.485,0,4.193,2.498,3.291,4.814l-34.487,88.506C341.76,143.634,339.641,145.083,337.281,145.083z"/>
					<polygon fill="#253137" points="338.94,137.368 111.503,137.368 80.207,53.721 370.088,53.721 					"/>
				</g>
			</g>
		</g>
		<rect x="197.606" y="144.962" fill="#253137" width="50.704" height="3.471"/>
		<g>
			<g>
				<path fill="#8AB996" d="M305.716,133.776H145.111c-0.882,0-1.724-0.401-1.88-0.897L120.387,60.3
					c-0.256-0.814,0.456-1.477,1.593-1.477h206.867c1.136,0,1.849,0.663,1.593,1.477l-22.844,72.579
					C307.44,133.375,306.598,133.776,305.716,133.776z"/>
				<polygon fill="#253137" points="305.124,132.131 145.703,132.131 126.29,68.359 324.537,68.359 				"/>
				<g>
					<path fill="#FFFFFF" d="M168.585,84.191h-30.181c-0.745,0-1.235,0.402-1.094,0.896c0.141,0.493,0.855,0.891,1.596,0.891h30.006
						c0.741,0,1.27-0.398,1.182-0.891C170.007,84.593,169.33,84.191,168.585,84.191z"/>
					<path fill="#FFFFFF" d="M169.596,89.701h-25.668c-0.732,0-1.22,0.388-1.09,0.865c0.129,0.475,0.824,0.86,1.552,0.86h25.522
						c0.728,0,1.249-0.385,1.164-0.86C170.991,90.089,170.328,89.701,169.596,89.701z"/>
					<path opacity="0.5" fill="#FFFFFF" d="M170.572,95.019h-29.126c-0.719,0-1.195,0.374-1.064,0.835
						c0.131,0.459,0.817,0.83,1.532,0.83h28.963c0.715,0,1.228-0.371,1.146-0.83C171.941,95.394,171.291,95.019,170.572,95.019z"/>
					<path fill="#FFFFFF" d="M171.513,100.154h-17.107c-0.707,0-1.191,0.362-1.081,0.806c0.109,0.444,0.767,0.802,1.47,0.802h17.014
						c0.703,0,1.209-0.359,1.129-0.802C172.858,100.516,172.22,100.154,171.513,100.154z"/>
					<path fill="#FFFFFF" d="M172.424,105.115h-28.142c-0.695,0-1.158,0.35-1.036,0.78c0.122,0.429,0.781,0.775,1.473,0.775h27.991
						c0.691,0,1.189-0.347,1.113-0.775C173.744,105.465,173.118,105.115,172.424,105.115z"/>
					<path fill="#FFFFFF" d="M173.303,109.912h-22.726c-0.683,0-1.147,0.338-1.035,0.754c0.111,0.415,0.752,0.75,1.432,0.75h22.605
						c0.68,0,1.171-0.335,1.096-0.75C174.601,110.25,173.987,109.912,173.303,109.912z"/>
					<path fill="#FFFFFF" d="M174.155,114.552H151.8c-0.672,0-1.129,0.327-1.022,0.73c0.107,0.401,0.736,0.726,1.405,0.726h22.238
						c0.669,0,1.153-0.325,1.081-0.726C175.43,114.879,174.827,114.552,174.155,114.552z"/>
					<path fill="#FFFFFF" d="M174.978,119.043h-24.39c-0.661,0-1.11,0.317-1.002,0.706c0.107,0.389,0.728,0.703,1.386,0.703h24.265
						c0.658,0,1.135-0.314,1.066-0.703C176.233,119.359,175.64,119.043,174.978,119.043z"/>
					<path opacity="0.5" fill="#FFFFFF" d="M175.776,123.391h-15.754c-0.651,0-1.103,0.307-1.01,0.684
						c0.093,0.376,0.692,0.681,1.34,0.681h15.675c0.648,0,1.118-0.304,1.051-0.681C177.01,123.698,176.427,123.391,175.776,123.391z
						"/>
					<path opacity="0.5" fill="#FFFFFF" d="M167.537,78.478h-22.492c-0.759,0-1.266,0.417-1.133,0.93
						c0.132,0.511,0.851,0.924,1.606,0.924h22.36c0.754,0,1.292-0.413,1.201-0.924C168.986,78.895,168.296,78.478,167.537,78.478z"
						/>
					<path fill="#FFFFFF" d="M166.45,72.55h-31.315c-0.773,0-1.277,0.433-1.125,0.965c0.151,0.53,0.897,0.959,1.665,0.959h31.127
						c0.768,0,1.315-0.429,1.22-0.959C167.927,72.983,167.223,72.55,166.45,72.55z"/>
					<path fill="#FFFFFF" d="M176.549,127.604h-25.951c-0.641,0-1.075,0.297-0.971,0.663c0.104,0.365,0.705,0.66,1.343,0.66h25.822
						c0.638,0,1.102-0.295,1.036-0.66C177.763,127.902,177.19,127.604,176.549,127.604z"/>
					<polygon opacity="0.5" fill="#FFFFFF" points="179.186,86.201 185.041,86.201 184.748,83.966 178.851,83.966 					"/>
					<polygon opacity="0.5" fill="#FFFFFF" points="180.003,91.64 185.754,91.64 185.471,89.484 179.679,89.484 					"/>
					<polygon opacity="0.5" fill="#FFFFFF" points="180.792,96.891 186.443,96.891 186.17,94.81 180.479,94.81 					"/>
					<polygon opacity="0.5" fill="#FFFFFF" points="181.554,101.962 187.108,101.962 186.844,99.951 181.251,99.951 					"/>
					<polygon opacity="0.5" fill="#FFFFFF" points="182.29,106.863 187.751,106.863 187.496,104.92 181.998,104.92 					"/>
					<polygon opacity="0.5" fill="#FFFFFF" points="183.001,111.603 188.373,111.603 188.126,109.723 182.719,109.723 					"/>
					<polygon opacity="0.5" fill="#FFFFFF" points="183.69,116.188 188.974,116.188 188.736,114.369 183.417,114.369 					"/>
					<polygon opacity="0.5" fill="#FFFFFF" points="184.357,120.627 189.556,120.627 189.326,118.865 184.092,118.865 					"/>
					<polygon opacity="0.5" fill="#FFFFFF" points="185.003,124.926 190.12,124.926 189.897,123.22 184.746,123.22 					"/>
					<polygon opacity="0.5" fill="#FFFFFF" points="178.339,80.562 184.301,80.562 183.997,78.245 177.991,78.245 					"/>
					<polygon opacity="0.5" fill="#FFFFFF" points="177.461,74.713 183.534,74.713 183.218,72.308 177.099,72.308 					"/>
					<polygon opacity="0.5" fill="#FFFFFF" points="185.628,129.092 190.667,129.092 190.45,127.438 185.38,127.438 					"/>
					<path fill="#FFFFFF" d="M216.475,119.749c-0.013-0.39,0.513-0.706,1.174-0.706h86.661c0.661,0,1.105,0.317,0.992,0.706
						c-0.113,0.388-0.738,0.703-1.396,0.703h-86.217C217.031,120.452,216.488,120.137,216.475,119.749z"/>
					<path fill="#FFFFFF" d="M305.182,116.007h-47.984c-0.669,0-1.175-0.324-1.131-0.726c0.044-0.402,0.625-0.73,1.297-0.73h48.235
						c0.672,0,1.122,0.327,1.005,0.73C306.487,115.683,305.85,116.007,305.182,116.007z"/>
					<path opacity="0.5" fill="#FFFFFF" d="M245.809,116.007h-14.927c-0.669,0-1.206-0.324-1.2-0.726
						c0.006-0.402,0.556-0.73,1.228-0.73h15.006c0.672,0,1.192,0.327,1.16,0.73C247.045,115.683,246.478,116.007,245.809,116.007z"
						/>
					<path fill="#FFFFFF" d="M276.962,111.415h-67.688c-0.68,0-1.251-0.335-1.277-0.75c-0.026-0.416,0.508-0.754,1.191-0.754h68.049
						c0.683,0,1.174,0.338,1.096,0.754C278.255,111.08,277.641,111.415,276.962,111.415z"/>
					<path opacity="0.5" fill="#FFFFFF" d="M195.12,109.911h4.825c0.683,0,1.266,0.338,1.302,0.754
						c0.035,0.415-0.487,0.75-1.167,0.75h-4.799c-0.68,0-1.268-0.335-1.314-0.75C193.921,110.25,194.437,109.911,195.12,109.911z"/>
					<path fill="#FFFFFF" d="M286.752,105.894c-0.091,0.429-0.725,0.775-1.417,0.775H221.55c-0.691,0-1.258-0.347-1.265-0.775
						c-0.008-0.43,0.549-0.78,1.244-0.78h64.131C286.355,105.115,286.844,105.464,286.752,105.894z"/>
					<path fill="#FFFFFF" d="M194.609,105.115h18.102c0.695,0,1.272,0.35,1.289,0.78c0.017,0.429-0.53,0.775-1.221,0.775h-18.005
						c-0.691,0-1.29-0.347-1.337-0.775C193.389,105.464,193.914,105.115,194.609,105.115z"/>
					<path fill="#FFFFFF" d="M194.08,100.153h69.579c0.707,0,1.231,0.362,1.171,0.807c-0.06,0.444-0.678,0.802-1.381,0.802h-69.198
						c-0.703,0-1.313-0.359-1.362-0.802C192.84,100.515,193.373,100.153,194.08,100.153z"/>
					<path fill="#FFFFFF" d="M239.254,96.684c-0.715,0-1.279-0.371-1.26-0.83c0.019-0.461,0.618-0.835,1.337-0.835h36.715
						c0.719,0,1.237,0.374,1.157,0.835c-0.08,0.459-0.724,0.83-1.439,0.83H239.254z"/>
					<path fill="#FFFFFF" d="M193.532,95.019h31.777c0.719,0,1.301,0.374,1.299,0.835c-0.002,0.459-0.583,0.83-1.298,0.83h-31.6
						c-0.715,0-1.336-0.371-1.387-0.83C192.272,95.393,192.813,95.019,193.532,95.019z"/>
					<path fill="#FFFFFF" d="M312.236,91.426h-87.459c-0.728,0-1.32-0.384-1.323-0.86c-0.003-0.477,0.588-0.865,1.32-0.865h87.958
						c0.732,0,1.212,0.388,1.073,0.865C313.665,91.042,312.963,91.426,312.236,91.426z"/>
					<path fill="#FFFFFF" d="M313.799,85.979h-76.96c-0.741,0-1.328-0.398-1.312-0.891c0.016-0.494,0.633-0.896,1.379-0.896h77.407
						c0.745,0,1.232,0.402,1.088,0.896C315.256,85.581,314.539,85.979,313.799,85.979z"/>
					<path opacity="0.5" fill="#FFFFFF" d="M315.419,80.332h-16.115c-0.755,0-1.271-0.413-1.152-0.924
						c0.119-0.513,0.83-0.93,1.589-0.93h16.211c0.759,0,1.253,0.417,1.103,0.93C316.906,79.919,316.174,80.332,315.419,80.332z"/>
					<path fill="#FFFFFF" d="M288.029,80.332h-59.177c-0.754,0-1.363-0.413-1.36-0.924c0.003-0.513,0.621-0.93,1.38-0.93h59.527
						c0.759,0,1.289,0.417,1.185,0.93C289.479,79.919,288.783,80.332,288.029,80.332z"/>
					<path fill="#FFFFFF" d="M196.558,123.391h54.647c0.651,0,1.148,0.307,1.11,0.684c-0.038,0.376-0.593,0.681-1.241,0.681h-54.372
						c-0.648,0-1.206-0.304-1.248-0.681C195.413,123.698,195.907,123.391,196.558,123.391z"/>
					<path fill="#FFFFFF" d="M197.007,127.604h83.962c0.641,0,1.097,0.297,1.019,0.663c-0.078,0.365-0.657,0.66-1.295,0.66h-83.546
						c-0.638,0-1.187-0.295-1.228-0.66C195.88,127.902,196.366,127.604,197.007,127.604z"/>
					<path fill="#FFFFFF" d="M285.092,74.474h-42.744c-0.769,0-1.371-0.429-1.345-0.959c0.026-0.532,0.674-0.965,1.447-0.965h43.002
						c0.773,0,1.317,0.433,1.216,0.965C286.566,74.045,285.861,74.474,285.092,74.474z"/>
					<path opacity="0.5" fill="#FFFFFF" d="M230.223,74.474h-38.882c-0.769,0-1.439-0.429-1.498-0.959
						c-0.059-0.532,0.52-0.965,1.293-0.965h39.116c0.773,0,1.392,0.433,1.381,0.965C231.623,74.045,230.992,74.474,230.223,74.474z"
						/>
					<path opacity="0.5" fill="#FFFFFF" d="M263.331,123.391c0.651,0,1.134,0.307,1.08,0.684c-0.054,0.376-0.623,0.681-1.271,0.681
						h-4.224c-0.648,0-1.136-0.304-1.091-0.681c0.045-0.377,0.61-0.684,1.261-0.684H263.331z"/>
					<path opacity="0.5" fill="#FFFFFF" d="M211.493,119.749c0.02,0.388-0.498,0.703-1.156,0.703h-5.754
						c-0.658,0-1.217-0.314-1.248-0.703c-0.031-0.39,0.479-0.706,1.141-0.706h5.784
						C210.921,119.043,211.473,119.359,211.493,119.749z"/>
					<path opacity="0.5" fill="#FFFFFF" d="M280.913,100.96c-0.084,0.444-0.722,0.802-1.425,0.802h-6.727
						c-0.703,0-1.216-0.359-1.146-0.802c0.07-0.445,0.7-0.807,1.407-0.807h6.764C280.493,100.153,280.997,100.515,280.913,100.96z"
						/>
					<path opacity="0.5" fill="#FFFFFF" d="M301.903,105.115c0.695,0,1.164,0.35,1.048,0.78c-0.115,0.429-0.769,0.775-1.46,0.775
						h-5.362c-0.691,0-1.168-0.347-1.064-0.775c0.104-0.43,0.752-0.78,1.447-0.78H301.903z"/>
					<path opacity="0.5" fill="#FFFFFF" d="M214.182,91.426c-0.728,0-1.334-0.384-1.353-0.86c-0.02-0.477,0.558-0.865,1.289-0.865
						h5.709c0.732,0,1.331,0.388,1.337,0.865c0.007,0.476-0.578,0.86-1.306,0.86H214.182z"/>
				</g>
			</g>
			<g>
				<path fill="#FFFFFF" d="M136.457,63.578c0.442,1.482-0.412,2.669-1.904,2.669c-1.491,0-3.083-1.187-3.561-2.669
					c-0.484-1.501,0.357-2.732,1.884-2.732C134.403,60.846,136.009,62.077,136.457,63.578z"/>
				<path fill="#FFFFFF" d="M143.818,63.622c0.395,1.481-0.498,2.668-1.989,2.668s-3.044-1.187-3.474-2.668
					c-0.436-1.5,0.445-2.731,1.971-2.731C141.852,60.891,143.418,62.122,143.818,63.622z"/>
				<path fill="#FFFFFF" d="M151.264,63.578c0.346,1.482-0.585,2.669-2.077,2.669s-3.006-1.187-3.388-2.669
					c-0.387-1.501,0.534-2.732,2.061-2.732C149.387,60.846,150.913,62.077,151.264,63.578z"/>
			</g>
		</g>
		<g>
			<polygon opacity="0.1" fill="#FFFFFF" points="80.207,53.721 104.58,118.865 133.983,53.721 			"/>
			<polygon opacity="0.1" fill="#FFFFFF" points="121.33,137.368 170.105,53.721 221.165,53.721 149.38,137.368 			"/>
			<polygon opacity="0.1" fill="#FFFFFF" points="243.168,53.31 167.145,137.368 178.851,137.368 257.603,53.721 			"/>
			<polygon opacity="0.1" fill="#FFFFFF" points="258.179,137.368 341.733,53.721 353.524,53.721 267.378,137.368 			"/>
		</g>
	</g>
</g>
<g>
	<g>
		<g>
			<g>
				<path fill="#FFFFFF" stroke="#253137" stroke-linecap="round" stroke-linejoin="round" stroke-miterlimit="10" d="
					M144.895,173.673h-19.08c-2.477,0-4.485,2.008-4.485,4.485v9.283c0,2.477,2.008,4.485,4.485,4.485h4.987l3.779,8.565
					l5.327-8.565h4.987c2.477,0,4.485-2.008,4.485-4.485v-9.283C149.38,175.681,147.372,173.673,144.895,173.673z"/>
			</g>
		</g>
		<g>
			<path fill="#253137" d="M132.703,178.983c0-0.488,0.395-0.871,0.93-0.871c0.535,0,0.93,0.36,0.93,0.836
				c0,0.511-0.383,0.907-0.93,0.907C133.098,179.855,132.703,179.471,132.703,178.983z M132.901,180.877h1.453v6.205h-1.453V180.877
				z"/>
			<path fill="#253137" d="M137.861,180.552v0.372h1.708v1.162h-1.662v4.996h-1.453v-4.996h-1.023v-1.162h1.023v-0.395
				c0-1.301,0.779-2.15,2.22-2.15c0.5,0,0.987,0.105,1.313,0.337l-0.407,1.092c-0.221-0.151-0.5-0.255-0.802-0.255
				C138.174,179.553,137.861,179.889,137.861,180.552z"/>
		</g>
	</g>
	<g>
		<g>
			<g>
				<path fill="#FFFFFF" stroke="#253137" stroke-linecap="round" stroke-linejoin="round" stroke-miterlimit="10" d="
					M202.974,174.973h-19.08c-2.477,0-4.485,2.008-4.485,4.485v9.283c0,2.477,2.008,4.485,4.485,4.485h4.987l3.779,8.565
					l5.327-8.565h4.987c2.477,0,4.485-2.008,4.485-4.485v-9.283C207.459,176.981,205.451,174.973,202.974,174.973z"/>
			</g>
		</g>
		<g>
			<path fill="#253137" d="M187.904,185.745h-4.869c0.174,0.906,0.93,1.487,2.01,1.487c0.697,0,1.243-0.221,1.685-0.675l0.779,0.896
				c-0.558,0.662-1.429,1.01-2.498,1.01c-2.08,0-3.428-1.336-3.428-3.184c0-1.847,1.359-3.172,3.207-3.172
				c1.813,0,3.137,1.267,3.137,3.207C187.927,185.43,187.916,185.605,187.904,185.745z M183.024,184.78h3.52
				c-0.116-0.895-0.802-1.511-1.755-1.511C183.849,183.269,183.163,183.874,183.024,184.78z"/>
			<path fill="#253137" d="M189.318,179.76h1.453v8.622h-1.453V179.76z"/>
			<path fill="#253137" d="M191.965,187.767l0.558-1.104c0.546,0.36,1.383,0.616,2.161,0.616c0.918,0,1.301-0.255,1.301-0.685
				c0-1.185-3.835-0.07-3.835-2.545c0-1.173,1.057-1.94,2.73-1.94c0.825,0,1.766,0.198,2.324,0.535l-0.558,1.104
				c-0.592-0.348-1.185-0.465-1.777-0.465c-0.883,0-1.301,0.291-1.301,0.697c0,1.255,3.835,0.139,3.835,2.568
				c0,1.162-1.069,1.917-2.812,1.917C193.557,188.464,192.523,188.161,191.965,187.767z"/>
			<path fill="#253137" d="M204.465,185.745h-4.869c0.174,0.906,0.93,1.487,2.01,1.487c0.697,0,1.243-0.221,1.685-0.675l0.779,0.896
				c-0.558,0.662-1.429,1.01-2.498,1.01c-2.08,0-3.428-1.336-3.428-3.184c0-1.847,1.359-3.172,3.207-3.172
				c1.813,0,3.137,1.267,3.137,3.207C204.488,185.43,204.476,185.605,204.465,185.745z M199.585,184.78h3.521
				c-0.116-0.895-0.801-1.511-1.755-1.511C200.409,183.269,199.724,183.874,199.585,184.78z"/>
		</g>
	</g>
	<g>
		<g>
			<g>
				<path fill="#FFFFFF" stroke="#253137" stroke-linecap="round" stroke-linejoin="round" stroke-miterlimit="10" d="
					M259.284,174.422h-19.08c-2.477,0-4.485,2.008-4.485,4.485v9.283c0,2.477,2.008,4.485,4.485,4.485h4.987l3.779,8.565
					l5.327-8.565h4.987c2.477,0,4.485-2.008,4.485-4.485v-9.283C263.769,176.43,261.761,174.422,259.284,174.422z"/>
			</g>
		</g>
		<g>
			<path fill="#253137" d="M244.58,181.301v0.372h1.708v1.162h-1.661v4.996h-1.453v-4.996h-1.022v-1.162h1.022v-0.395
				c0-1.301,0.779-2.15,2.22-2.15c0.5,0,0.988,0.105,1.313,0.337l-0.407,1.092c-0.22-0.151-0.499-0.255-0.801-0.255
				C244.894,180.302,244.58,180.639,244.58,181.301z"/>
			<path fill="#253137" d="M246.658,184.729c0-1.859,1.395-3.172,3.3-3.172c1.929,0,3.312,1.313,3.312,3.172
				c0,1.859-1.383,3.184-3.312,3.184C248.052,187.913,246.658,186.588,246.658,184.729z M251.805,184.729
				c0-1.185-0.79-1.94-1.848-1.94c-1.046,0-1.835,0.756-1.835,1.94c0,1.185,0.79,1.94,1.835,1.94
				C251.016,186.67,251.805,185.915,251.805,184.729z"/>
			<path fill="#253137" d="M258.249,181.557v1.383c-0.128-0.023-0.232-0.034-0.337-0.034c-1.104,0-1.802,0.651-1.802,1.917v3.009
				h-1.452v-6.205h1.382v0.907C256.46,181.883,257.215,181.557,258.249,181.557z"/>
		</g>
	</g>
	<g>
		<g>
			<g>
				<path fill="#FFFFFF" stroke="#253137" stroke-linecap="round" stroke-linejoin="round" stroke-miterlimit="10" d="
					M314.78,173.673h-19.08c-2.477,0-4.485,2.008-4.485,4.485v9.283c0,2.477,2.008,4.485,4.485,4.485h4.987l3.779,8.565l5.327-8.565
					h4.987c2.477,0,4.485-2.008,4.485-4.485v-9.283C319.265,175.681,317.257,173.673,314.78,173.673z"/>
			</g>
		</g>
		<g>
			<path fill="#253137" d="M302.761,180.571h5.357v1.162h-5.357V180.571z M302.761,183.384h5.357v1.162h-5.357V183.384z"/>
		</g>
	</g>
	<g>
		<g>
			<g>
				<path fill="#FFFFFF" stroke="#253137" stroke-linecap="round" stroke-linejoin="round" stroke-miterlimit="10" d="
					M173.978,162.93h-19.08c-2.477,0-4.485,2.008-4.485,4.485v9.283c0,2.477,2.008,4.485,4.485,4.485h4.987l3.779,8.565l5.327-8.565
					h4.987c2.477,0,4.485-2.008,4.485-4.485v-9.283C178.463,164.938,176.455,162.93,173.978,162.93z"/>
			</g>
		</g>
		<g>
			<path fill="#253137" d="M159.949,166.788h2.777v1.162h-1.325v8.552h1.325v1.162h-2.777V166.788z"/>
			<path fill="#253137" d="M166.325,177.665v-1.162h1.313v-8.552h-1.313v-1.162h2.766v10.877H166.325z"/>
		</g>
	</g>
	<g>
		<g>
			<g>
				<path fill="#FFFFFF" stroke="#253137" stroke-linecap="round" stroke-linejoin="round" stroke-miterlimit="10" d="
					M230.705,161.981h-19.08c-2.477,0-4.485,2.008-4.485,4.485v9.283c0,2.477,2.008,4.485,4.485,4.485h4.987l3.779,8.565
					l5.327-8.565h4.987c2.477,0,4.485-2.008,4.485-4.485v-9.283C235.19,163.989,233.182,161.981,230.705,161.981z"/>
			</g>
		</g>
		<g>
			<path fill="#253137" d="M217.281,171.239c0.465,0.151,0.685,0.465,0.685,1.185v2.208c0,0.558,0.279,0.883,0.86,0.883h0.244v1.162
				h-0.581c-1.312,0-1.975-0.662-1.975-1.894v-2.394c0-0.383-0.198-0.558-0.523-0.558h-0.384v-1.185h0.384
				c0.325,0,0.523-0.174,0.523-0.558v-2.394c0-1.232,0.662-1.894,1.975-1.894h0.581v1.162h-0.244c-0.581,0-0.86,0.325-0.86,0.883
				v2.208C217.967,170.774,217.746,171.088,217.281,171.239z"/>
			<path fill="#253137" d="M226.143,170.646v1.185h-0.395c-0.314,0-0.511,0.174-0.511,0.558v2.394c0,1.232-0.674,1.894-1.987,1.894
				h-0.58v-1.162h0.244c0.593,0,0.872-0.325,0.872-0.883v-2.208c0-0.72,0.208-1.034,0.674-1.185
				c-0.465-0.151-0.674-0.465-0.674-1.185v-2.208c0-0.558-0.279-0.883-0.872-0.883h-0.244v-1.162h0.58
				c1.313,0,1.987,0.662,1.987,1.894v2.394c0,0.384,0.198,0.558,0.511,0.558H226.143z"/>
		</g>
	</g>
	<g>
		<g>
			<g>
				<path fill="#FFFFFF" stroke="#253137" stroke-linecap="round" stroke-linejoin="round" stroke-miterlimit="10" d="M286.83,160.1
					h-19.08c-2.477,0-4.485,2.008-4.485,4.485v9.283c0,2.477,2.008,4.485,4.485,4.485h4.987l3.779,8.565l5.327-8.565h4.987
					c2.477,0,4.485-2.008,4.485-4.485v-9.283C291.315,162.108,289.307,160.1,286.83,160.1z"/>
			</g>
		</g>
		<g>
			<path fill="#253137" d="M276.531,166.971c0-0.581,0.43-0.964,0.953-0.964c0.523,0,0.953,0.384,0.953,0.964
				c0,0.558-0.43,0.964-0.953,0.964C276.962,167.935,276.531,167.528,276.531,166.971z M278.438,171.398
				c0,0.256-0.058,0.465-0.268,0.999l-0.593,1.638h-0.941l0.465-1.778c-0.325-0.139-0.546-0.441-0.546-0.86
				c0-0.581,0.406-0.964,0.941-0.964C278.043,170.433,278.438,170.828,278.438,171.398z"/>
		</g>
	</g>
	<g>
		<g>
			<g>
				<path fill="#FFFFFF" stroke="#253137" stroke-linecap="round" stroke-linejoin="round" stroke-miterlimit="10" d="
					M212.234,322.391h19.08c2.477,0,4.485-2.008,4.485-4.485v-9.283c0-2.477-2.008-4.485-4.485-4.485h-4.987l-1.456-8.565
					l-7.65,8.565h-4.987c-2.477,0-4.485,2.008-4.485,4.485v9.283C207.749,320.383,209.757,322.391,212.234,322.391z"/>
			</g>
		</g>
		<g>
			<path fill="#253137" d="M218.941,311.357l-4.009,1.499l4.009,1.499v1.209l-5.357-2.08v-1.255l5.357-2.08V311.357z"/>
			<path fill="#253137" d="M223.167,307.138h1.301l-3.834,10.947h-1.302L223.167,307.138z"/>
			<path fill="#253137" d="M230.102,312.228v1.255l-5.357,2.08v-1.209l4.009-1.499l-4.009-1.499v-1.208L230.102,312.228z"/>
		</g>
	</g>
	<g>
		<g>
			<g>
				<g>
					<path fill="#FFFFFF" stroke="#253137" stroke-linecap="round" stroke-linejoin="round" stroke-miterlimit="10" d="
						M90.932,254.79h19.08c2.477,0,4.485-2.008,4.485-4.485v-9.283c0-2.477-2.008-4.485-4.485-4.485h-4.987l1.086-8.565
						l-10.193,8.565h-4.987c-2.477,0-4.485,2.008-4.485,4.485v9.283C86.447,252.781,88.455,254.79,90.932,254.79z"/>
				</g>
			</g>
		</g>
		<g>
			<path fill="#253137" d="M96.588,248.902c0-0.5,0.395-0.895,0.942-0.895c0.534,0,0.918,0.395,0.918,0.895
				c0,0.5-0.383,0.906-0.918,0.906C96.983,249.809,96.588,249.402,96.588,248.902z M96.67,241.594h1.72l-0.291,5.438h-1.15
				L96.67,241.594z"/>
			<path fill="#253137" d="M99.886,243.674h5.357v1.161h-5.357V243.674z M99.886,246.485h5.357v1.162h-5.357V246.485z"/>
		</g>
	</g>
</g>
<g>
	<g>
		<g>
			<g>
				<defs>
					<path id="XMLID_4_" d="M396.445,244.264c0,3.726-0.31,7.336-0.881,10.733c-2.623,15.649-10.849,27.069-20.585,27.069
						c-0.871,0-1.742-0.097-2.584-0.271c-10.626-2.255-18.872-18.194-18.872-37.531c0-20.875,9.61-28.259,21.456-28.259
						C386.835,216.005,396.445,223.389,396.445,244.264z"/>
				</defs>
				<use xlink:href="#XMLID_4_"  overflow="visible" fill="#FFFFFF"/>
				<clipPath id="XMLID_8_">
					<use xlink:href="#XMLID_4_"  overflow="visible"/>
				</clipPath>
				<g clip-path="url(#XMLID_8_)">
					<path fill="#8AB996" d="M388.666,244.503c0.799,11.194-1.127,22.448-4.352,33.197c8.085-6.634,11.804-17.071,15.165-26.975
						c2.441-7.192,4.913-14.606,4.473-22.189c-0.44-7.582-4.503-15.469-11.618-18.126c-3.476-1.298-7.523-1.203-10.965,0.178
						c-5.962,2.391-2.698,4.334-0.195,8.615C385.655,226.868,388.036,235.68,388.666,244.503z"/>
					<path opacity="0.5" fill="#FFFFFF" d="M388.666,244.503c0.799,11.194-1.127,22.448-4.352,33.197
						c8.085-6.634,11.804-17.071,15.165-26.975c2.441-7.192,4.913-14.606,4.473-22.189c-0.44-7.582-4.503-15.469-11.618-18.126
						c-3.476-1.298-7.523-1.203-10.965,0.178c-5.962,2.391-2.698,4.334-0.195,8.615C385.655,226.868,388.036,235.68,388.666,244.503
						z"/>
				</g>
				<use xlink:href="#XMLID_4_"  overflow="visible" fill="none" stroke="#253137" stroke-miterlimit="10"/>
			</g>
			<g>
				<path fill="#FFFFFF" stroke="#253137" stroke-miterlimit="10" d="M386.509,263.471c-1.434,4.817-3.811,9.349-7.039,13.204"/>
				<path fill="none" stroke="#253137" stroke-miterlimit="10" d="M387.192,260.841c-0.114,0.511-0.237,1.019-0.372,1.525"/>
				<path fill="#FFFFFF" stroke="#253137" stroke-miterlimit="10" d="M387.137,244.215c1.144,4.815,1.257,9.849,0.427,14.726"/>
			</g>
			<path fill="none" stroke="#253137" stroke-miterlimit="10" d="M353.522,244.266c0,0,24.391-9.644,42.918,0"/>
			<path fill="#FFFFFF" stroke="#253137" stroke-miterlimit="10" d="M374.981,216.005c0,0,2.443,9.046,2.725,23.754"/>
			<path fill="#AFA9AB" stroke="#253137" stroke-linecap="round" stroke-linejoin="round" stroke-miterlimit="10" d="
				M378.386,227.008c0.313,2.811-0.174,5.207-1.087,5.352c-0.914,0.145-1.909-2.017-2.222-4.829
				c-0.313-2.811,0.173-5.207,1.087-5.352C377.077,222.035,378.072,224.197,378.386,227.008z"/>
		</g>
	</g>
	<path fill="none" stroke="#253137" stroke-miterlimit="10" d="M365.357,289.299h-28.598c-3.563,0-6.494-2.641-6.955-6.069
		c-0.063-0.308-0.081-0.633-0.081-0.968v-67.462c0-0.326,0.018-0.651,0.081-0.977c0.461-3.428,3.392-6.06,6.955-6.06h81.146
		c1.23,0,2.379,0.317,3.374,0.868"/>
</g>
</svg>
