<?xml version="1.0" encoding="utf-8"?>
<!-- Generator: Adobe Illustrator 17.0.0, SVG Export Plug-In . SVG Version: 6.00 Build 0)  -->
<!DOCTYPE svg PUBLIC "-//W3C//DTD SVG 1.1//EN" "http://www.w3.org/Graphics/SVG/1.1/DTD/svg11.dtd">
<svg xmlns="http://www.w3.org/2000/svg" xmlns:xlink="http://www.w3.org/1999/xlink" version="1.1" id="Camada_1" x="0px" y="0px" width="331px" height="268px" viewBox="0 0 331 268" enable-background="new 0 0 331 268" xml:space="preserve">
<g>
	<g>
		<path fill="#8AB996" d="M317.696,131.103c0,6.334-0.692,12.642-2.195,18.771c-0.494,2.017-1.088,4.027-1.766,6.005    c-0.198,0.567-0.395,1.134-0.606,1.694c-0.171,0.461-0.349,0.923-0.527,1.378c-0.053,0.125-0.099,0.25-0.152,0.376    c-0.191,0.475-0.382,0.949-0.587,1.417c-0.033,0.072-0.066,0.152-0.099,0.231c-0.198,0.461-0.402,0.923-0.606,1.378    c-0.092,0.204-0.185,0.402-0.277,0.6c-0.185,0.409-0.376,0.811-0.573,1.213c-0.204,0.428-0.415,0.85-0.626,1.272    c-0.079,0.152-0.152,0.303-0.231,0.448c-0.185,0.363-0.376,0.725-0.56,1.088c-0.152,0.283-0.303,0.56-0.455,0.837    c-0.699,1.292-1.43,2.564-2.195,3.823c-0.31,0.514-0.626,1.028-0.949,1.536c-0.073,0.125-0.152,0.25-0.231,0.376    c-0.369,0.58-0.745,1.16-1.127,1.74c-0.31,0.468-0.62,0.936-0.943,1.404c-0.277,0.409-0.554,0.811-0.837,1.219    c-0.059,0.086-0.119,0.171-0.185,0.257c-0.29,0.422-0.593,0.844-0.89,1.266c-0.369,0.521-0.745,1.028-1.12,1.542    c-0.079,0.105-0.152,0.211-0.231,0.31c-0.428,0.587-0.87,1.167-1.305,1.74c-0.264,0.343-0.527,0.692-0.798,1.028    c-0.475,0.626-0.962,1.246-1.457,1.865c-0.468,0.593-0.943,1.18-1.424,1.766c-0.053,0.066-0.105,0.125-0.158,0.191    c-0.475,0.587-0.949,1.167-1.437,1.747c-0.138,0.178-0.29,0.356-0.435,0.527c-0.442,0.534-0.89,1.068-1.338,1.595    c-1.292,1.529-2.597,3.045-3.909,4.548c-2.669,3.071-5.398,6.123-8.18,9.155c-2.313,2.505-4.66,4.996-7.052,7.441    c-11.482,11.792-23.913,22.792-37.431,31.558c-1.681,1.088-3.375,2.149-5.088,3.157c-0.626,0.369-1.252,0.738-1.878,1.101    c-0.105,0.059-0.218,0.125-0.323,0.185c-0.646,0.369-1.292,0.732-1.944,1.088c-0.666,0.369-1.331,0.732-2.004,1.081    c-0.303,0.158-0.606,0.316-0.91,0.475c-1.312,0.685-2.636,1.345-3.974,1.977c-0.718,0.343-1.437,0.672-2.162,0.995    c-0.666,0.303-1.338,0.6-2.01,0.89c-0.277,0.119-0.547,0.237-0.824,0.349c-0.613,0.264-1.233,0.514-1.852,0.765    c-1.193,0.481-2.399,0.943-3.612,1.378c-0.461,0.171-0.929,0.336-1.397,0.501c-0.264,0.092-0.527,0.178-0.791,0.27    c-0.435,0.145-0.87,0.29-1.305,0.428c-0.376,0.125-0.758,0.244-1.134,0.363c-0.013,0.007-0.026,0.007-0.04,0.013    c-0.745,0.231-1.49,0.455-2.234,0.672c-1.18,0.343-2.36,0.659-3.546,0.962c-0.784,0.198-1.569,0.382-2.36,0.56    c-0.745,0.171-1.49,0.33-2.241,0.488c-0.059,0.013-0.119,0.026-0.178,0.033c-0.778,0.158-1.562,0.31-2.346,0.448    c-0.402,0.073-0.798,0.138-1.2,0.204c-0.402,0.066-0.804,0.132-1.213,0.191c-0.363,0.059-0.732,0.112-1.094,0.158    c-0.442,0.066-0.89,0.125-1.331,0.185c-4.686,0.6-9.386,0.85-14.085,0.798c-0.283,0-0.56-0.007-0.844-0.013    c-4.258-0.079-8.516-0.409-12.754-0.956c-0.31-0.04-0.62-0.079-0.929-0.125c-0.534-0.073-1.068-0.145-1.602-0.224    c-0.415-0.066-0.83-0.132-1.246-0.198c-1.76-0.277-3.506-0.593-5.253-0.949c-0.389-0.072-0.771-0.152-1.153-0.237    c-1.173-0.244-2.353-0.508-3.52-0.784c-0.784-0.185-1.562-0.376-2.34-0.573c-0.389-0.099-0.778-0.198-1.167-0.303    c-0.389-0.099-0.778-0.204-1.167-0.31c-1.549-0.415-3.091-0.863-4.627-1.331c-1.786-0.54-3.559-1.114-5.326-1.72    c-0.639-0.217-1.285-0.442-1.925-0.666c-1.984-0.705-3.968-1.45-5.925-2.221c-0.349-0.138-0.705-0.283-1.074-0.435    c-0.283-0.119-0.567-0.244-0.863-0.376c-0.191-0.086-0.382-0.171-0.58-0.264c-1.279-0.58-2.669-1.259-4.166-2.023    c-0.25-0.132-0.508-0.264-0.765-0.395c-0.916-0.481-1.872-0.989-2.854-1.529c-2.063-1.134-4.271-2.386-6.591-3.75    c-26.371-15.516-66.742-44.635-76.22-55.675c-0.481-0.56-0.949-1.127-1.417-1.701c-0.363-0.448-0.725-0.903-1.074-1.364    c-0.323-0.415-0.639-0.83-0.949-1.259c-0.277-0.369-0.547-0.745-0.811-1.127c-0.25-0.349-0.501-0.705-0.745-1.061    c-0.013-0.026-0.033-0.053-0.053-0.079c-0.297-0.442-0.593-0.883-0.883-1.331c-0.277-0.428-0.554-0.857-0.817-1.292    c-0.132-0.204-0.257-0.415-0.382-0.626c-0.297-0.488-0.587-0.975-0.87-1.463c0-0.007,0-0.007-0.007-0.013    c-0.303-0.54-0.606-1.081-0.903-1.628c-0.514-0.956-1.008-1.918-1.47-2.894c-0.119-0.25-0.237-0.508-0.356-0.758    c-0.936-2.004-1.76-4.047-2.465-6.123c-0.257-0.725-0.488-1.457-0.712-2.188c-0.283-0.943-0.54-1.892-0.778-2.841    c-0.046-0.191-0.092-0.376-0.132-0.567c-0.119-0.494-0.231-0.995-0.33-1.496c-0.152-0.699-0.277-1.397-0.395-2.103    c-0.026-0.171-0.059-0.343-0.079-0.514c-0.059-0.363-0.112-0.725-0.158-1.094c-0.059-0.435-0.112-0.877-0.158-1.312    c-0.02-0.152-0.033-0.297-0.046-0.442c-0.04-0.376-0.066-0.751-0.099-1.12c0-0.033,0-0.066-0.007-0.092    c-0.033-0.448-0.059-0.89-0.073-1.331c-0.007-0.046-0.007-0.086-0.007-0.125c-0.02-0.468-0.033-0.936-0.04-1.404    c-0.003-0.175,0.002-0.348,0.001-0.523c-0.001-0.274-0.002-0.548,0.002-0.822c0.009-0.688,0.029-1.376,0.069-2.063    c0.026-0.448,0.059-0.896,0.099-1.338c0.079-0.883,0.185-1.766,0.316-2.643c0.066-0.448,0.138-0.896,0.224-1.338    c0.158-0.89,0.349-1.78,0.573-2.669c0.593-2.34,1.351-4.594,2.274-6.756c0.699-1.668,1.49-3.269,2.366-4.838    c0.066-0.132,0.145-0.27,0.224-0.402c3.553-6.255,8.384-11.805,13.828-16.946c0.58-0.554,1.167-1.094,1.766-1.628    c0.626-0.573,1.259-1.134,1.898-1.701c0.04-0.033,0.079-0.073,0.119-0.105c1.022-0.896,2.056-1.78,3.104-2.656    c1.615-1.351,3.256-2.676,4.91-3.994c0.053-0.046,0.112-0.086,0.165-0.132c1.417-1.12,2.847-2.234,4.271-3.342    c2.241-1.733,4.489-3.46,6.69-5.181c0.587-0.455,1.167-0.91,1.74-1.364c0.639-0.501,1.265-1.002,1.892-1.503    c5.906-4.732,10.994-9.768,15.726-14.922c0.916-1.002,1.826-2.01,2.729-3.025c0.428-0.488,0.857-0.969,1.279-1.457    c6.018-6.855,11.614-13.789,17.842-20.334c1.483-1.562,2.999-3.098,4.561-4.607c1.318-1.259,2.656-2.498,4.047-3.711    c1.588-1.397,3.223-2.762,4.937-4.08c2.34-1.819,4.805-3.566,7.441-5.233c0.646-0.415,1.285-0.817,1.931-1.213    c65.72-40.845,114.092-27.511,146.362,0c2.432,2.063,4.779,4.218,7.026,6.446c1.371,1.325,2.696,2.696,3.981,4.08    c0.145,0.145,0.277,0.297,0.415,0.455c0.903,0.962,1.78,1.931,2.636,2.907c0.257,0.29,0.508,0.58,0.758,0.87    c0.376,0.435,0.751,0.87,1.12,1.312c0.455,0.534,0.903,1.074,1.351,1.615c0.283,0.343,0.56,0.685,0.837,1.028    c1.799,2.215,3.513,4.462,5.148,6.723c0.33,0.448,0.653,0.903,0.975,1.358c2.254,3.164,4.35,6.36,6.295,9.537    c0.277,0.455,0.554,0.91,0.824,1.358c0.277,0.455,0.547,0.91,0.811,1.364c0.264,0.448,0.527,0.903,0.784,1.351    c0.264,0.455,0.521,0.903,0.771,1.351s0.501,0.903,0.751,1.351c0.257,0.448,0.501,0.896,0.732,1.338    c0.244,0.448,0.481,0.896,0.718,1.338c0.237,0.442,0.468,0.89,0.699,1.331c0.224,0.442,0.455,0.883,0.679,1.318    c0.224,0.442,0.442,0.883,0.659,1.318c0.863,1.74,1.681,3.46,2.458,5.154c0.382,0.857,0.765,1.707,1.127,2.544    c1.641,3.77,3.045,7.375,4.192,10.73c0.007,0.013,0.013,0.033,0.013,0.046c0.112,0.323,0.217,0.639,0.323,0.956    c0.112,0.33,0.217,0.653,0.323,0.975c0.079,0.25,0.165,0.494,0.237,0.745c0.119,0.369,0.237,0.738,0.349,1.114    c0.125,0.402,0.244,0.804,0.356,1.206c0.217,0.738,0.428,1.476,0.626,2.221c0.171,0.626,0.336,1.252,0.494,1.885    c0.033,0.119,0.066,0.231,0.092,0.349c0.026,0.099,0.046,0.198,0.072,0.297c0.092,0.369,0.185,0.738,0.27,1.114    c0.237,0.982,0.455,1.971,0.659,2.959c0.112,0.54,0.224,1.074,0.323,1.615c0.02,0.099,0.04,0.198,0.059,0.303    c0.099,0.508,0.191,1.015,0.277,1.523c0.119,0.679,0.231,1.364,0.33,2.043c0.086,0.514,0.158,1.035,0.231,1.556    c0.007,0.073,0.02,0.152,0.033,0.231c0.046,0.343,0.092,0.692,0.132,1.041c0.04,0.29,0.072,0.58,0.105,0.863    c0.119,1.048,0.224,2.089,0.31,3.137c0.02,0.237,0.04,0.475,0.059,0.712c0.026,0.395,0.053,0.798,0.079,1.193    c0.026,0.442,0.053,0.883,0.073,1.331c0.02,0.343,0.033,0.679,0.046,1.022c0.02,0.501,0.033,1.008,0.04,1.509    C317.689,129.93,317.696,130.516,317.696,131.103z"/>
		<g opacity="0.7">
			<path fill="#FFFFFF" d="M317.696,131.103c0,6.334-0.692,12.642-2.195,18.771c-0.494,2.017-1.088,4.027-1.766,6.005     c-0.198,0.567-0.395,1.134-0.606,1.694c-0.171,0.461-0.349,0.923-0.527,1.378c-0.053,0.125-0.099,0.25-0.152,0.376     c-0.191,0.475-0.382,0.949-0.587,1.417c-0.033,0.072-0.066,0.152-0.099,0.231c-0.198,0.461-0.402,0.923-0.606,1.378     c-0.092,0.204-0.185,0.402-0.277,0.6c-0.185,0.409-0.376,0.811-0.573,1.213c-0.204,0.428-0.415,0.85-0.626,1.272     c-0.079,0.152-0.152,0.303-0.231,0.448c-0.185,0.363-0.376,0.725-0.56,1.088c-0.152,0.283-0.303,0.56-0.455,0.837     c-0.699,1.292-1.43,2.564-2.195,3.823c-0.31,0.514-0.626,1.028-0.949,1.536c-0.073,0.125-0.152,0.25-0.231,0.376     c-0.369,0.58-0.745,1.16-1.127,1.74c-0.31,0.468-0.62,0.936-0.943,1.404c-0.277,0.409-0.554,0.811-0.837,1.219     c-0.059,0.086-0.119,0.171-0.185,0.257c-0.29,0.422-0.593,0.844-0.89,1.266c-0.369,0.521-0.745,1.028-1.12,1.542     c-0.079,0.105-0.152,0.211-0.231,0.31c-0.428,0.587-0.87,1.167-1.305,1.74c-0.264,0.343-0.527,0.692-0.798,1.028     c-0.475,0.626-0.962,1.246-1.457,1.865c-0.468,0.593-0.943,1.18-1.424,1.766c-0.053,0.066-0.105,0.125-0.158,0.191     c-0.475,0.587-0.949,1.167-1.437,1.747c-0.138,0.178-0.29,0.356-0.435,0.527c-0.442,0.534-0.89,1.068-1.338,1.595     c-1.292,1.529-2.597,3.045-3.909,4.548c-2.669,3.071-5.398,6.123-8.18,9.155c-2.313,2.505-4.66,4.996-7.052,7.441     c-11.482,11.792-23.913,22.792-37.431,31.558c-1.681,1.088-3.375,2.149-5.088,3.157c-0.626,0.369-1.252,0.738-1.878,1.101     c-0.105,0.059-0.218,0.125-0.323,0.185c-0.646,0.369-1.292,0.732-1.944,1.088c-0.666,0.369-1.331,0.732-2.004,1.081     c-0.303,0.158-0.606,0.316-0.91,0.475c-1.312,0.685-2.636,1.345-3.974,1.977c-0.718,0.343-1.437,0.672-2.162,0.995     c-0.666,0.303-1.338,0.6-2.01,0.89c-0.277,0.119-0.547,0.237-0.824,0.349c-0.613,0.264-1.233,0.514-1.852,0.765     c-1.193,0.481-2.399,0.943-3.612,1.378c-0.461,0.171-0.929,0.336-1.397,0.501c-0.264,0.092-0.527,0.178-0.791,0.27     c-0.435,0.145-0.87,0.29-1.305,0.428c-0.376,0.125-0.758,0.244-1.134,0.363c-0.013,0.007-0.026,0.007-0.04,0.013     c-0.745,0.231-1.49,0.455-2.234,0.672c-1.18,0.343-2.36,0.659-3.546,0.962c-0.784,0.198-1.569,0.382-2.36,0.56     c-0.745,0.171-1.49,0.33-2.241,0.488c-0.059,0.013-0.119,0.026-0.178,0.033c-0.778,0.158-1.562,0.31-2.346,0.448     c-0.402,0.073-0.798,0.138-1.2,0.204c-0.402,0.066-0.804,0.132-1.213,0.191c-0.363,0.059-0.732,0.112-1.094,0.158     c-0.442,0.066-0.89,0.125-1.331,0.185c-4.686,0.6-9.386,0.85-14.085,0.798c-0.283,0-0.56-0.007-0.844-0.013     c-4.258-0.079-8.516-0.409-12.754-0.956c-0.31-0.04-0.62-0.079-0.929-0.125c-0.534-0.073-1.068-0.145-1.602-0.224     c-0.415-0.066-0.83-0.132-1.246-0.198c-1.76-0.277-3.506-0.593-5.253-0.949c-0.389-0.072-0.771-0.152-1.153-0.237     c-1.173-0.244-2.353-0.508-3.52-0.784c-0.784-0.185-1.562-0.376-2.34-0.573c-0.389-0.099-0.778-0.198-1.167-0.303     c-0.389-0.099-0.778-0.204-1.167-0.31c-1.549-0.415-3.091-0.863-4.627-1.331c-1.786-0.54-3.559-1.114-5.326-1.72     c-0.639-0.217-1.285-0.442-1.925-0.666c-1.984-0.705-3.968-1.45-5.925-2.221c-0.349-0.138-0.705-0.283-1.074-0.435     c-0.283-0.119-0.567-0.244-0.863-0.376c-0.191-0.086-0.382-0.171-0.58-0.264c-1.279-0.58-2.669-1.259-4.166-2.023     c-0.25-0.132-0.508-0.264-0.765-0.395c-0.916-0.481-1.872-0.989-2.854-1.529c-2.063-1.134-4.271-2.386-6.591-3.75     c-26.371-15.516-66.742-44.635-76.22-55.675c-0.481-0.56-0.949-1.127-1.417-1.701c-0.363-0.448-0.725-0.903-1.074-1.364     c-0.323-0.415-0.639-0.83-0.949-1.259c-0.277-0.369-0.547-0.745-0.811-1.127c-0.25-0.349-0.501-0.705-0.745-1.061     c-0.013-0.026-0.033-0.053-0.053-0.079c-0.297-0.442-0.593-0.883-0.883-1.331c-0.277-0.428-0.554-0.857-0.817-1.292     c-0.132-0.204-0.257-0.415-0.382-0.626c-0.297-0.488-0.587-0.975-0.87-1.463c0-0.007,0-0.007-0.007-0.013     c-0.303-0.54-0.606-1.081-0.903-1.628c-0.514-0.956-1.008-1.918-1.47-2.894c-0.119-0.25-0.237-0.508-0.356-0.758     c-0.936-2.004-1.76-4.047-2.465-6.123c-0.257-0.725-0.488-1.457-0.712-2.188c-0.283-0.943-0.54-1.892-0.778-2.841     c-0.046-0.191-0.092-0.376-0.132-0.567c-0.119-0.494-0.231-0.995-0.33-1.496c-0.152-0.699-0.283-1.397-0.395-2.103     c-0.026-0.171-0.059-0.343-0.079-0.514c-0.059-0.363-0.112-0.725-0.158-1.094c-0.059-0.435-0.112-0.877-0.158-1.312     c-0.02-0.152-0.033-0.297-0.046-0.442c-0.04-0.376-0.066-0.751-0.099-1.12c0-0.033,0-0.066-0.007-0.092     c-0.033-0.448-0.059-0.89-0.073-1.331c-0.007-0.046-0.007-0.086-0.007-0.125c-0.02-0.468-0.033-0.936-0.04-1.404     c-0.02-1.14,0.007-2.274,0.073-3.408c0.026-0.448,0.059-0.896,0.099-1.338c0.079-0.883,0.185-1.766,0.316-2.643     c0.066-0.448,0.138-0.896,0.224-1.338c0.158-0.89,0.349-1.78,0.573-2.669c0.593-2.34,1.351-4.594,2.274-6.756     c0.699-1.668,1.49-3.269,2.366-4.838c0.066-0.132,0.145-0.27,0.224-0.402c3.553-6.255,8.384-11.805,13.828-16.946     c0.31-0.297,0.62-0.587,0.936-0.877c0.277-0.25,0.554-0.501,0.83-0.751c0.626-0.573,1.259-1.134,1.898-1.701     c0.04-0.033,0.079-0.073,0.119-0.105c1.022-0.896,2.056-1.78,3.104-2.656c1.615-1.351,3.256-2.676,4.91-3.994     c0.053-0.046,0.112-0.086,0.165-0.132c1.417-1.12,2.847-2.234,4.271-3.342c0.718-0.554,1.43-1.107,2.149-1.661     c1.523-1.173,3.045-2.346,4.541-3.52c0.587-0.455,1.167-0.91,1.74-1.364c0.639-0.501,1.265-1.002,1.892-1.503     c5.906-4.732,10.994-9.768,15.726-14.922c0.916-1.002,1.826-2.01,2.729-3.025c0.428-0.488,0.857-0.969,1.279-1.457     c6.018-6.855,11.614-13.789,17.842-20.334c1.483-1.562,2.999-3.098,4.561-4.607c1.318-1.259,2.656-2.498,4.047-3.711     c1.588-1.397,3.223-2.762,4.937-4.08c2.34-1.819,4.805-3.566,7.441-5.233c0.646-0.415,1.285-0.817,1.931-1.213     c65.72-40.845,114.092-27.511,146.362,0c2.432,2.063,4.779,4.218,7.026,6.446c1.371,1.325,2.696,2.696,3.981,4.08     c0.145,0.145,0.277,0.297,0.415,0.455c0.903,0.962,1.78,1.931,2.636,2.907c0.257,0.29,0.508,0.58,0.758,0.87     c0.376,0.435,0.751,0.87,1.12,1.312c0.455,0.534,0.903,1.074,1.351,1.615c0.283,0.343,0.56,0.685,0.837,1.028     c1.799,2.215,3.513,4.462,5.148,6.723c0.33,0.448,0.653,0.903,0.975,1.358c2.254,3.164,4.35,6.36,6.295,9.537     c0.277,0.455,0.554,0.91,0.824,1.358c0.277,0.455,0.547,0.91,0.811,1.364c0.264,0.448,0.527,0.903,0.784,1.351     c0.264,0.455,0.521,0.903,0.771,1.351s0.501,0.903,0.751,1.351c0.257,0.448,0.501,0.896,0.732,1.338     c0.244,0.448,0.481,0.896,0.718,1.338c0.237,0.442,0.468,0.89,0.699,1.331c0.224,0.442,0.455,0.883,0.679,1.318     c0.224,0.442,0.442,0.883,0.659,1.318c0.87,1.74,1.687,3.46,2.458,5.154c0.382,0.857,0.765,1.707,1.127,2.544     c1.641,3.77,3.045,7.375,4.192,10.73c0.007,0.013,0.013,0.033,0.013,0.046c0.112,0.323,0.217,0.639,0.323,0.956     c0.112,0.33,0.217,0.653,0.323,0.975c0.079,0.25,0.165,0.494,0.237,0.745c0.119,0.369,0.237,0.738,0.349,1.114     c0.125,0.402,0.244,0.804,0.356,1.206c0.217,0.738,0.428,1.476,0.626,2.221c0.171,0.626,0.336,1.252,0.494,1.885     c0.033,0.119,0.066,0.231,0.092,0.349c0.026,0.099,0.046,0.198,0.072,0.297c0.092,0.369,0.185,0.738,0.27,1.114     c0.237,0.982,0.455,1.971,0.659,2.959c0.112,0.54,0.224,1.074,0.323,1.615c0.02,0.099,0.04,0.198,0.059,0.303     c0.099,0.508,0.191,1.015,0.277,1.523c0.119,0.679,0.231,1.364,0.33,2.043c0.086,0.514,0.158,1.035,0.231,1.556     c0.007,0.073,0.02,0.152,0.033,0.231c0.046,0.343,0.092,0.692,0.132,1.041c0.04,0.29,0.072,0.58,0.105,0.863     c0.119,1.048,0.224,2.089,0.31,3.137c0.02,0.237,0.04,0.475,0.059,0.712c0.026,0.395,0.053,0.798,0.079,1.193     c0.026,0.442,0.053,0.883,0.073,1.331c0.02,0.343,0.033,0.679,0.046,1.022c0.02,0.501,0.033,1.008,0.04,1.509     C317.689,129.93,317.696,130.516,317.696,131.103z"/>
		</g>
	</g>
	<path opacity="0.2" fill="#253137" d="M21.372,141.932C21.24,141.846,21.273,141.787,21.372,141.932L21.372,141.932z"/>
	<g>
		<path opacity="0.2" fill="#010002" d="M83.019,136.119c-0.672,4.482-3.981,8.127-8.285,9.537l-1.635,0.534    c-5.879,8.325-16.188,11.877-24.974,6.716l-2.571-1.509l-7.198-8.555c-0.026,0.007-0.059,0.013-0.086,0.02    c-2.281,0.475-4.858,0.125-6.545-1.483c-0.27,1.41-2.109,2.241-3.342,1.516s-1.391-2.742-0.29-3.658    c-1.45,1.279-3.691,0.692-5.088-0.705c-0.059-3.816,0.343-7.633,1.285-11.396c0.593-2.34,1.351-4.594,2.274-6.756    c0.699-1.668,1.49-3.269,2.366-4.838c0.066-0.132,0.145-0.27,0.224-0.402c1.298-2.294,2.768-4.489,4.383-6.604    c0.277-0.25,0.554-0.501,0.83-0.751c0.626-0.573,1.259-1.134,1.898-1.701c0.04-0.033,0.079-0.073,0.119-0.105    c1.022-0.896,2.056-1.78,3.104-2.656c1.615-1.351,3.256-2.676,4.91-3.994c0.053-0.046,0.112-0.086,0.165-0.132    c1.417-1.12,2.847-2.234,4.271-3.342c0.718-0.554,1.43-1.107,2.149-1.661c0.435,0.053,0.857,0.152,1.265,0.297    c1.76,0.613,2.063,2.228,3.282,3.335c1.621,1.483,3.177-1.008,5.675-0.929c7.679,0.237,4.699,8.114,8.45,7.125    c16.194-4.271,13.472,16.445,6.433,20.993C80.244,128.453,83.823,130.727,83.019,136.119z"/>
		<g>
			<ellipse fill="#FFFFFF" stroke="#253137" stroke-miterlimit="10" cx="48.196" cy="128.834" rx="27.313" ry="26.975"/>
			<ellipse fill="#253137" stroke="#FFFFFF" stroke-miterlimit="10" cx="48.196" cy="127.743" rx="24.904" ry="24.595"/>
		</g>
		<g>
			<g>
				<g>
					<g>
						<g>
							<g>
								<path fill="#8AB996" d="M21.436,137.438c-1.568,0.974-2.017,4.252-0.78,5.673c1.237,1.412,3.597,0.321,4.081-1.891          c0.228,0.619,0.956,0.72,1.331,0.186c0.264-0.382,0.275-0.979,0.091-1.387c-0.118-0.1-0.075-0.171,0,0          c0.802,0.638,2.186-0.058,2.378-1.42c-0.587,3.623,2.707,6.787,5.135,4.944c-0.717,1.54,0.222,3.566,1.478,3.954          c1.25,0.389,2.598-0.35,3.798-1.171c1.2-0.821,2.426-1.759,3.738-1.816c1.144-0.055,2.204,0.59,3.292,0.974          c3.467,1.207,7.525-0.392,10.177-4.027c1.753,2.999,6.07,1.895,7.228-1.839c0.243,1.748,1.44,3.079,2.774,3.097          c1.334,0.017,2.681-1.279,3.138-3.016l0,0.023c0.03,1.654,1.505,2.465,2.56,1.4c1.348-1.357,2.183-3.851,1.52-5.848          c1.797-0.072,3.535-2.155,3.806-4.568c0.278-2.413-0.941-4.834-2.674-5.308c2.973-1.235,5.304-5.286,5.416-9.421          c0.106-4.128-2.015-7.966-4.936-8.932c-1.113-0.367-2.413-0.295-3.353,0.701c-0.346-2.352-1.415-4.454-2.988-5.511          c-2.507-1.693-5.993-0.533-7.859,2.618c0.91-1.628,0.971-3.982,0.143-5.527c-0.828-1.537-2.474-2.153-3.87-1.427          c-0.301-2.523-2.249-4.319-4.155-3.829c-1.9,0.49-3.44,3.187-3.277,5.741c-0.178-2.057-2.604-2.565-3.48-0.84          c0.075,0.156-0.037,0.063,0,0c-1.21-2.544-3.676-3.85-5.964-3.107c-2.433,0.798-4.476,3.853-4.788,7.185          c-1.678-1.531-4.127-1.464-5.928,0.165c-1.801,1.621-2.839,4.707-2.525,7.466c-1.893-1.868-5.078-0.849-6.376,2.039          c-1.298,2.888-0.403,6.977,1.789,8.186c-1.513,0.23-2.842,2.235-2.843,4.265c0.005,2.037,1.337,3.772,2.853,3.718          c-1.529,0.132-2.968,1.937-3.191,3.989C18.95,134.935,19.972,136.986,21.436,137.438z"/>
							</g>
						</g>
						<g opacity="0.2">
							<g>
								<path fill="#FFFFFF" d="M46.545,127.986c-0.764-0.64-1.737-0.95-2.668-0.657c-0.931,0.293-1.786,1.257-1.998,2.449          c-0.212,1.192,0.339,2.508,1.253,2.735c1.111,0.276,2.251-0.967,3.386-0.832c0.405,0.049,0.774,0.271,1.168,0.382          c1.625,0.457,3.272-1.004,4.653-2.378c0.486-0.483,0.983-0.982,1.314-1.643c0.331-0.661,0.465-1.53,0.177-2.167          c-0.401-0.888-1.389-0.962-2.216-0.791c-1.658,0.342-3.27,1.291-4.591,2.702c0.049-0.333,0.097-0.666,0.146-0.999          L46.545,127.986z"/>
							</g>
							<g>
								<path fill="#FFFFFF" d="M70.352,124.739c-0.437-0.369-0.887-0.745-1.412-0.871c-0.524-0.126-1.147,0.056-1.491,0.621          c-0.471,0.774-0.202,1.923,0.367,2.478c0.57,0.555,1.337,0.672,2.068,0.772c0.751,0.103,1.701,0.079,2.089-0.792          c0.283-0.635,0.079-1.439-0.317-1.899c-0.397-0.46-0.94-0.657-1.465-0.841L70.352,124.739z"/>
							</g>
							<g>
								<path fill="#FFFFFF" d="M33.083,111.272c-1.529,0.9-2.731,2.757-3.122,4.822c-0.118,0.623-0.117,1.398,0.3,1.7          c0.296,0.214,0.681,0.095,1.025-0.03c1.459-0.528,2.918-1.056,4.377-1.584c-0.701,0.383-1.418,0.78-1.985,1.447          c-0.566,0.667-0.957,1.672-0.792,2.581c0.194,1.068,1.11,1.676,1.985,1.606c0.875-0.069,1.698-0.673,2.42-1.366          c0.771-0.739,1.529-1.745,1.565-2.935c0.036-1.19-1.118-2.221-1.848-1.415c1.669-0.676,3.271-1.693,4.722-2.999          c0.525-0.472,1.043-1,1.381-1.695c0.338-0.695,0.466-1.595,0.179-2.271c-1.425-3.355-3.397,1.815-4.321,2.321          C37.218,112.414,35.307,109.963,33.083,111.272z"/>
								<path fill="#FFFFFF" d="M26.049,126.396c-0.165,0.684-0.075,1.489,0.347,1.901c0.422,0.411,1.186,0.217,1.397-0.449          c-0.979,0.446-2.024,0.955-2.649,2.035c-0.625,1.08-0.508,2.895,0.452,3.239c0.599,0.215,1.25-0.203,1.815-0.626          c1.596-1.196,3.125-2.553,4.566-4.053c-0.455,1.298,0.558,2.677,1.638,2.728c1.08,0.052,2.106-0.756,3.047-1.532          c1.155-0.952,2.485-2.379,2.216-4.017c-0.234-1.425-1.668-1.974-2.787-1.484c-1.119,0.491-1.976,1.685-2.775,2.829          c0.631-1.171-0.205-2.801-1.27-2.92c-1.035-0.115-2.086,0.755-2.751,1.769c1.225-0.921,1.537-3.145-0.079-3.301          C28.163,122.412,26.324,125.26,26.049,126.396z"/>
								<path fill="#FFFFFF" d="M59.354,119.407c-0.906-0.38-2.065,0.449-2.333,1.668c-0.268,1.219,0.416,2.55,1.377,2.68          c-0.71,0.121-1.398,0.614-1.867,1.339c-0.261,0.403-0.461,0.912-0.413,1.408c0.071,0.742,0.686,1.194,1.277,1.185          c0.591-0.009,1.161-0.363,1.705-0.709c-0.585,0.106-1.206,0.23-1.678,0.717c-0.472,0.487-0.691,1.47-0.284,1.972          c0.34,0.42,0.914,0.311,1.39,0.114c1.068-0.444,2.067-1.213,2.889-2.221c0.588,0.816,1.472,1.376,2.364,1.136          c0.893-0.239,1.669-1.493,1.411-2.569c-0.184-0.767-0.815-1.219-1.451-1.279c-0.636-0.059-1.28,0.203-1.896,0.493          c0.636-0.605,1.311-1.278,1.557-2.226c0.246-0.948-0.226-2.172-0.994-2.05c-0.862,0.139-1.329,1.66-2.019,2.238          C59.568,122.353,61.177,120.17,59.354,119.407z"/>
								<g>
									<path fill="#FFFFFF" d="M43.93,115.792c-0.994,0.905-1.364,2.593-1.323,4.094c0.045,1.657,0.605,3.397,1.788,3.991           c1.557,0.781,3.553-1.009,3.882-3.185c0.328-2.176-0.742-4.303-2.248-5.219C46.029,115.473,44.924,114.887,43.93,115.792z"/>
								</g>
								<g>
									<path fill="#FFFFFF" d="M54.948,113.326c0.132,0.141,0.265,0.281,0.397,0.421c-0.648-1.036-2.054-1.092-2.863-0.113           c-0.809,0.978-0.847,2.78-0.077,3.669c0.77,0.889,2.182,0.672,2.875-0.44c1.123,0.603,2.626,0.25,3.447-1.029           c0.821-1.278,0.68-3.41-0.395-4.131c-1.075-0.721-2.753,0.562-2.666,2.145c-0.153-0.214-0.307-0.428-0.46-0.642           L54.948,113.326z"/>
								</g>
								<g>
									<path fill="#FFFFFF" d="M67.028,115.08c-0.796,1.024-1.623,2.116-1.933,3.476c-0.31,1.36,0.13,3.042,1.181,3.32           c1.044,0.276,2.061-0.89,2.682-2.078c0.56-1.073,0.997-2.394,0.707-3.558c-0.29-1.164-1.614-1.783-2.299-0.831           L67.028,115.08z"/>
								</g>
								<path fill="#FFFFFF" d="M49.703,108.036c-0.376-1.102-1.623-1.419-2.457-0.716c-0.834,0.703-1.164,2.191-0.826,3.315          c0.338,1.125,1.247,1.846,2.207,1.921c1.189,0.093,2.62-1.221,2.379-2.695c0.498,0.832,1.415,1.118,2.263,0.96          c0.848-0.158,1.643-0.695,2.389-1.281c1.014-0.795,2.102-1.996,2.024-3.456c-0.063-1.163-0.933-2.008-1.846-2.06          c-0.914-0.053-1.826,0.545-2.539,1.35c-0.561,0.632-1.031,1.398-1.635,1.959c-0.604,0.561-1.418,0.891-2.046,0.493          L49.703,108.036z"/>
							</g>
						</g>
					</g>
				</g>
			</g>
		</g>
	</g>
	<g>
		<g>
			
				<rect x="96.21" y="148.854" fill="#8AB996" stroke="#253137" stroke-linecap="round" stroke-linejoin="round" stroke-miterlimit="10" width="152.036" height="64.031"/>
			<g>
				<rect x="99.386" y="152.728" fill="#FFFFFF" stroke="#253137" stroke-miterlimit="10" width="14.305" height="7.919"/>
				<rect x="222.198" y="191.328" fill="#FFFFFF" stroke="#253137" stroke-miterlimit="10" width="22.531" height="7.919"/>
				<rect x="230.821" y="162.617" fill="#FFFFFF" stroke="#253137" stroke-miterlimit="10" width="13.907" height="7.919"/>
				<rect x="99.386" y="181.565" fill="#FFFFFF" stroke="#253137" stroke-miterlimit="10" width="14.305" height="7.919"/>
				<rect x="99.386" y="172.028" fill="#FFFFFF" stroke="#253137" stroke-miterlimit="10" width="11.58" height="7.919"/>
				<g>
					<rect x="99.386" y="162.378" fill="#FFFFFF" stroke="#253137" stroke-miterlimit="10" width="7.919" height="7.919"/>
					<rect x="109.493" y="162.378" fill="#FFFFFF" stroke="#253137" stroke-miterlimit="10" width="7.919" height="7.919"/>
					<rect x="119.599" y="162.378" fill="#FFFFFF" stroke="#253137" stroke-miterlimit="10" width="7.919" height="7.919"/>
					<rect x="129.706" y="162.378" fill="#FFFFFF" stroke="#253137" stroke-miterlimit="10" width="7.919" height="7.919"/>
					<rect x="139.813" y="162.378" fill="#FFFFFF" stroke="#253137" stroke-miterlimit="10" width="7.919" height="7.919"/>
					<rect x="149.919" y="162.378" fill="#FFFFFF" stroke="#253137" stroke-miterlimit="10" width="7.919" height="7.919"/>
					<rect x="160.026" y="162.378" fill="#FFFFFF" stroke="#253137" stroke-miterlimit="10" width="7.919" height="7.919"/>
					<rect x="170.132" y="162.378" fill="#FFFFFF" stroke="#253137" stroke-miterlimit="10" width="7.919" height="7.919"/>
					<rect x="180.239" y="162.378" fill="#FFFFFF" stroke="#253137" stroke-miterlimit="10" width="7.919" height="7.919"/>
					<rect x="190.345" y="162.378" fill="#FFFFFF" stroke="#253137" stroke-miterlimit="10" width="7.919" height="7.919"/>
					<rect x="200.452" y="162.378" fill="#FFFFFF" stroke="#253137" stroke-miterlimit="10" width="7.919" height="7.919"/>
					<rect x="210.559" y="162.378" fill="#FFFFFF" stroke="#253137" stroke-miterlimit="10" width="7.919" height="7.919"/>
					<rect x="220.665" y="162.378" fill="#FFFFFF" stroke="#253137" stroke-miterlimit="10" width="7.919" height="7.919"/>
				</g>
				<g>
					<rect x="99.386" y="201.092" fill="#FFFFFF" stroke="#253137" stroke-miterlimit="10" width="7.919" height="7.919"/>
					<rect x="109.493" y="201.092" fill="#FFFFFF" stroke="#253137" stroke-miterlimit="10" width="7.919" height="7.919"/>
					<rect x="119.599" y="201.092" fill="#FFFFFF" stroke="#253137" stroke-miterlimit="10" width="7.919" height="7.919"/>
					<rect x="129.706" y="201.092" fill="#FFFFFF" stroke="#253137" stroke-miterlimit="10" width="9.662" height="7.919"/>
					<rect x="141.556" y="201.092" fill="#FFFFFF" stroke="#253137" stroke-miterlimit="10" width="48.345" height="7.919"/>
					<rect x="206.154" y="201.092" fill="#FFFFFF" stroke="#253137" stroke-miterlimit="10" width="7.919" height="7.919"/>
					<rect x="216.261" y="201.092" fill="#FFFFFF" stroke="#253137" stroke-miterlimit="10" width="7.919" height="7.919"/>
					<rect x="226.384" y="201.092" fill="#FFFFFF" stroke="#253137" stroke-miterlimit="10" width="7.919" height="7.919"/>
					<rect x="191.878" y="201.092" fill="#FFFFFF" stroke="#253137" stroke-miterlimit="10" width="12.295" height="7.919"/>
					<rect x="236.81" y="201.092" fill="#FFFFFF" stroke="#253137" stroke-miterlimit="10" width="7.919" height="7.919"/>
				</g>
				<g>
					<rect x="113.213" y="172.028" fill="#FFFFFF" stroke="#253137" stroke-miterlimit="10" width="7.919" height="7.919"/>
					<rect x="123.32" y="172.028" fill="#FFFFFF" stroke="#253137" stroke-miterlimit="10" width="7.919" height="7.919"/>
					<rect x="133.426" y="172.028" fill="#FFFFFF" stroke="#253137" stroke-miterlimit="10" width="7.919" height="7.919"/>
					<rect x="143.533" y="172.028" fill="#FFFFFF" stroke="#253137" stroke-miterlimit="10" width="7.919" height="7.919"/>
					<rect x="153.64" y="172.028" fill="#FFFFFF" stroke="#253137" stroke-miterlimit="10" width="7.919" height="7.919"/>
					<rect x="163.746" y="172.028" fill="#FFFFFF" stroke="#253137" stroke-miterlimit="10" width="7.919" height="7.919"/>
					<rect x="173.853" y="172.028" fill="#FFFFFF" stroke="#253137" stroke-miterlimit="10" width="7.919" height="7.919"/>
					<rect x="183.959" y="172.028" fill="#FFFFFF" stroke="#253137" stroke-miterlimit="10" width="7.919" height="7.919"/>
					<rect x="194.066" y="172.028" fill="#FFFFFF" stroke="#253137" stroke-miterlimit="10" width="7.919" height="7.919"/>
					<rect x="204.173" y="172.028" fill="#FFFFFF" stroke="#253137" stroke-miterlimit="10" width="7.919" height="7.919"/>
					<rect x="214.279" y="172.028" fill="#FFFFFF" stroke="#253137" stroke-miterlimit="10" width="7.919" height="7.919"/>
					<rect x="224.386" y="172.028" fill="#FFFFFF" stroke="#253137" stroke-miterlimit="10" width="7.919" height="7.919"/>
					<polygon fill="#FFFFFF" stroke="#253137" stroke-miterlimit="10" points="244.729,172.03 244.729,189.597 236.812,189.597        236.812,179.946 234.49,179.946 234.49,172.03      "/>
				</g>
				<g>
					<rect x="115.531" y="181.678" fill="#FFFFFF" stroke="#253137" stroke-miterlimit="10" width="7.919" height="7.919"/>
					<rect x="125.638" y="181.678" fill="#FFFFFF" stroke="#253137" stroke-miterlimit="10" width="7.919" height="7.919"/>
					<rect x="135.744" y="181.678" fill="#FFFFFF" stroke="#253137" stroke-miterlimit="10" width="7.919" height="7.919"/>
					<rect x="145.851" y="181.678" fill="#FFFFFF" stroke="#253137" stroke-miterlimit="10" width="7.919" height="7.919"/>
					<rect x="155.958" y="181.678" fill="#FFFFFF" stroke="#253137" stroke-miterlimit="10" width="7.919" height="7.919"/>
					<rect x="166.064" y="181.678" fill="#FFFFFF" stroke="#253137" stroke-miterlimit="10" width="7.919" height="7.919"/>
					<rect x="176.171" y="181.678" fill="#FFFFFF" stroke="#253137" stroke-miterlimit="10" width="7.919" height="7.919"/>
					<rect x="186.277" y="181.678" fill="#FFFFFF" stroke="#253137" stroke-miterlimit="10" width="7.919" height="7.919"/>
					<rect x="196.384" y="181.678" fill="#FFFFFF" stroke="#253137" stroke-miterlimit="10" width="7.919" height="7.919"/>
					<rect x="206.49" y="181.678" fill="#FFFFFF" stroke="#253137" stroke-miterlimit="10" width="7.919" height="7.919"/>
					<rect x="216.597" y="181.678" fill="#FFFFFF" stroke="#253137" stroke-miterlimit="10" width="7.919" height="7.919"/>
					<rect x="226.704" y="181.678" fill="#FFFFFF" stroke="#253137" stroke-miterlimit="10" width="7.919" height="7.919"/>
				</g>
				<g>
					<rect x="111.236" y="191.328" fill="#FFFFFF" stroke="#253137" stroke-miterlimit="10" width="7.919" height="7.919"/>
					<rect x="121.342" y="191.328" fill="#FFFFFF" stroke="#253137" stroke-miterlimit="10" width="7.919" height="7.919"/>
					<rect x="131.449" y="191.328" fill="#FFFFFF" stroke="#253137" stroke-miterlimit="10" width="7.919" height="7.919"/>
					<rect x="141.556" y="191.328" fill="#FFFFFF" stroke="#253137" stroke-miterlimit="10" width="7.919" height="7.919"/>
					<rect x="151.662" y="191.328" fill="#FFFFFF" stroke="#253137" stroke-miterlimit="10" width="7.919" height="7.919"/>
					<rect x="161.769" y="191.328" fill="#FFFFFF" stroke="#253137" stroke-miterlimit="10" width="7.919" height="7.919"/>
					<rect x="171.875" y="191.328" fill="#FFFFFF" stroke="#253137" stroke-miterlimit="10" width="7.919" height="7.919"/>
					<rect x="181.982" y="191.328" fill="#FFFFFF" stroke="#253137" stroke-miterlimit="10" width="7.919" height="7.919"/>
					<rect x="192.089" y="191.328" fill="#FFFFFF" stroke="#253137" stroke-miterlimit="10" width="7.919" height="7.919"/>
					<rect x="202.195" y="191.328" fill="#FFFFFF" stroke="#253137" stroke-miterlimit="10" width="7.919" height="7.919"/>
					<rect x="212.302" y="191.328" fill="#FFFFFF" stroke="#253137" stroke-miterlimit="10" width="7.919" height="7.919"/>
				</g>
				<g>
					<rect x="115.531" y="153.206" fill="#FFFFFF" stroke="#253137" stroke-miterlimit="10" width="7.919" height="7.919"/>
					<rect x="125.638" y="153.206" fill="#FFFFFF" stroke="#253137" stroke-miterlimit="10" width="7.919" height="7.919"/>
					<rect x="135.744" y="153.206" fill="#FFFFFF" stroke="#253137" stroke-miterlimit="10" width="7.919" height="7.919"/>
					<rect x="145.851" y="153.206" fill="#FFFFFF" stroke="#253137" stroke-miterlimit="10" width="7.919" height="7.919"/>
					<rect x="155.958" y="153.206" fill="#FFFFFF" stroke="#253137" stroke-miterlimit="10" width="7.919" height="7.919"/>
					<rect x="166.064" y="153.206" fill="#FFFFFF" stroke="#253137" stroke-miterlimit="10" width="7.919" height="7.919"/>
					<rect x="176.171" y="153.206" fill="#FFFFFF" stroke="#253137" stroke-miterlimit="10" width="7.919" height="7.919"/>
					<rect x="186.277" y="153.206" fill="#FFFFFF" stroke="#253137" stroke-miterlimit="10" width="7.919" height="7.919"/>
					<rect x="196.384" y="153.206" fill="#FFFFFF" stroke="#253137" stroke-miterlimit="10" width="7.919" height="7.919"/>
					<rect x="206.49" y="153.206" fill="#FFFFFF" stroke="#253137" stroke-miterlimit="10" width="7.919" height="7.919"/>
					<rect x="216.597" y="153.206" fill="#FFFFFF" stroke="#253137" stroke-miterlimit="10" width="7.919" height="7.919"/>
					<rect x="226.704" y="153.206" fill="#FFFFFF" stroke="#253137" stroke-miterlimit="10" width="7.919" height="7.919"/>
					<rect x="236.81" y="153.206" fill="#FFFFFF" stroke="#253137" stroke-miterlimit="10" width="7.919" height="7.919"/>
				</g>
				<rect x="99.386" y="191.328" fill="#FFFFFF" stroke="#253137" stroke-miterlimit="10" width="9.593" height="7.919"/>
			</g>
		</g>
		<polygon fill="#253137" points="96.21,149.264 99.386,148.204 246.181,148.204 248.273,149.25   "/>
	</g>
	<g>
		<path opacity="0.2" fill="#010002" d="M204.731,259.083l-3.091-18.62c-0.679-2.775-2.136-5.299-4.185-7.29    c-6.15-5.932-14.276-12.022-14.626-19.8c-0.534-11.884-2.386-11.528-2.188-14.461c0.007-0.105,0.923-1.417,2.116-4.35    c0.382-0.949,0.639-2.36,0.896-3.52c0.264-1.219,1.424-2.05,2.663-1.878c0.83,0.112,1.648,0.488,2.234,1.048    c1.127,1.094,1.628,2.709,1.674,4.284c0.046,1.569-0.303,3.124-0.659,4.653c1.107,2.478,1.628,5.49,1.984,8.18    c0.705-2.175,1.239-4.37,1.944-6.538c0.145-0.079,0.092-0.25,0.231-0.33c-0.995-2.136-0.152-2.017-2.122-6.716    c-3.315-7.909-7.013-15.535-9.656-25.475c-0.211-0.771-0.198-2.037,0.059-2.795c0.956-2.841,3.882-2.188,5.161-0.534    c0.343,0.435,0.593,0.923,0.791,1.437c1.351,3.539,4.232,8.997,6.308,12.161l7.178,10.941c0,0,2.498-2.05,2.88-2.966l0.007-0.007    c0.376-0.923,0.56-8.351,0.56-8.351s-0.567,1.391-1.826,1.312c-0.91-0.066-2.755,0.461-4.067-1.015    c-1.074-1.206-1.074-3.019-0.119-4.311l3.249-4.39c0,0,2.182-1.911,5.102-0.613c2.913,1.305,5.741,4.021,5.741,4.021    s2.702-0.138,4.996,0.962c2.3,1.107,4.713,4.284,4.713,4.284s2.683,0.165,3.889,1.041c0.303,0.217,4.396,6.591,2.92,11.554    c-0.877,2.959-1.417,7.257-1.813,8.41l-2.01,29.06l4.054,19.127l-8.667,4.831c-3.187,1.777-6.525,3.269-9.974,4.46    L204.731,259.083z"/>
		<g>
			<g>
				<g>
					<g>
						<g>
							<defs>
								<path id="XMLID_2_" d="M229.343,225.124l0.078-29.135c0.317-1.178,0.571-5.501,1.248-8.513          c1.143-5.05-3.364-11.136-3.682-11.334c-1.262-0.79-3.95-0.776-3.95-0.776s-2.617-3.012-4.986-3.964          c-2.363-0.945-5.05-0.628-5.05-0.628s-2.997-2.525-5.995-3.632c-2.997-1.1-5.05,0.952-5.05,0.952l-2.948,4.591          c-0.867,1.354-0.748,3.167,0.402,4.295c1.411,1.389,3.216,0.741,4.126,0.741c1.262,0,1.735-1.425,1.735-1.425          s0.31,7.42,0,8.365l-0.007,0.007c-0.324,0.945-2.68,3.153-2.68,3.153l-7.885-10.438c-2.285-3.019-5.522-8.273-7.102-11.715          c-0.233-0.501-0.515-0.973-0.889-1.382c-1.382-1.566-4.345-2.024-5.113,0.875c-0.205,0.776-0.134,2.038,0.127,2.793          c3.301,9.74,7.497,17.103,11.327,24.777c2.278,4.556,1.432,4.5,2.567,6.559c-0.134,0.092-0.071,0.261-0.212,0.346          c-0.557,2.215-0.945,4.436-1.502,6.651c-0.536-2.659-1.255-5.628-2.525-8.026c0.254-1.552,0.501-3.124,0.346-4.69          c-0.148-1.566-0.755-3.146-1.954-4.161c-0.621-0.522-1.46-0.839-2.299-0.896c-1.248-0.092-2.349,0.818-2.532,2.052          c-0.176,1.171-0.339,2.595-0.663,3.569c-0.994,3.005-1.82,4.373-1.82,4.479c0,2.941,1.82,2.461,3.145,14.289          c1.03,9.211,12.893,15.298,19.353,21.948l6.883,21.652c7.991-3.202,15.636-7.3,22.971-12.06L229.343,225.124z"/>
							</defs>
							<use xlink:href="#XMLID_2_" overflow="visible" fill="#FFFFFF"/>
							<clipPath id="XMLID_6_">
								<use xlink:href="#XMLID_2_" overflow="visible"/>
							</clipPath>
							<g clip-path="url(#XMLID_6_)">
								<g>
									<path fill="#8AB996" d="M225.964,185.535c0.35-0.857,0.766-1.738,1.514-2.284c0.748-0.546,1.922-0.615,2.522,0.09           c-0.492-1.512-1.014-3.014-1.566-4.504c-0.42-1.135-0.895-2.316-1.832-3.082c-0.937-0.766-2.481-0.928-3.284-0.022           c0.573,3.438,0.635,6.961,0.184,10.417c-0.244,1.872-0.559,4.023,0.702,5.428c0.347,0.284,0.95-0.225,0.73-0.615           c-0.104-0.185-0.478-0.197-0.639-0.181C224.699,188.992,225.27,187.233,225.964,185.535z"/>
									<path fill="#8AB996" d="M225.964,185.535c0.35-0.857,0.766-1.738,1.514-2.284c0.748-0.546,1.922-0.615,2.522,0.09           c-0.492-1.512-1.014-3.014-1.566-4.504c-0.42-1.135-0.895-2.316-1.832-3.082c-0.937-0.766-2.481-0.928-3.284-0.022           c0.573,3.438,0.635,6.961,0.184,10.417c-0.244,1.872-0.559,4.023,0.702,5.428c0.347,0.284,0.95-0.225,0.73-0.615           c-0.104-0.185-0.478-0.197-0.639-0.181C224.699,188.992,225.27,187.233,225.964,185.535z"/>
									<path opacity="0.5" fill="#FFFFFF" d="M225.964,185.535c0.35-0.857,0.766-1.738,1.514-2.284           c0.748-0.546,1.922-0.615,2.522,0.09c-0.492-1.512-1.014-3.014-1.566-4.504c-0.42-1.135-0.895-2.316-1.832-3.082           c-0.937-0.766-2.481-0.928-3.284-0.022c0.573,3.438,0.635,6.961,0.184,10.417c-0.244,1.872-0.559,4.023,0.702,5.428           c0.347,0.284,0.95-0.225,0.73-0.615c-0.104-0.185-0.478-0.197-0.639-0.181C224.699,188.992,225.27,187.233,225.964,185.535           z"/>
								</g>
								<g>
									<path fill="#8AB996" d="M215.449,182.407c0.05,1.268,0.042,2.552,0.354,3.781c0.312,1.23,0.997,2.427,2.106,3.043           c-0.654-2.456-0.3-5.054,0.057-7.57c0.217-1.529,0.434-3.058,0.651-4.586c0.075-0.532,0.159-1.085,0.465-1.526           c0.306-0.441,0.906-0.729,1.394-0.505c-0.651,0.386-1.497-0.131-1.89-0.778c-0.393-0.647-0.548-1.429-1.013-2.027           c-0.881-1.133-2.766-1.383-4.069-1.081C213.9,174.922,215.297,178.517,215.449,182.407z"/>
									<g>
										<path fill="#8AB996" d="M215.449,182.407c0.05,1.268,0.042,2.552,0.354,3.781c0.312,1.23,0.997,2.427,2.106,3.043            c-0.654-2.456-0.3-5.054,0.057-7.57c0.217-1.529,0.434-3.058,0.651-4.586c0.075-0.532,0.159-1.085,0.465-1.526            c0.306-0.441,0.906-0.729,1.394-0.505c-0.651,0.386-1.497-0.131-1.89-0.778c-0.393-0.647-0.548-1.429-1.013-2.027            c-0.881-1.133-2.766-1.383-4.069-1.081C213.9,174.922,215.297,178.517,215.449,182.407z"/>
									</g>
									<g opacity="0.5">
										<path fill="#FFFFFF" d="M215.449,182.407c0.05,1.268,0.042,2.552,0.354,3.781c0.312,1.23,0.997,2.427,2.106,3.043            c-0.654-2.456-0.3-5.054,0.057-7.57c0.217-1.529,0.434-3.058,0.651-4.586c0.075-0.532,0.159-1.085,0.465-1.526            c0.306-0.441,0.906-0.729,1.394-0.505c-0.651,0.386-1.497-0.131-1.89-0.778c-0.393-0.647-0.548-1.429-1.013-2.027            c-0.881-1.133-2.766-1.383-4.069-1.081C213.9,174.922,215.297,178.517,215.449,182.407z"/>
									</g>
								</g>
								<g>
									<g>
										<path fill="#8AB996" d="M204.688,172.247c-0.425-0.313-0.567-0.874-0.695-1.386c-0.128-0.512-0.311-1.072-0.771-1.331            c-2.024,1.283-0.918,5.047-2.964,6.295c-0.397,0.242-0.903,0.379-1.124,0.788c-0.2,0.37-0.073,0.855,0.216,1.16            c0.289,0.305,0.706,0.458,1.12,0.532c1.628,0.292,3.343-0.539,4.315-1.877c0.801-1.104,1.357-2.888,0.96-4.196            C205.435,172.404,204.991,172.47,204.688,172.247z"/>
										<path fill="#8AB996" d="M183.647,196.887c-0.037,0.141-0.063,0.317,0.05,0.41c0.173,0.143,0.405-0.079,0.534-0.262            c0.849-1.208,2.53-1.754,3.926-1.275c0.533-0.011,0.714-0.822,0.365-1.225c-0.349-0.403-0.942-0.473-1.476-0.475            c-0.533-0.002-1.104,0.027-1.556-0.256c-0.556-0.348-0.774-1.054-0.632-1.661            C184.498,193.73,184.055,195.309,183.647,196.887z"/>
									</g>
									<g opacity="0.5">
										<path fill="#FFFFFF" d="M204.688,172.247c-0.425-0.313-0.567-0.874-0.695-1.386c-0.128-0.512-0.311-1.072-0.771-1.331            c-2.024,1.283-0.918,5.047-2.964,6.295c-0.397,0.242-0.903,0.379-1.124,0.788c-0.2,0.37-0.073,0.855,0.216,1.16            c0.289,0.305,0.706,0.458,1.12,0.532c1.628,0.292,3.343-0.539,4.315-1.877c0.801-1.104,1.357-2.888,0.96-4.196            C205.435,172.404,204.991,172.47,204.688,172.247z"/>
										<path fill="#FFFFFF" d="M183.647,196.887c-0.037,0.141-0.063,0.317,0.05,0.41c0.173,0.143,0.405-0.079,0.534-0.262            c0.849-1.208,2.53-1.754,3.926-1.275c0.533-0.011,0.714-0.822,0.365-1.225c-0.349-0.403-0.942-0.473-1.476-0.475            c-0.533-0.002-1.104,0.027-1.556-0.256c-0.556-0.348-0.774-1.054-0.632-1.661            C184.498,193.73,184.055,195.309,183.647,196.887z"/>
									</g>
								</g>
								<g>
									<path fill="#8AB996" d="M210.481,171.745c-1.153-0.154-2.372-0.183-3.376-0.771c-1.258-0.737-2.119-2.311-3.575-2.374           c-1.294-0.056-2.257,1.13-2.992,2.196c-0.085-1.609,1.099-3.112,2.594-3.711c1.496-0.599,3.217-0.409,4.714,0.187           c1.497,0.595,2.812,1.565,4.09,2.545c0.514,0.394,1.035,0.803,1.383,1.349           C214.944,173.726,211.499,171.881,210.481,171.745z"/>
									<path opacity="0.5" fill="#FFFFFF" d="M210.481,171.745c-1.153-0.154-2.372-0.183-3.376-0.771           c-1.258-0.737-2.119-2.311-3.575-2.374c-1.294-0.056-2.257,1.13-2.992,2.196c-0.085-1.609,1.099-3.112,2.594-3.711           c1.496-0.599,3.217-0.409,4.714,0.187c1.497,0.595,2.812,1.565,4.09,2.545c0.514,0.394,1.035,0.803,1.383,1.349           C214.944,173.726,211.499,171.881,210.481,171.745z"/>
								</g>
							</g>
							<g clip-path="url(#XMLID_6_)">
								<path fill="#8AB996" d="M189.865,209.178c0.079-0.144,0.148-0.293,0.216-0.442          C189.943,208.841,189.852,208.988,189.865,209.178z"/>
								<path fill="#8AB996" d="M191.823,198.968c-0.129-1.625,0.102-3.258,0.034-4.887c-0.068-1.628-0.493-3.343-1.679-4.461          c-1.701-1.603-6.358-0.783-4.796,2.259c0.433,0.843,1.55,1.282,2.418,0.902c0.868-0.38,1.296-1.561,0.821-2.382          c1.883,2.856,1.714,6.911-0.399,9.601c2.415,2.093,3.182,5.839,1.861,8.735c0.282-0.216,0.775-0.245,1.084-0.011          c0.461,0.348,0.616,0.957,0.841,1.49c0.225,0.532,0.661,1.087,1.237,1.048c0.792-1.941,0.529-4.149,0.015-6.182          C192.744,203.048,191.989,201.058,191.823,198.968z"/>
								<path fill="#8AB996" d="M208.876,168.403c-0.907-0.695-1.983-1.167-3.117-1.314L208.876,168.403z"/>
								<path fill="#8AB996" d="M216.625,189.026c-0.25-1.121-0.767-2.164-1.076-3.27c-0.719-2.578-0.268-5.331-0.597-7.986          c-0.426-3.434-2.218-6.679-4.897-8.869l-1.18-0.498c1.13,0.866,1.996,2.08,2.376,3.453c0.912,3.147,1.199,6.435,1.603,9.687          c0.624,5.015,1.54,9.994,2.74,14.904C216.381,194.042,217.175,191.495,216.625,189.026z"/>
								<path fill="#8AB996" d="M204.076,177.305c0.816-0.646,1.253-1.677,1.392-2.708c0.125-0.922,0.036-1.856-0.074-2.782          c-0.078,0.397-0.595,0.729-1.036,0.624c-0.561-0.133-0.93-0.652-1.247-1.134c-0.08,0.277-0.161,0.553-0.241,0.83          c-0.032-0.15-0.065-0.299-0.097-0.449l-0.313,0.398c0.467,1.323,0.917,2.858,0.196,4.062          c-0.349,0.583-0.925,0.987-1.484,1.374C202.025,178.116,203.26,177.951,204.076,177.305z"/>
								<path fill="#8AB996" d="M205.355,171.487c0.013,0.109,0.025,0.219,0.038,0.328          C205.414,171.708,205.41,171.597,205.355,171.487z"/>
								<path fill="#8AB996" d="M201.911,184.826c-2.312-4.54-4.624-9.082-7.165-13.498c-1.485-2.582-3.059-5.134-5.04-7.358          c-0.878-0.986-3.401-3.268-4.79-1.765c-0.926,1.003,0.292,2.826-0.848,3.91c0.261,0.015,1.549-0.125,1.686,0.043          c2.895,3.576,4.489,8.182,4.424,12.783c0.931-0.73,2.204,0.283,2.93,1.217c4.465,5.738,8.64,11.703,12.502,17.863          c-0.748-2.723-0.767-5.611-1.575-8.317C203.528,188.002,202.717,186.408,201.911,184.826z"/>
								<path fill="#8AB996" d="M228.76,195.892c1.105-2.956,1.967-5.984,2.065-9.122c0.089-2.851-0.563-5.813-2.069-8.255          c-0.381-0.618-1.965-3.143-2.831-2.938c-1.547,0.366,0.485,3.056,0.839,3.728c1.337,2.537,2.709,5.22,2.624,8.086          c-0.066,2.208-0.995,4.283-1.737,6.364c-0.518,1.451-0.939,3.001-0.929,4.522c-0.114,0.169-0.218,0.344-0.342,0.507          c-1.027,1.347-2.469,2.457-4.141,2.729c0.637-1.966,1.274-3.933,1.911-5.899c0.227-0.702,0.309-1.662-0.099-2.15          c0.132-0.269,0.213-0.553,0.201-0.859c-0.021-0.542-0.331-1.022-0.559-1.514c-0.882-1.9-0.583-4.107-0.369-6.19          c0.265-2.57,0.365-5.217-0.389-7.688c-0.754-2.471-2.498-4.763-4.948-5.583c0.21,0.226,0.419,0.452,0.629,0.678l-0.83-0.604          c0.515,1.071,1.03,2.142,1.545,3.213c-0.19,0.271-0.38,0.542-0.569,0.813c0.85-0.446,1.94,0.201,2.329,1.078          c0.389,0.877,0.283,1.883,0.193,2.839c-0.501,5.33-0.231,10.73,0.778,15.988c-0.096,1.228-0.309,2.47-0.949,3.517          c-0.691,1.13-1.986,1.979-3.296,1.787c0.29-1.266-0.199-2.764-1.271-3.513c-1.329,1.845-0.546,4.712-0.344,6.813          c0.307,3.184,0.818,6.348,1.531,9.467c0.205-2.704,0.772-5.38,1.682-7.935c0.717,2.603,1.434,5.206,2.151,7.808          c0.022-0.729,0.053-1.489,0.406-2.127c0.353-0.638,1.137-1.101,1.819-0.843c0.558,0.211,0.86,0.804,1.09,1.355          c1.863,4.474,2.333,9.518,1.326,14.259c0.885,0.491,2.056-0.103,2.547-0.988c0.491-0.885,0.486-1.951,0.468-2.963          C229.067,213.478,228.913,204.685,228.76,195.892z"/>
								<path fill="#8AB996" d="M206.416,198.681c-0.423,0.741,1.304,3.681,1.59,4.379c1.453,3.547,2.905,7.093,4.358,10.64          c-0.481-4.67-1.623-9.272-3.379-13.626C208.689,199.338,207.255,197.211,206.416,198.681z"/>
								<path fill="#8AB996" d="M208.672,179.883c-0.247,0.375-0.602,0.836-1.031,0.705c-0.4-0.123-0.469-0.652-0.462-1.07          c0.04-2.467,0.08-4.935,0.121-7.402c-1.992,1.427-1.737,3.299-1.876,5.429c-0.081,1.233,0.276,7.116-0.565,7.837          c1.969-1.68,3.638-3.711,4.905-5.968C209.416,179.126,208.919,179.508,208.672,179.883z"/>
								<g opacity="0.5">
									<path fill="#FFFFFF" d="M189.865,209.178c0.079-0.144,0.148-0.293,0.216-0.442           C189.943,208.841,189.852,208.988,189.865,209.178z"/>
									<path fill="#FFFFFF" d="M191.823,198.968c-0.129-1.625,0.102-3.258,0.034-4.887c-0.068-1.628-0.493-3.343-1.679-4.461           c-1.701-1.603-6.358-0.783-4.796,2.259c0.433,0.843,1.55,1.282,2.418,0.902c0.868-0.38,1.296-1.561,0.821-2.382           c1.883,2.856,1.714,6.911-0.399,9.601c2.415,2.093,3.182,5.839,1.861,8.735c0.282-0.216,0.775-0.245,1.084-0.011           c0.461,0.348,0.616,0.957,0.841,1.49c0.225,0.532,0.661,1.087,1.237,1.048c0.792-1.941,0.529-4.149,0.015-6.182           C192.744,203.048,191.989,201.058,191.823,198.968z"/>
									<path fill="#FFFFFF" d="M208.876,168.403c-0.907-0.695-1.983-1.167-3.117-1.314L208.876,168.403z"/>
									<path fill="#FFFFFF" d="M216.625,189.026c-0.25-1.121-0.767-2.164-1.076-3.27c-0.719-2.578-0.268-5.331-0.597-7.986           c-0.426-3.434-2.218-6.679-4.897-8.869l-1.18-0.498c1.13,0.866,1.996,2.08,2.376,3.453           c0.912,3.147,1.199,6.435,1.603,9.687c0.624,5.015,1.54,9.994,2.74,14.904           C216.381,194.042,217.175,191.495,216.625,189.026z"/>
									<path fill="#FFFFFF" d="M204.076,177.305c0.816-0.646,1.253-1.677,1.392-2.708c0.125-0.922,0.036-1.856-0.074-2.782           c-0.078,0.397-0.595,0.729-1.036,0.624c-0.561-0.133-0.93-0.652-1.247-1.134c-0.08,0.277-0.161,0.553-0.241,0.83           c-0.032-0.15-0.065-0.299-0.097-0.449l-0.313,0.398c0.467,1.323,0.917,2.858,0.196,4.062           c-0.349,0.583-0.925,0.987-1.484,1.374C202.025,178.116,203.26,177.951,204.076,177.305z"/>
									<path fill="#FFFFFF" d="M205.355,171.487c0.013,0.109,0.025,0.219,0.038,0.328           C205.414,171.708,205.41,171.597,205.355,171.487z"/>
									<path fill="#FFFFFF" d="M201.911,184.826c-2.312-4.54-4.624-9.082-7.165-13.498c-1.485-2.582-3.059-5.134-5.04-7.358           c-0.878-0.986-3.401-3.268-4.79-1.765c-0.926,1.003,0.292,2.826-0.848,3.91c0.261,0.015,1.549-0.125,1.686,0.043           c2.895,3.576,4.489,8.182,4.424,12.783c0.931-0.73,2.204,0.283,2.93,1.217c4.465,5.738,8.64,11.703,12.502,17.863           c-0.748-2.723-0.767-5.611-1.575-8.317C203.528,188.002,202.717,186.408,201.911,184.826z"/>
									<path fill="#FFFFFF" d="M228.76,195.892c1.105-2.956,1.967-5.984,2.065-9.122c0.089-2.851-0.563-5.813-2.069-8.255           c-0.381-0.618-1.965-3.143-2.831-2.938c-1.547,0.366,0.485,3.056,0.839,3.728c1.337,2.537,2.709,5.22,2.624,8.086           c-0.066,2.208-0.995,4.283-1.737,6.364c-0.518,1.451-0.939,3.001-0.929,4.522c-0.114,0.169-0.218,0.344-0.342,0.507           c-1.027,1.347-2.469,2.457-4.141,2.729c0.637-1.966,1.274-3.933,1.911-5.899c0.227-0.702,0.309-1.662-0.099-2.15           c0.132-0.269,0.213-0.553,0.201-0.859c-0.021-0.542-0.331-1.022-0.559-1.514c-0.882-1.9-0.583-4.107-0.369-6.19           c0.265-2.57,0.365-5.217-0.389-7.688c-0.754-2.471-2.498-4.763-4.948-5.583c0.21,0.226,0.419,0.452,0.629,0.678           l-0.83-0.604c0.515,1.071,1.03,2.142,1.545,3.213c-0.19,0.271-0.38,0.542-0.569,0.813c0.85-0.446,1.94,0.201,2.329,1.078           c0.389,0.877,0.283,1.883,0.193,2.839c-0.501,5.33-0.231,10.73,0.778,15.988c-0.096,1.228-0.309,2.47-0.949,3.517           c-0.691,1.13-1.986,1.979-3.296,1.787c0.29-1.266-0.199-2.764-1.271-3.513c-1.329,1.845-0.546,4.712-0.344,6.813           c0.307,3.184,0.818,6.348,1.531,9.467c0.205-2.704,0.772-5.38,1.682-7.935c0.717,2.603,1.434,5.206,2.151,7.808           c0.022-0.729,0.053-1.489,0.406-2.127c0.353-0.638,1.137-1.101,1.819-0.843c0.558,0.211,0.86,0.804,1.09,1.355           c1.863,4.474,2.333,9.518,1.326,14.259c0.885,0.491,2.056-0.103,2.547-0.988c0.491-0.885,0.486-1.951,0.468-2.963           C229.067,213.478,228.913,204.685,228.76,195.892z"/>
									<path fill="#FFFFFF" d="M206.416,198.681c-0.423,0.741,1.304,3.681,1.59,4.379c1.453,3.547,2.905,7.093,4.358,10.64           c-0.481-4.67-1.623-9.272-3.379-13.626C208.689,199.338,207.255,197.211,206.416,198.681z"/>
									<path fill="#FFFFFF" d="M208.672,179.883c-0.247,0.375-0.602,0.836-1.031,0.705c-0.4-0.123-0.469-0.652-0.462-1.07           c0.04-2.467,0.08-4.935,0.121-7.402c-1.992,1.427-1.737,3.299-1.876,5.429c-0.081,1.233,0.276,7.116-0.565,7.837           c1.969-1.68,3.638-3.711,4.905-5.968C209.416,179.126,208.919,179.508,208.672,179.883z"/>
								</g>
							</g>
						</g>
						<g>
							<g>
								<g>
									<path fill="none" d="M213.718,171.811c1.164,4.297,1.77,8.745,1.798,13.196c0.005,0.745-0.004,1.507,0.235,2.213           c0.239,0.706,0.781,1.359,1.512,1.506"/>
									<path fill="none" d="M223.04,176.141c1.957,4.127-0.046,13.344,0.102,13.993c0.148,0.649,0.518,1.28,1.111,1.583"/>
									<g>
										<path fill="none" d="M206.047,171.246c-0.23,1.312-0.423,2.833-0.653,4.144c-1.532-1.304-2.507-3.241-2.642-5.248"/>
										<path fill="none" d="M193.42,206.414c-0.474,0.209-0.948,0.418-1.423,0.626"/>
										<path fill="none" d="M193.784,207.556c-0.232,1.095-0.237,2.237-0.015,3.334"/>
										<path fill="none" d="M202.113,195.238c0.526,0.947,1.052,1.894,1.578,2.841"/>
										<path fill="none" d="M205.142,184.843c0.523-0.739,1.046-1.477,1.569-2.216"/>
										<path fill="none" d="M227.207,195.238c-0.158,0.579-0.316,1.157-0.473,1.736"/>
										<path fill="none" d="M223.37,190.488c0.462-1.476,0.925-2.953,1.388-4.429"/>
										<path fill="none" d="M228.009,182.633c0.814-0.472,1.996-0.104,2.399,0.746"/>
										<path fill="none" d="M218.536,175.067c1.089-0.317,2.333-0.033,3.176,0.726"/>
										<path fill="none" d="M189.179,179.463c1.012-1.125,2.587-1.718,4.09-1.54"/>
									</g>
								</g>
								<path fill="none" d="M183.233,167.03c0.942-0.689,2.169-0.977,3.319-0.777"/>
								<path fill="#FFFFFF" d="M184.456,196.525c-0.763,0.605-1.421,1.344-1.932,2.173L184.456,196.525z"/>
							</g>
							<path fill="none" d="M185.089,193.532c1.042-0.745,2.702,0.921,3.66,0.071c0.382-0.339,0.41-0.925,0.322-1.428         c-0.088-0.503-0.265-1.006-0.19-1.51"/>
						</g>
					</g>
				</g>
				<path fill="none" d="M214.479,188.961c1.266,2.599,1.529,5.671,0.723,8.448"/>
				<path fill="none" d="M222.135,193.026c0.208,1.235-0.03,2.541-0.661,3.623"/>
			</g>
		</g>
		<g>
			<g>
				<g>
					<g>
						<g>
							<path fill="none" stroke="#253137" stroke-miterlimit="10" d="M211.838,256.502l-6.884-21.652         c-6.46-6.651-18.323-12.737-19.353-21.948c-1.326-11.828-3.145-11.348-3.145-14.289c0-0.106,0.825-1.474,1.82-4.479         c0.324-0.973,0.487-2.398,0.663-3.569c0.183-1.234,1.284-2.144,2.532-2.052c0.839,0.056,1.679,0.374,2.299,0.896         c1.199,1.016,1.806,2.595,1.954,4.161c0.155,1.566-0.092,3.138-0.346,4.69c1.27,2.398,1.989,5.367,2.525,8.026         c0.557-2.215,0.945-4.436,1.502-6.651c0.141-0.085,0.078-0.254,0.212-0.346c-1.135-2.059-0.289-2.003-2.567-6.559         c-3.83-7.673-8.026-15.037-11.327-24.777c-0.261-0.755-0.331-2.017-0.127-2.793c0.769-2.899,3.731-2.44,5.113-0.875         c0.374,0.409,0.656,0.882,0.889,1.382c1.58,3.442,4.817,8.696,7.102,11.715l7.885,10.438c0,0,2.356-2.208,2.68-3.153         l0.007-0.007c0.31-0.945,0-8.365,0-8.365s-0.473,1.425-1.735,1.425c-0.91,0-2.715,0.649-4.126-0.741         c-1.15-1.128-1.27-2.941-0.402-4.295l2.948-4.591c0,0,2.052-2.052,5.05-0.952c2.997,1.107,5.995,3.632,5.995,3.632         s2.687-0.317,5.05,0.628c2.37,0.952,4.986,3.964,4.986,3.964s2.687-0.014,3.95,0.776c0.317,0.197,4.824,6.284,3.682,11.334         c-0.677,3.012-0.931,7.335-1.248,8.513l-0.078,29.135l5.466,19.318"/>
						</g>
						<g>
							<g>
								<g>
									<path fill="none" stroke="#253137" stroke-miterlimit="10" d="M213.718,171.811c1.164,4.297,1.77,8.745,1.798,13.196           c0.005,0.745-0.004,1.507,0.235,2.213c0.239,0.706,0.781,1.359,1.512,1.506"/>
									<path fill="none" stroke="#253137" stroke-miterlimit="10" d="M223.04,176.141c1.957,4.127-0.046,13.344,0.102,13.993           c0.148,0.649,0.518,1.28,1.111,1.583"/>
									<g>
										<path fill="none" stroke="#253137" stroke-miterlimit="10" d="M206.047,171.246c-0.23,1.312-0.423,2.833-0.653,4.144            c-1.532-1.304-2.507-3.241-2.642-5.248"/>
										<path fill="none" stroke="#253137" stroke-miterlimit="10" d="M193.42,206.414c-0.474,0.209-0.948,0.418-1.423,0.626"/>
										<path fill="none" stroke="#253137" stroke-miterlimit="10" d="M193.784,207.556c-0.232,1.095-0.237,2.237-0.015,3.334"/>
										<path fill="none" stroke="#253137" stroke-miterlimit="10" d="M202.113,195.238c0.526,0.947,1.052,1.894,1.578,2.841"/>
										<path fill="none" stroke="#253137" stroke-miterlimit="10" d="M205.142,184.843c0.523-0.739,1.046-1.477,1.569-2.216"/>
										<path fill="none" stroke="#253137" stroke-miterlimit="10" d="M227.207,195.238c-0.158,0.579-0.316,1.157-0.473,1.736"/>
										<path fill="none" stroke="#253137" stroke-miterlimit="10" d="M223.37,190.488c0.462-1.476,0.925-2.953,1.388-4.429"/>
										<path fill="none" stroke="#253137" stroke-miterlimit="10" d="M228.009,182.633c0.814-0.472,1.996-0.104,2.399,0.746"/>
										<path fill="none" stroke="#253137" stroke-miterlimit="10" d="M218.536,175.067c1.089-0.317,2.333-0.033,3.176,0.726"/>
										<path fill="none" stroke="#253137" stroke-miterlimit="10" d="M189.179,179.463c1.012-1.125,2.587-1.718,4.09-1.54"/>
									</g>
								</g>
								<path fill="none" stroke="#253137" stroke-miterlimit="10" d="M183.233,167.03c0.942-0.689,2.169-0.977,3.319-0.777"/>
								<path fill="none" stroke="#253137" stroke-miterlimit="10" d="M184.456,196.525c-0.763,0.605-1.421,1.344-1.932,2.173"/>
							</g>
							<path fill="none" stroke="#253137" stroke-miterlimit="10" d="M185.089,193.532c1.042-0.745,2.702,0.921,3.66,0.071         c0.382-0.339,0.41-0.925,0.322-1.428c-0.088-0.503-0.265-1.006-0.19-1.51"/>
						</g>
					</g>
				</g>
				<path fill="none" stroke="#253137" stroke-miterlimit="10" d="M214.479,188.961c1.266,2.599,1.529,5.671,0.723,8.448"/>
				<path fill="none" stroke="#253137" stroke-miterlimit="10" d="M222.135,193.026c0.208,1.235-0.03,2.541-0.661,3.623"/>
			</g>
		</g>
		<path opacity="0.2" fill="#010002" d="M158.408,202.92c0.059,0.455,0.04,0.923-0.059,1.371c-0.428,1.984-1.668,7.764-2.122,10.928    c-0.54,3.862-6.782,15.819-6.782,15.819s-5.747,7.145-8.674,10.862c-1.437,1.826-3.711,9.214-5.642,16.254    c-2.439-0.738-4.851-1.536-7.25-2.386c-1.984-0.705-3.968-1.45-5.925-2.221c-2.755-1.088-6.268-2.814-10.302-5.022    c1.094-3.974,1.826-7.033,1.813-7.211c-0.033-0.415,2.346-4.996,2.346-4.996l-2.076-27.314l-1.226-4.159    c-0.639-2.149-1.041-4.363-1.206-6.578c-0.257-3.381,0.026-6.789,0.85-10.104l3.579-5.312l1.674-0.125l5.181-7.237    c0,0,2.801-0.844,3.52,1.266c0.718,2.116-2.333,6.051-2.333,6.051l-1.048,6.505l2.491,6.09l1.292,0.475    c0,0,0.435-10.724,0.138-12.866l2.755-9.788c0,0,1.641-3.269,2.149-4.917c0.501-1.641,3.447-3.269,5.141-0.389    c0,0,0.943,1.463,0.264,3.474c-0.692,2.01-1.265,3.592-1.265,3.592s-0.626,8.292-0.824,8.522    c-0.198,0.218,1.219,12.345,1.219,12.345l1.081,0.481l0.382-11.567l2.248-10.869c0,0-0.185-5.227,3.5-4.594    c0,0,1.727-0.198,2.709,1.687c0.982,1.878,0.046,14.388,0.046,14.388l0.91,12.932l1.457,9.972l1.714-6.835    c0,0,0.099-9.794,6.281-10.631c0,0,1.839-0.33,2.215,0.949c0.376,1.272-0.916,3.889-0.732,6.393    C158.033,199.914,158.283,201.898,158.408,202.92z"/>
		<g>
			<g>
				<defs>
					<path id="XMLID_1_" d="M156.53,190.812c-0.282-1.305-2.137-1.114-2.137-1.114c-6.228,0.367-7.067,10.128-7.067,10.128       l-2.229,6.686l-0.698-10.057l0.07-12.963c0,0,1.883-12.406,1.044-14.352c-0.832-1.954-2.574-1.883-2.574-1.883       c-3.625-0.91-3.837,4.316-3.837,4.316l-3.061,10.664l-1.255,11.503l-1.044-0.557c0,0-0.494-12.201-0.282-12.406       c0.212-0.212,1.467-8.435,1.467-8.435s0.691-1.53,1.53-3.484c0.832-1.954,0-3.484,0-3.484c-1.467-2.997-4.528-1.601-5.156,0       c-0.628,1.601-2.511,4.739-2.511,4.739l-3.491,9.549c0.134,2.158-1.107,12.822-1.107,12.822l-1.255-0.571l-2.024-6.263       l1.538-6.411c0,0,3.343-3.689,2.786-5.854c-0.557-2.158-3.414-1.53-3.414-1.53l-5.713,6.827h-1.679l-3.971,5.022       c-1.072,3.244-1.615,6.623-1.615,10.015c0,2.222,0.233,4.457,0.705,6.651l0.91,4.239v27.393c0,0-2.715,4.387-2.715,4.803       c0,0.19-1.121,3.653-2.687,7.97c6.834,4.02,12.723,7.13,16.892,8.774c1.961,0.776,3.942,1.516,5.931,2.222       c2.504-7.032,5.431-14.557,7.046-16.313c3.202-3.484,9.472-10.177,9.472-10.177s7.13-11.447,7.963-15.255       c0.691-3.124,2.363-8.795,2.941-10.741c0.134-0.437,0.19-0.903,0.162-1.361c-0.049-1.03-0.148-3.026-0.148-4.789       C155.317,194.621,156.805,192.11,156.53,190.812z"/>
				</defs>
				<use xlink:href="#XMLID_1_" overflow="visible" fill="#FFFFFF"/>
				<clipPath id="XMLID_7_">
					<use xlink:href="#XMLID_1_" overflow="visible"/>
				</clipPath>
				<path clip-path="url(#XMLID_7_)" fill="#8AB996" d="M113.757,188.055c1.064-1.327,3.253-1.837,4.491-0.67      c0.71,0.669,0.949,1.687,1.129,2.645c0.18,0.959,0.359,1.975,0.994,2.715c0.636,0.74,1.905,1.03,2.574,0.32      c0.089,1.443,0.177,2.887,0.266,4.33c1.54-2.673,2.334-5.771,2.27-8.856c-0.031-1.499-0.257-3.023,0.09-4.481      s1.48-2.878,2.977-2.946c1.661-0.076,2.974,1.542,3.294,3.174c0.319,1.632-0.055,3.308-0.156,4.968      c-0.155,2.531,0.341,5.099,1.427,7.391c0.349-0.707,0.698-1.413,1.047-2.12c0.314,1.418,0.629,2.836,0.943,4.254      c0.272-3.121,0.545-6.242,0.817-9.363c0.077-0.882,0.161-1.79,0.572-2.574c0.411-0.784,1.236-1.42,2.116-1.332      c1.187,0.118,1.87,1.385,2.268,2.51c2.969,8.398,1.746,17.625,0.487,26.443c0.826,0.147,1.519-0.682,1.725-1.495      c0.206-0.813,0.133-1.691,0.441-2.471c0.308-0.78,1.263-1.423,1.973-0.976c1.038,0.654,0.313,2.679,1.405,3.239      c0.338-2.608,1.379-5.122,2.984-7.206c0.731-0.949,1.829-1.89,2.988-1.589c0.865,0.224,1.43,1.109,1.557,1.994      c0.127,0.885,1.404-2.769,1.184-1.903c0.499-5.084-0.5-5.62-0.001-10.704c0.09-0.918,1.574-2.509,0.943-3.182      c-0.6-0.639-2.393-1.576-3.189-1.208c-0.796,0.368-3.387,1.657-3.901,2.367c-3.238,4.472-3.018,10.948-4.025,16.376      c-0.86-8.279-1.715-16.694-0.197-24.877c0.837-4.514,2.38-9.216,0.922-13.569c-0.665-1.987-2.431-3.975-4.492-3.597      c-1.663,0.305-2.669,1.981-3.345,3.531c-2.269,5.208-3.278,10.862-4.268,16.456c1.238-5.629,2.477-11.259,3.716-16.888      c0.322-1.463,0.645-2.972,0.379-4.447c-0.266-1.474-1.273-2.92-2.739-3.228c-1.454-0.306-2.899,0.555-3.996,1.558      c-3.918,3.584-5.376,9.052-6.653,14.206c0.448-1.346,0.902-2.742,0.764-4.154c-0.138-1.412-1.037-2.854-2.423-3.158      c-1.794-0.394-3.425,1.209-4.213,2.868c-0.788,1.659-1.177,3.568-2.433,4.909c-0.916-1.031-2.637-0.971-3.787-0.209      c-1.15,0.761-1.844,2.036-2.405,3.296c-2.062,4.625-2.947,9.77-2.549,14.818c0.909-2.027,3.206-3.334,5.413-3.081      c-0.131-1.123-0.262-2.246-0.393-3.369"/>
				<g clip-path="url(#XMLID_7_)">
					<g>
						<path fill="#8AB996" d="M118.095,198.779c-0.056,0.832-0.111,1.664-0.167,2.496c0.255-0.693,1.272-0.951,1.826-0.463        c-0.123-0.529,0.206-1.041,0.415-1.542c0.209-0.501,0.231-1.212-0.257-1.451c-0.579-0.283-1.153,0.382-1.458,0.951        c-0.026-0.206-0.051-0.413-0.077-0.619L118.095,198.779z"/>
					</g>
					<g>
						<path fill="#8AB996" d="M127.551,197.288c-0.68,0.777-1.145,1.74-1.33,2.755c0.287-0.281,0.586-0.57,0.963-0.707        c0.377-0.137,0.857-0.078,1.096,0.244c0.149,0.201,0.202,0.49,0.424,0.605c0.223,0.116,0.511-0.024,0.644-0.237        c0.133-0.213,0.153-0.476,0.168-0.727c0.03-0.48,0.058-0.972-0.08-1.432c-0.139-0.46-0.482-0.89-0.952-0.992        c-0.47-0.101-1.027,0.244-1.031,0.724L127.551,197.288z"/>
					</g>
					<g>
						<path fill="#8AB996" d="M136.703,199.56c-0.722,0.971-1.201,2.121-1.381,3.318c0.485-0.07,0.893-0.388,1.28-0.688        s0.81-0.605,1.299-0.643c0.489-0.038,1.04,0.315,1.025,0.805c-0.093-0.553-0.005-1.118,0.054-1.675s0.085-1.14-0.123-1.66        c-0.208-0.521-0.71-0.962-1.27-0.932c-0.56,0.03-1.041,0.684-0.779,1.18L136.703,199.56z"/>
					</g>
					<g>
						<path fill="#8AB996" d="M111.519,202.866c-0.507,0.949-0.773,2.025-0.768,3.101c0.006-0.495,0.473-0.896,0.964-0.966        c0.49-0.07,0.983,0.12,1.408,0.375c0.098-0.499,0.196-1.013,0.092-1.511c-0.104-0.497-0.465-0.977-0.967-1.058        c-0.502-0.081-1.057,0.403-0.919,0.892c-0.052-0.127-0.104-0.253-0.156-0.38L111.519,202.866z"/>
					</g>
				</g>
				<path id="XMLID_3_" opacity="0.5" clip-path="url(#XMLID_7_)" fill="#FFFFFF" d="M113.757,188.055      c1.064-1.327,3.253-1.837,4.491-0.67c0.71,0.669,0.949,1.687,1.129,2.645c0.18,0.959,0.359,1.975,0.994,2.715      c0.636,0.74,1.905,1.03,2.574,0.32c0.089,1.443,0.177,2.887,0.266,4.33c1.54-2.673,2.334-5.771,2.27-8.856      c-0.031-1.499-0.257-3.023,0.09-4.481s1.48-2.878,2.977-2.946c1.661-0.076,2.974,1.542,3.294,3.174      c0.319,1.632-0.055,3.308-0.156,4.968c-0.155,2.531,0.341,5.099,1.427,7.391c0.349-0.707,0.698-1.413,1.047-2.12      c0.314,1.418,0.629,2.836,0.943,4.254c0.272-3.121,0.545-6.242,0.817-9.363c0.077-0.882,0.161-1.79,0.572-2.574      c0.411-0.784,1.236-1.42,2.116-1.332c1.187,0.118,1.87,1.385,2.268,2.51c2.969,8.398,1.746,17.625,0.487,26.443      c0.826,0.147,1.519-0.682,1.725-1.495c0.206-0.813,0.133-1.691,0.441-2.471c0.308-0.78,1.263-1.423,1.973-0.976      c1.038,0.654,0.313,2.679,1.405,3.239c0.338-2.608,1.379-5.122,2.984-7.206c0.731-0.949,1.829-1.89,2.988-1.589      c0.865,0.224,1.43,1.109,1.557,1.994c0.127,0.885,1.404-2.769,1.184-1.903c0.499-5.084-0.5-5.62-0.001-10.704      c0.09-0.918,1.574-2.509,0.943-3.182c-0.6-0.639-2.393-1.576-3.189-1.208c-0.796,0.368-3.387,1.657-3.901,2.367      c-3.238,4.472-3.018,10.948-4.025,16.376c-0.86-8.279-1.715-16.694-0.197-24.877c0.837-4.514,2.38-9.216,0.922-13.569      c-0.665-1.987-2.431-3.975-4.492-3.597c-1.663,0.305-2.669,1.981-3.345,3.531c-2.269,5.208-3.278,10.862-4.268,16.456      c1.238-5.629,2.477-11.259,3.716-16.888c0.322-1.463,0.645-2.972,0.379-4.447c-0.266-1.474-1.273-2.92-2.739-3.228      c-1.454-0.306-2.899,0.555-3.996,1.558c-3.918,3.584-5.376,9.052-6.653,14.206c0.448-1.346,0.902-2.742,0.764-4.154      c-0.138-1.412-1.037-2.854-2.423-3.158c-1.794-0.394-3.425,1.209-4.213,2.868c-0.788,1.659-1.177,3.568-2.433,4.909      c-0.916-1.031-2.637-0.971-3.787-0.209c-1.15,0.761-1.844,2.036-2.405,3.296c-2.062,4.625-2.947,9.77-2.549,14.818      c0.909-2.027,3.206-3.334,5.413-3.081c-0.131-1.123-0.262-2.246-0.393-3.369"/>
				<g opacity="0.5" clip-path="url(#XMLID_7_)">
					<g>
						<path fill="#FFFFFF" d="M118.095,198.779c-0.056,0.832-0.111,1.664-0.167,2.496c0.255-0.693,1.272-0.951,1.826-0.463        c-0.123-0.529,0.206-1.041,0.415-1.542c0.209-0.501,0.231-1.212-0.257-1.451c-0.579-0.283-1.153,0.382-1.458,0.951        c-0.026-0.206-0.051-0.413-0.077-0.619L118.095,198.779z"/>
					</g>
					<g>
						<path fill="#FFFFFF" d="M127.551,197.288c-0.68,0.777-1.145,1.74-1.33,2.755c0.287-0.281,0.586-0.57,0.963-0.707        c0.377-0.137,0.857-0.078,1.096,0.244c0.149,0.201,0.202,0.49,0.424,0.605c0.223,0.116,0.511-0.024,0.644-0.237        c0.133-0.213,0.153-0.476,0.168-0.727c0.03-0.48,0.058-0.972-0.08-1.432c-0.139-0.46-0.482-0.89-0.952-0.992        c-0.47-0.101-1.027,0.244-1.031,0.724L127.551,197.288z"/>
					</g>
					<g>
						<path fill="#FFFFFF" d="M136.703,199.56c-0.722,0.971-1.201,2.121-1.381,3.318c0.485-0.07,0.893-0.388,1.28-0.688        s0.81-0.605,1.299-0.643c0.489-0.038,1.04,0.315,1.025,0.805c-0.093-0.553-0.005-1.118,0.054-1.675s0.085-1.14-0.123-1.66        c-0.208-0.521-0.71-0.962-1.27-0.932c-0.56,0.03-1.041,0.684-0.779,1.18L136.703,199.56z"/>
					</g>
					<g>
						<path fill="#FFFFFF" d="M111.519,202.866c-0.507,0.949-0.773,2.025-0.768,3.101c0.006-0.495,0.473-0.896,0.964-0.966        c0.49-0.07,0.983,0.12,1.408,0.375c0.098-0.499,0.196-1.013,0.092-1.511c-0.104-0.497-0.465-0.977-0.967-1.058        c-0.502-0.081-1.057,0.403-0.919,0.892c-0.052-0.127-0.104-0.253-0.156-0.38L111.519,202.866z"/>
					</g>
				</g>
			</g>
			<g>
				<path fill="none" stroke="#253137" stroke-miterlimit="10" d="M105.058,244.773c1.566-4.316,2.687-7.779,2.687-7.97      c0-0.416,2.715-4.803,2.715-4.803v-27.393l-0.91-4.239c-0.473-2.193-0.705-4.429-0.705-6.651c0-3.392,0.543-6.771,1.615-10.015      l3.971-5.022h1.679l5.713-6.827c0,0,2.856-0.628,3.414,1.53c0.557,2.165-2.786,5.854-2.786,5.854l-1.538,6.411l2.024,6.263      l1.255,0.571c0,0,1.241-10.664,1.107-12.822l3.491-9.549c0,0,1.883-3.139,2.511-4.739c0.628-1.601,3.689-2.997,5.156,0      c0,0,0.832,1.53,0,3.484c-0.839,1.954-1.53,3.484-1.53,3.484s-1.255,8.224-1.467,8.435c-0.212,0.205,0.282,12.406,0.282,12.406      l1.044,0.557l1.255-11.503l3.061-10.664c0,0,0.212-5.226,3.837-4.316c0,0,1.742-0.071,2.574,1.883      c0.839,1.947-1.044,14.352-1.044,14.352l-0.071,12.963l0.698,10.057l2.229-6.686c0,0,0.839-9.761,7.067-10.128      c0,0,1.855-0.19,2.137,1.114c0.275,1.298-1.213,3.809-1.213,6.319c0,1.763,0.099,3.759,0.148,4.789      c0.028,0.458-0.028,0.924-0.162,1.361c-0.578,1.947-2.25,7.617-2.941,10.741c-0.832,3.808-7.963,15.255-7.963,15.255      s-6.27,6.693-9.472,10.177c-1.615,1.756-4.542,9.281-7.046,16.313"/>
			</g>
			<path fill="#FFFFFF" stroke="#253137" stroke-miterlimit="10" d="M124.078,193.516c0.364,1.299-0.005,2.778-0.937,3.754"/>
			<path fill="#FFFFFF" stroke="#253137" stroke-miterlimit="10" d="M113.449,202.731c0.907-1.402,1.788-3.328,1.544-4.98     c-0.476-3.235-1.95-6.959-1.287-10.161c0.424-2.046,0.848-4.091,1.272-6.137"/>
			<path fill="none" stroke="#253137" stroke-miterlimit="10" d="M139.728,172.161c1.072-0.282,2.217-0.278,3.287,0.009     c0.013-0.306,0.025-0.612,0.038-0.917"/>
			<path fill="none" stroke="#253137" stroke-miterlimit="10" d="M131.074,168.043c0.631,0.453,1.521,0.514,2.208,0.151     c0.687-0.363,1.138-1.133,1.119-1.91"/>
			<path fill="none" stroke="#253137" stroke-miterlimit="10" d="M154.895,190.924c-1.829,0.417-3.198,2.307-3.025,4.175     c0.539,0.161,1.077,0.321,1.616,0.482"/>
			<path fill="#FFFFFF" stroke="#253137" stroke-miterlimit="10" d="M133.683,191.729c0.073,1.105-0.062,3.75,0.012,4.855"/>
			<path fill="#FFFFFF" stroke="#253137" stroke-miterlimit="10" d="M134.898,193.261c-0.133,1.811-0.267,3.623-0.4,5.434     c0.011-0.23,0.022-0.461,0.032-0.691"/>
			<path fill="#FFFFFF" stroke="#253137" stroke-miterlimit="10" d="M144.953,208.536c0.483,1.982,0.262,4.129-0.616,5.971"/>
			<path fill="none" stroke="#253137" stroke-miterlimit="10" d="M128.246,199.038c-1.437,1.576-1.226,5.355-0.211,7.434"/>
			<path fill="none" stroke="#253137" stroke-miterlimit="10" d="M138.865,201.639c0.036,1.701-0.585,3.407-1.759,4.834"/>
			<path fill="none" stroke="#253137" stroke-miterlimit="10" d="M117.78,199.792c-0.238,1.582,0.118,3.247,0.983,4.594"/>
			<path fill="none" stroke="#253137" stroke-miterlimit="10" d="M111.666,204.712c-0.07,1.243,0.294,2.506,1.015,3.52"/>
			<path fill="none" stroke="#253137" stroke-miterlimit="10" d="M120.046,174.325c0.746-0.361,1.71-0.206,2.306,0.37     c0.272-0.358,0.543-0.717,0.815-1.075"/>
			<path fill="none" stroke="#253137" stroke-miterlimit="10" d="M126.809,179.163c1.09-0.693,2.685-0.422,3.485,0.592"/>
			<path fill="none" stroke="#253137" stroke-miterlimit="10" d="M137.372,182.46c1.176-0.532,2.593-0.503,3.746,0.079"/>
			<path fill="none" stroke="#253137" stroke-miterlimit="10" d="M113.869,187.99c0.682-1.179,2.103-1.884,3.454-1.714"/>
			<path fill="none" stroke="#253137" stroke-miterlimit="10" d="M109.449,194.295c0.018-0.852,0.718-1.639,1.563-1.754"/>
		</g>
	</g>
	<g>
		
			<circle fill="none" stroke="#253137" stroke-linecap="round" stroke-linejoin="round" stroke-miterlimit="10" cx="279.28" cy="119.61" r="27.318"/>
		<g>
			<g>
				<g>
					<path opacity="0.2" fill="#010002" d="M310.209,120.325c-5.825,9.554-7.896,8.263-27.765,17.781       c-10.086,4.832-19.834-10.702-13.24-26.645c0.322-0.778,3.171-4.712,3.171-4.712c1.2-5.273,5.576-9.689,10.842-10.928       c5.26-1.246,11.152,0.738,14.586,4.917c3.731-3.302,9.142-4.528,13.96-3.335c0.231,0.672,0.448,1.331,0.659,1.977       c0.079,0.25,0.165,0.494,0.237,0.745c0.25,0.771,0.488,1.542,0.705,2.32c0.435,1.476,0.837,2.959,1.213,4.456       c-2.195-0.613-4.403-0.626-6.486,0.389c-1.457,0.712-2.676,1.885-4.192,2.465c-1.516,0.573-3.612,0.25-4.192-1.265       c0.732,3.045,3.927,2.135,6.996,2.737C311.457,112.159,312.66,116.304,310.209,120.325z"/>
				</g>
				<g>
					<path fill="#FFFFFF" stroke="#253137" stroke-linecap="round" stroke-linejoin="round" stroke-miterlimit="10" d="       M301.235,115.616c0,0,4.89-0.663,7.214-0.315c1.475,0.221,2.38,1.079,2.813,1.614c0.201,0.248,0.316,0.553,0.337,0.872       l0.262,3.822c0.03,0.436-0.118,0.869-0.421,1.185c-0.953,0.993-3.835,2.805-12.361,3.457       C287.089,127.167,301.235,115.616,301.235,115.616z"/>
					<g>
						<path fill="#FFFFFF" stroke="#253137" stroke-linecap="round" stroke-linejoin="round" stroke-miterlimit="10" d="        M297.662,105.736c1.376,1.711,4.003,5.594,4.003,11.62c0,4.555-5.275,20.11-18.78,22.004        c-14.295,2.004-25.788-10.231-23.333-24.953C261.249,104.224,286.186,91.473,297.662,105.736z"/>
						<ellipse fill="#FFFFFF" cx="280.195" cy="116.329" rx="20.742" ry="19.633"/>
						<ellipse fill="#253137" cx="280.152" cy="117.356" rx="17.028" ry="16.117"/>
						<path fill="none" stroke="#253137" stroke-linecap="round" stroke-linejoin="round" stroke-miterlimit="10" d="        M300.937,116.329c0-10.843-9.287-19.633-20.742-19.633c-11.456,0-20.742,8.79-20.742,19.633"/>
						<path fill="none" stroke="#253137" stroke-linecap="round" stroke-linejoin="round" stroke-miterlimit="10" d="        M295.464,129.617c3.398-3.496,5.473-8.163,5.473-13.288"/>
						<path fill="none" stroke="#253137" stroke-linecap="round" stroke-linejoin="round" stroke-miterlimit="10" d="        M265.665,130.339c3.742,3.477,8.872,5.622,14.53,5.622c3.475,0,6.75-0.809,9.627-2.238"/>
						<path fill="none" stroke="#253137" stroke-linecap="round" stroke-linejoin="round" stroke-miterlimit="10" d="        M262.673,126.839c0.272,0.405,0.559,0.8,0.86,1.184"/>
						<path fill="none" stroke="#253137" stroke-linecap="round" stroke-linejoin="round" stroke-miterlimit="10" d="        M259.453,116.329c0,2.996,0.709,5.835,1.977,8.376"/>
					</g>
					<path fill="#FFFFFF" stroke="#253137" stroke-linecap="round" stroke-linejoin="round" stroke-miterlimit="10" d="       M310.635,121.701c0,0-3.698-2.585-9.698-0.241"/>
					<path fill="#FFFFFF" stroke="#253137" stroke-linecap="round" stroke-linejoin="round" stroke-miterlimit="10" d="       M307.451,123.499c-1.414,0.419-3.788,0.904-7.671,1.205"/>
					<path fill="#FFFFFF" stroke="#253137" stroke-linecap="round" stroke-linejoin="round" stroke-miterlimit="10" d="       M309.373,122.682c0,0-0.223,0.197-0.925,0.476"/>
				</g>
			</g>
			<g>
				<g>
					<path fill="#FFFFFF" d="M312.66,100.125c-0.073-0.25-0.158-0.494-0.237-0.745c-1.259-3.902-2.88-8.186-4.851-12.708       c-0.362-0.837-0.745-1.687-1.127-2.544c-0.152,0.013-0.297,0.026-0.442,0.04c-1.892,0.191-3.882,0.428-5.438,1.503       c-1.562,1.094-2.485,3.342-1.476,4.957c0.989,1.602,3.579,2.491,3.17,4.317c-4.225,2.379-9.379,2.103-14.079,3.302       c-2.828,0.718-5.504,1.991-7.85,3.704c-0.007,0-0.007,0.007-0.013,0.007c-0.745,0.56-1.463,1.153-2.135,1.793       c-0.297,0.283-0.606,0.593-0.87,0.936c-0.007,0.007-0.007,0.007-0.007,0.013c-0.389,0.494-0.685,1.048-0.745,1.674       c-0.165,1.76,1.437,2.959,3.144,3.724c0.316,0.145,0.297,0.6-0.026,0.712c-1.114,0.448-2.201,0.969-3.078,1.78       c-0.007,0-0.013,0.007-0.02,0.013c-0.54,0.488-0.099,1.404,0.639,1.305c0.079-0.013,0.178-0.02,0.264-0.026       c0.725-0.053,1.404,0.033,1.991,0.237c1.008,0.356,1.714,1.041,1.786,1.885c0.105,1.338-1.417,2.544-3.394,2.696       c-0.481,0.046-0.112,0.62,0.593,0.738c1.404,0.25,2.834-0.02,4.218-0.343c1.654-0.395,3.421-0.969,4.357-2.386       c0.395-0.6,0.514-1.384,0.395-2.096c-0.165-0.975-0.778-1.826-1.753-1.925c3.058-0.363,6.09-0.969,9.043-1.813h0.007       l0.929-0.283c0.883-0.264,1.813-0.587,2.551-1.114c0.461-0.33,0.844-0.718,1.114-1.226c0.685-1.325-0.283-3.421-1.747-3.144       c4.251-1.668,8.746-2.643,13.044-4.179C311.302,100.678,311.988,100.415,312.66,100.125z"/>
				</g>
			</g>
		</g>
	</g>
	<g>
		<path opacity="0.2" fill="#010002" d="M280.074,43.111c-3.981,3.539-8.529,6.545-13.116,9.254    c-23.998,14.197-51.108,22.7-78.685,26.846c-27.571,4.146-55.655,4.021-83.444,1.733c-5.457-0.448-11.007-1.002-16.023-3.203    c-4.251-1.872-8.107-5.128-9.913-9.34c6.018-6.855,11.614-13.789,17.842-20.334c1.483-1.562,2.999-3.098,4.561-4.607    c1.318-1.259,2.656-2.498,4.047-3.711c1.588-1.397,3.223-2.762,4.937-4.08c2.34-1.819,4.805-3.566,7.441-5.233    c0.646-0.415,1.285-0.817,1.931-1.213c65.72-40.845,114.092-27.511,146.362,0c2.432,2.063,4.779,4.218,7.026,6.446    c1.371,1.325,2.696,2.696,3.981,4.08c0.145,0.145,0.277,0.297,0.415,0.455C278.34,41.167,279.217,42.136,280.074,43.111z"/>
		<path fill="#FFFFFF" stroke="#253137" stroke-linecap="round" stroke-linejoin="round" stroke-miterlimit="10" d="M282.668,36.557    l-221.11,1.009l3.344-5.011c1.608-2.41,4.314-3.857,7.211-3.857H272.19c2.624,0,5.107,1.189,6.753,3.233L282.668,36.557z"/>
		<g>
			<g>
				<path fill="#635E5E" stroke="#253137" stroke-linecap="round" stroke-linejoin="round" stroke-miterlimit="10" d="      M175.967,126.838h-12.115c-12.432,0-22.51-10.078-22.51-22.51V92.213c0-12.432,10.078-22.51,22.51-22.51h12.115      c12.432,0,22.51,10.078,22.51,22.51v12.115C198.477,116.76,188.399,126.838,175.967,126.838z"/>
				<path fill="#857E7E" stroke="#253137" stroke-linecap="round" stroke-linejoin="round" stroke-miterlimit="10" d="      M151.727,103.095v8.122c0,2.549,2.066,4.615,4.615,4.615H184.2c2.536,0,4.59-2.047,4.614-4.582      c0.035-3.654,0.23-8.155,0.23-8.155H151.727z"/>
				<g>
					<g>
						<path fill="#AFA9AB" stroke="#253137" stroke-linecap="round" stroke-linejoin="round" stroke-miterlimit="10" d="        M253.694,105.809H90.758c-1.72,0-3.265-1.056-3.889-2.659l-25.132-64.5c-0.657-1.687,0.587-3.508,2.398-3.508h216.183        c1.811,0,3.056,1.821,2.398,3.508l-25.132,64.5C256.958,104.754,255.414,105.809,253.694,105.809z"/>
						<polygon fill="#253137" points="254.903,100.187 89.157,100.187 66.349,39.229 277.603,39.229       "/>
					</g>
				</g>
			</g>
			<rect x="151.905" y="105.721" fill="#253137" width="36.951" height="2.529"/>
			<g>
				<g>
					<path fill="#8AB996" d="M230.691,97.57H113.649c-0.643,0-1.256-0.292-1.37-0.654L95.631,44.024       c-0.187-0.593,0.333-1.076,1.161-1.076h150.756c0.828,0,1.348,0.483,1.161,1.076l-16.648,52.892       C231.947,97.278,231.334,97.57,230.691,97.57z"/>
					<polygon fill="#253137" points="230.259,96.371 114.08,96.371 99.933,49.896 244.407,49.896      "/>
					<g>
						<path fill="#FFFFFF" d="M130.756,61.434h-21.994c-0.543,0-0.9,0.293-0.797,0.653c0.102,0.359,0.623,0.65,1.163,0.65h21.867        c0.54,0,0.926-0.29,0.861-0.65C131.791,61.727,131.299,61.434,130.756,61.434z"/>
						<path fill="#FFFFFF" d="M131.492,65.45h-18.706c-0.533,0-0.889,0.283-0.794,0.63c0.094,0.346,0.601,0.627,1.131,0.627h18.599        c0.53,0,0.91-0.28,0.848-0.627C132.509,65.732,132.026,65.45,131.492,65.45z"/>
						<path opacity="0.5" fill="#FFFFFF" d="M132.203,69.325h-21.226c-0.524,0-0.871,0.273-0.775,0.608        c0.095,0.335,0.595,0.605,1.116,0.605h21.107c0.521,0,0.895-0.271,0.835-0.605C133.201,69.598,132.727,69.325,132.203,69.325z        "/>
						<path fill="#FFFFFF" d="M132.89,73.067h-12.467c-0.515,0-0.868,0.264-0.788,0.588c0.08,0.323,0.559,0.585,1.071,0.585h12.399        c0.512,0,0.881-0.261,0.823-0.585C133.869,73.331,133.405,73.067,132.89,73.067z"/>
						<path fill="#FFFFFF" d="M133.553,76.683h-20.509c-0.506,0-0.844,0.255-0.755,0.568c0.089,0.312,0.569,0.565,1.073,0.565        h20.398c0.504,0,0.867-0.253,0.811-0.565C134.515,76.938,134.059,76.683,133.553,76.683z"/>
						<path fill="#FFFFFF" d="M134.194,80.178h-16.561c-0.498,0-0.836,0.246-0.755,0.549c0.081,0.302,0.548,0.547,1.043,0.547        h16.474c0.495,0,0.853-0.244,0.799-0.547C135.14,80.425,134.692,80.178,134.194,80.178z"/>
						<path fill="#FFFFFF" d="M134.814,83.56h-16.291c-0.49,0-0.823,0.238-0.745,0.532c0.078,0.292,0.537,0.529,1.024,0.529h16.206        c0.487,0,0.84-0.236,0.788-0.529C135.744,83.798,135.304,83.56,134.814,83.56z"/>
						<path fill="#FFFFFF" d="M135.415,86.833H117.64c-0.482,0-0.809,0.231-0.73,0.515c0.078,0.283,0.53,0.512,1.01,0.512h17.683        c0.479,0,0.827-0.229,0.777-0.512C136.329,87.063,135.897,86.833,135.415,86.833z"/>
						<path opacity="0.5" fill="#FFFFFF" d="M135.996,90.002h-11.481c-0.474,0-0.804,0.224-0.736,0.499        c0.067,0.274,0.505,0.496,0.977,0.496h11.423c0.472,0,0.815-0.222,0.766-0.496C136.895,90.225,136.47,90.002,135.996,90.002z"/>
						<path opacity="0.5" fill="#FFFFFF" d="M129.992,57.271h-16.391c-0.553,0-0.923,0.304-0.826,0.678        c0.096,0.372,0.62,0.674,1.17,0.674h16.295c0.55,0,0.942-0.301,0.875-0.674C131.048,57.575,130.545,57.271,129.992,57.271z"/>
						<path fill="#FFFFFF" d="M129.199,52.951h-22.821c-0.563,0-0.93,0.315-0.82,0.703c0.11,0.387,0.653,0.699,1.214,0.699h22.684        c0.56,0,0.958-0.312,0.889-0.699C130.276,53.266,129.763,52.951,129.199,52.951z"/>
						<path fill="#FFFFFF" d="M136.559,93.072h-18.912c-0.467,0-0.784,0.217-0.708,0.483c0.076,0.266,0.514,0.481,0.978,0.481        h18.818c0.465,0,0.803-0.215,0.755-0.481C137.444,93.289,137.026,93.072,136.559,93.072z"/>
						<polygon opacity="0.5" fill="#FFFFFF" points="138.481,62.899 142.748,62.899 142.534,61.271 138.237,61.271       "/>
						<polygon opacity="0.5" fill="#FFFFFF" points="139.077,66.863 143.268,66.863 143.062,65.292 138.841,65.292       "/>
						<polygon opacity="0.5" fill="#FFFFFF" points="139.651,70.69 143.77,70.69 143.571,69.173 139.423,69.173       "/>
						<polygon opacity="0.5" fill="#FFFFFF" points="140.206,74.385 144.254,74.385 144.062,72.92 139.986,72.92       "/>
						<polygon opacity="0.5" fill="#FFFFFF" points="140.743,77.957 144.723,77.957 144.537,76.54 140.53,76.54       "/>
						<polygon opacity="0.5" fill="#FFFFFF" points="141.262,81.411 145.176,81.411 144.996,80.041 141.056,80.041       "/>
						<polygon opacity="0.5" fill="#FFFFFF" points="141.763,84.752 145.614,84.752 145.44,83.426 141.564,83.426       "/>
						<polygon opacity="0.5" fill="#FFFFFF" points="142.249,87.987 146.039,87.987 145.87,86.703 142.057,86.703       "/>
						<polygon opacity="0.5" fill="#FFFFFF" points="142.72,91.12 146.45,91.12 146.286,89.877 142.533,89.877       "/>
						<polygon opacity="0.5" fill="#FFFFFF" points="137.864,58.79 142.209,58.79 141.987,57.101 137.61,57.101       "/>
						<polygon opacity="0.5" fill="#FFFFFF" points="137.224,54.527 141.65,54.527 141.42,52.774 136.96,52.774       "/>
						<polygon opacity="0.5" fill="#FFFFFF" points="143.176,94.156 146.848,94.156 146.69,92.951 142.995,92.951       "/>
						<path fill="#FFFFFF" d="M165.656,87.347c-0.009-0.284,0.374-0.515,0.856-0.515h63.155c0.482,0,0.805,0.231,0.723,0.515        c-0.082,0.283-0.538,0.512-1.017,0.512h-62.831C166.061,87.859,165.665,87.63,165.656,87.347z"/>
						<path fill="#FFFFFF" d="M230.301,84.62h-34.969c-0.487,0-0.856-0.236-0.824-0.529c0.032-0.293,0.456-0.532,0.945-0.532h35.152        c0.49,0,0.818,0.238,0.732,0.532C231.253,84.384,230.789,84.62,230.301,84.62z"/>
						<path opacity="0.5" fill="#FFFFFF" d="M187.033,84.62h-10.878c-0.487,0-0.879-0.236-0.874-0.529        c0.004-0.293,0.405-0.532,0.895-0.532h10.935c0.49,0,0.868,0.238,0.846,0.532C187.934,84.384,187.521,84.62,187.033,84.62z"/>
						<path fill="#FFFFFF" d="M209.736,81.274h-49.329c-0.495,0-0.912-0.244-0.931-0.547c-0.019-0.303,0.37-0.549,0.868-0.549        h49.591c0.498,0,0.856,0.246,0.799,0.549C210.678,81.03,210.231,81.274,209.736,81.274z"/>
						<path opacity="0.5" fill="#FFFFFF" d="M150.093,80.178h3.516c0.498,0,0.923,0.246,0.949,0.549        c0.026,0.302-0.355,0.547-0.85,0.547h-3.497c-0.495,0-0.924-0.244-0.958-0.547C149.219,80.425,149.595,80.178,150.093,80.178z        "/>
						<path fill="#FFFFFF" d="M216.871,77.251c-0.067,0.312-0.529,0.565-1.032,0.565h-46.484c-0.504,0-0.917-0.253-0.922-0.565        c-0.006-0.313,0.4-0.568,0.907-0.568h46.736C216.581,76.683,216.938,76.937,216.871,77.251z"/>
						<path fill="#FFFFFF" d="M149.721,76.683h13.192c0.506,0,0.927,0.255,0.939,0.568c0.012,0.312-0.386,0.565-0.89,0.565h-13.121        c-0.504,0-0.94-0.253-0.975-0.565C148.832,76.937,149.214,76.683,149.721,76.683z"/>
						<path fill="#FFFFFF" d="M149.335,73.067h50.706c0.515,0,0.897,0.264,0.854,0.588c-0.044,0.323-0.494,0.585-1.006,0.585H149.46        c-0.512,0-0.957-0.261-0.992-0.585C148.432,73.331,148.82,73.067,149.335,73.067z"/>
						<path fill="#FFFFFF" d="M182.256,70.539c-0.521,0-0.932-0.271-0.918-0.605c0.014-0.336,0.451-0.608,0.975-0.608h26.756        c0.524,0,0.902,0.273,0.843,0.608c-0.058,0.335-0.528,0.605-1.049,0.605H182.256z"/>
						<path fill="#FFFFFF" d="M148.936,69.325h23.158c0.524,0,0.948,0.273,0.946,0.608c-0.001,0.335-0.425,0.605-0.946,0.605        h-23.029c-0.521,0-0.974-0.271-1.011-0.605C148.017,69.598,148.412,69.325,148.936,69.325z"/>
						<path fill="#FFFFFF" d="M235.442,66.707h-63.737c-0.53,0-0.962-0.28-0.964-0.627c-0.002-0.348,0.428-0.63,0.962-0.63h64.1        c0.533,0,0.883,0.283,0.782,0.63C236.484,66.427,235.972,66.707,235.442,66.707z"/>
						<path fill="#FFFFFF" d="M236.581,62.737h-56.085c-0.54,0-0.968-0.29-0.956-0.65c0.012-0.36,0.462-0.653,1.005-0.653h56.411        c0.543,0,0.898,0.293,0.793,0.653C237.643,62.447,237.121,62.737,236.581,62.737z"/>
						<path opacity="0.5" fill="#FFFFFF" d="M237.762,58.622h-11.744c-0.55,0-0.926-0.301-0.84-0.674        c0.086-0.374,0.605-0.678,1.158-0.678h11.814c0.553,0,0.913,0.304,0.804,0.678C238.845,58.321,238.312,58.622,237.762,58.622z        "/>
						<path fill="#FFFFFF" d="M217.801,58.622h-43.126c-0.55,0-0.994-0.301-0.991-0.674c0.003-0.374,0.453-0.678,1.006-0.678h43.381        c0.553,0,0.939,0.304,0.863,0.678C218.858,58.321,218.351,58.622,217.801,58.622z"/>
						<path fill="#FFFFFF" d="M151.141,90.002h39.825c0.474,0,0.837,0.224,0.809,0.499c-0.027,0.274-0.432,0.496-0.904,0.496        h-39.624c-0.472,0-0.879-0.222-0.91-0.496C150.307,90.225,150.667,90.002,151.141,90.002z"/>
						<path fill="#FFFFFF" d="M151.468,93.072h61.188c0.467,0,0.799,0.217,0.743,0.483c-0.057,0.266-0.479,0.481-0.944,0.481        h-60.885c-0.465,0-0.865-0.215-0.895-0.481C150.647,93.289,151.001,93.072,151.468,93.072z"/>
						<path fill="#FFFFFF" d="M215.661,54.353h-31.15c-0.56,0-0.999-0.313-0.98-0.699c0.019-0.388,0.491-0.703,1.054-0.703h31.338        c0.563,0,0.96,0.315,0.886,0.703C216.735,54.041,216.221,54.353,215.661,54.353z"/>
						<path opacity="0.5" fill="#FFFFFF" d="M175.675,54.353h-28.335c-0.56,0-1.049-0.313-1.092-0.699        c-0.043-0.388,0.379-0.703,0.942-0.703h28.506c0.563,0,1.014,0.315,1.007,0.703C176.695,54.041,176.235,54.353,175.675,54.353        z"/>
						<path opacity="0.5" fill="#FFFFFF" d="M199.802,90.002c0.474,0,0.827,0.224,0.787,0.499c-0.04,0.274-0.454,0.496-0.926,0.496        h-3.078c-0.472,0-0.828-0.222-0.795-0.496c0.033-0.275,0.444-0.499,0.919-0.499H199.802z"/>
						<path opacity="0.5" fill="#FFFFFF" d="M162.025,87.347c0.014,0.283-0.363,0.512-0.842,0.512h-4.194        c-0.479,0-0.887-0.229-0.91-0.512c-0.023-0.284,0.349-0.515,0.831-0.515h4.215C161.608,86.833,162.011,87.063,162.025,87.347z        "/>
						<path opacity="0.5" fill="#FFFFFF" d="M212.615,73.655c-0.061,0.323-0.526,0.585-1.038,0.585h-4.902        c-0.512,0-0.886-0.261-0.835-0.585c0.051-0.324,0.51-0.588,1.025-0.588h4.929C212.309,73.067,212.677,73.331,212.615,73.655z"/>
						<path opacity="0.5" fill="#FFFFFF" d="M227.912,76.683c0.506,0,0.848,0.255,0.764,0.568c-0.084,0.312-0.56,0.565-1.064,0.565        h-3.908c-0.504,0-0.851-0.253-0.775-0.565c0.076-0.313,0.548-0.568,1.054-0.568H227.912z"/>
						<path opacity="0.5" fill="#FFFFFF" d="M163.985,66.707c-0.53,0-0.972-0.28-0.986-0.627c-0.014-0.348,0.406-0.63,0.94-0.63        h4.16c0.533,0,0.97,0.283,0.975,0.63c0.005,0.347-0.421,0.627-0.952,0.627H163.985z"/>
					</g>
				</g>
				<g>
					<path fill="#FFFFFF" d="M107.342,46.412c0.322,1.08-0.3,1.945-1.387,1.945c-1.087,0-2.247-0.865-2.595-1.945       c-0.353-1.094,0.26-1.991,1.373-1.991C105.845,44.421,107.015,45.318,107.342,46.412z"/>
					<path fill="#FFFFFF" d="M112.706,46.445c0.287,1.079-0.363,1.944-1.45,1.944s-2.219-0.865-2.532-1.944       c-0.317-1.093,0.324-1.99,1.437-1.99C111.274,44.454,112.415,45.351,112.706,46.445z"/>
					<path fill="#FFFFFF" d="M118.133,46.412c0.252,1.08-0.426,1.945-1.513,1.945s-2.191-0.865-2.469-1.945       c-0.282-1.094,0.389-1.991,1.502-1.991C116.765,44.421,117.877,45.318,118.133,46.412z"/>
				</g>
			</g>
			<g>
				<polygon opacity="0.1" fill="#FFFFFF" points="66.349,39.229 84.112,86.703 105.539,39.229     "/>
				<polygon opacity="0.1" fill="#FFFFFF" points="96.318,100.187 131.863,39.229 169.073,39.229 116.76,100.187     "/>
				<polygon opacity="0.1" fill="#FFFFFF" points="185.108,38.93 129.706,100.187 138.237,100.187 195.628,39.229     "/>
				<polygon opacity="0.1" fill="#FFFFFF" points="196.048,100.187 256.939,39.229 265.531,39.229 202.752,100.187     "/>
			</g>
		</g>
	</g>
	<g>
		<g>
			<g>
				<g>
					<path fill="#FFFFFF" stroke="#253137" stroke-linecap="round" stroke-linejoin="round" stroke-miterlimit="10" d="       M113.491,126.645H99.586c-1.805,0-3.268,1.463-3.268,3.268v6.765c0,1.805,1.463,3.269,3.268,3.269h3.634l2.754,6.242       l3.882-6.242h3.634c1.805,0,3.269-1.463,3.269-3.269v-6.765C116.76,128.109,115.296,126.645,113.491,126.645z"/>
				</g>
			</g>
			<g>
				<path fill="#253137" d="M104.606,130.515c0-0.356,0.288-0.635,0.677-0.635c0.39,0,0.677,0.262,0.677,0.61      c0,0.373-0.279,0.661-0.677,0.661C104.894,131.15,104.606,130.87,104.606,130.515z M104.75,131.895h1.059v4.522h-1.059V131.895z      "/>
				<path fill="#253137" d="M108.365,131.658v0.271h1.245v0.847h-1.211v3.641h-1.059v-3.641h-0.745v-0.847h0.745v-0.288      c0-0.948,0.567-1.567,1.618-1.567c0.364,0,0.72,0.076,0.957,0.246l-0.296,0.796c-0.161-0.11-0.364-0.186-0.584-0.186      C108.593,130.93,108.365,131.175,108.365,131.658z"/>
			</g>
		</g>
		<g>
			<g>
				<g>
					<path fill="#FFFFFF" stroke="#253137" stroke-linecap="round" stroke-linejoin="round" stroke-miterlimit="10" d="       M155.817,127.592h-13.905c-1.805,0-3.268,1.463-3.268,3.268v6.765c0,1.805,1.463,3.269,3.268,3.269h3.634l2.754,6.242       l3.882-6.242h3.634c1.805,0,3.269-1.463,3.269-3.269v-6.765C159.085,129.056,157.622,127.592,155.817,127.592z"/>
				</g>
			</g>
			<g>
				<path fill="#253137" d="M144.835,135.442h-3.548c0.127,0.66,0.677,1.084,1.465,1.084c0.508,0,0.906-0.161,1.228-0.492      l0.567,0.653c-0.406,0.482-1.041,0.736-1.821,0.736c-1.516,0-2.498-0.974-2.498-2.32c0-1.346,0.991-2.312,2.337-2.312      c1.321,0,2.286,0.923,2.286,2.337C144.851,135.213,144.843,135.341,144.835,135.442z M141.278,134.74h2.566      c-0.085-0.652-0.584-1.101-1.279-1.101C141.879,133.638,141.379,134.079,141.278,134.74z"/>
				<path fill="#253137" d="M145.865,131.081h1.059v6.283h-1.059V131.081z"/>
				<path fill="#253137" d="M147.794,136.916l0.406-0.805c0.398,0.263,1.008,0.449,1.575,0.449c0.669,0,0.948-0.186,0.948-0.499      c0-0.864-2.794-0.051-2.794-1.855c0-0.855,0.77-1.414,1.99-1.414c0.601,0,1.287,0.144,1.694,0.39l-0.407,0.804      c-0.432-0.254-0.863-0.339-1.295-0.339c-0.644,0-0.948,0.212-0.948,0.508c0,0.915,2.794,0.101,2.794,1.871      c0,0.847-0.779,1.397-2.049,1.397C148.954,137.424,148.2,137.203,147.794,136.916z"/>
				<path fill="#253137" d="M156.903,135.442h-3.548c0.127,0.66,0.677,1.084,1.465,1.084c0.508,0,0.906-0.161,1.228-0.492      l0.567,0.653c-0.406,0.482-1.041,0.736-1.821,0.736c-1.516,0-2.498-0.974-2.498-2.32c0-1.346,0.991-2.312,2.337-2.312      c1.321,0,2.286,0.923,2.286,2.337C156.92,135.213,156.912,135.341,156.903,135.442z M153.347,134.74h2.566      c-0.085-0.652-0.584-1.101-1.279-1.101C153.948,133.638,153.448,134.079,153.347,134.74z"/>
			</g>
		</g>
		<g>
			<g>
				<g>
					<path fill="#FFFFFF" stroke="#253137" stroke-linecap="round" stroke-linejoin="round" stroke-miterlimit="10" d="       M196.853,127.191h-13.905c-1.805,0-3.268,1.463-3.268,3.268v6.765c0,1.805,1.463,3.269,3.268,3.269h3.634l2.754,6.242       l3.882-6.242h3.634c1.805,0,3.269-1.463,3.269-3.269v-6.765C200.121,128.654,198.658,127.191,196.853,127.191z"/>
				</g>
			</g>
			<g>
				<path fill="#253137" d="M186.137,132.204v0.271h1.245v0.847h-1.211v3.641h-1.059v-3.641h-0.745v-0.847h0.745v-0.288      c0-0.948,0.568-1.567,1.618-1.567c0.364,0,0.72,0.076,0.957,0.246l-0.297,0.796c-0.16-0.11-0.364-0.186-0.584-0.186      C186.366,131.476,186.137,131.722,186.137,132.204z"/>
				<path fill="#253137" d="M187.652,134.702c0-1.355,1.016-2.312,2.405-2.312c1.406,0,2.414,0.957,2.414,2.312      c0,1.355-1.008,2.32-2.414,2.32C188.668,137.023,187.652,136.057,187.652,134.702z M191.403,134.702      c0-0.863-0.575-1.414-1.347-1.414c-0.762,0-1.338,0.551-1.338,1.414c0,0.864,0.575,1.414,1.338,1.414      C190.827,136.116,191.403,135.566,191.403,134.702z"/>
				<path fill="#253137" d="M196.099,132.391v1.008c-0.093-0.017-0.169-0.025-0.245-0.025c-0.805,0-1.313,0.474-1.313,1.397v2.193      h-1.058v-4.522h1.007v0.661C194.795,132.628,195.345,132.391,196.099,132.391z"/>
			</g>
		</g>
		<g>
			<g>
				<g>
					<path fill="#FFFFFF" stroke="#253137" stroke-linecap="round" stroke-linejoin="round" stroke-miterlimit="10" d="       M237.296,126.645h-13.905c-1.805,0-3.269,1.463-3.269,3.268v6.765c0,1.805,1.463,3.269,3.269,3.269h3.634l2.754,6.242       l3.882-6.242h3.634c1.805,0,3.269-1.463,3.269-3.269v-6.765C240.564,128.109,239.101,126.645,237.296,126.645z"/>
				</g>
			</g>
			<g>
				<path fill="#253137" d="M228.537,131.672h3.904v0.847h-3.904V131.672z M228.537,133.722h3.904v0.847h-3.904V133.722z"/>
			</g>
		</g>
		<g>
			<g>
				<g>
					<path fill="#FFFFFF" stroke="#253137" stroke-linecap="round" stroke-linejoin="round" stroke-miterlimit="10" d="       M134.686,118.816h-13.905c-1.805,0-3.268,1.463-3.268,3.268v6.765c0,1.805,1.463,3.269,3.268,3.269h3.634l2.754,6.242       l3.882-6.242h3.634c1.805,0,3.269-1.463,3.269-3.269v-6.765C137.954,120.279,136.491,118.816,134.686,118.816z"/>
				</g>
			</g>
			<g>
				<path fill="#253137" d="M124.462,121.627h2.024v0.847h-0.966v6.233h0.966v0.847h-2.024V121.627z"/>
				<path fill="#253137" d="M129.108,129.554v-0.847h0.957v-6.233h-0.957v-0.847h2.016v7.926H129.108z"/>
			</g>
		</g>
		<g>
			<g>
				<g>
					<path fill="#FFFFFF" stroke="#253137" stroke-linecap="round" stroke-linejoin="round" stroke-miterlimit="10" d="       M176.026,118.124h-13.905c-1.805,0-3.268,1.463-3.268,3.269v6.765c0,1.805,1.463,3.269,3.268,3.269h3.634l2.754,6.242       l3.882-6.242h3.634c1.805,0,3.269-1.463,3.269-3.269v-6.765C179.294,119.588,177.831,118.124,176.026,118.124z"/>
				</g>
			</g>
			<g>
				<path fill="#253137" d="M166.243,124.871c0.339,0.11,0.499,0.339,0.499,0.864v1.609c0,0.406,0.203,0.643,0.627,0.643h0.178      v0.847h-0.424c-0.956,0-1.439-0.483-1.439-1.38v-1.745c0-0.279-0.144-0.406-0.381-0.406h-0.28v-0.864h0.28      c0.237,0,0.381-0.127,0.381-0.406v-1.744c0-0.898,0.483-1.38,1.439-1.38h0.424v0.847h-0.178c-0.424,0-0.627,0.237-0.627,0.644      v1.609C166.743,124.532,166.582,124.761,166.243,124.871z"/>
				<path fill="#253137" d="M172.701,124.439v0.864h-0.288c-0.229,0-0.373,0.127-0.373,0.406v1.745c0,0.898-0.491,1.38-1.448,1.38      h-0.423v-0.847h0.178c0.432,0,0.635-0.237,0.635-0.643v-1.609c0-0.525,0.152-0.754,0.491-0.864      c-0.339-0.11-0.491-0.339-0.491-0.864v-1.609c0-0.406-0.203-0.644-0.635-0.644h-0.178v-0.847h0.423      c0.957,0,1.448,0.483,1.448,1.38v1.744c0,0.28,0.144,0.406,0.373,0.406H172.701z"/>
			</g>
		</g>
		<g>
			<g>
				<g>
					<path fill="#FFFFFF" stroke="#253137" stroke-linecap="round" stroke-linejoin="round" stroke-miterlimit="10" d="       M216.928,116.753h-13.905c-1.805,0-3.268,1.463-3.268,3.268v6.765c0,1.805,1.463,3.269,3.268,3.269h3.634l2.754,6.242       l3.882-6.242h3.634c1.805,0,3.269-1.463,3.269-3.269v-6.765C220.196,118.217,218.733,116.753,216.928,116.753z"/>
				</g>
			</g>
			<g>
				<path fill="#253137" d="M209.422,121.76c0-0.423,0.313-0.703,0.695-0.703c0.381,0,0.695,0.28,0.695,0.703      c0,0.406-0.313,0.703-0.695,0.703C209.736,122.463,209.422,122.167,209.422,121.76z M210.811,124.987      c0,0.186-0.043,0.339-0.195,0.728l-0.432,1.194h-0.685l0.339-1.296c-0.237-0.101-0.398-0.322-0.398-0.627      c0-0.423,0.296-0.703,0.685-0.703C210.524,124.284,210.811,124.572,210.811,124.987z"/>
			</g>
		</g>
		<g>
			<g>
				<g>
					<path fill="#FFFFFF" stroke="#253137" stroke-linecap="round" stroke-linejoin="round" stroke-miterlimit="10" d="       M162.565,235.024h13.905c1.805,0,3.268-1.463,3.268-3.268v-6.765c0-1.805-1.463-3.268-3.268-3.268h-3.634l-1.061-6.242       l-5.575,6.242h-3.634c-1.805,0-3.269,1.463-3.269,3.268v6.765C159.296,233.561,160.76,235.024,162.565,235.024z"/>
				</g>
			</g>
			<g>
				<path fill="#253137" d="M167.453,226.983l-2.921,1.092l2.921,1.092v0.881l-3.904-1.516v-0.915l3.904-1.516V226.983z"/>
				<path fill="#253137" d="M170.533,223.909h0.948l-2.794,7.978h-0.949L170.533,223.909z"/>
				<path fill="#253137" d="M175.586,227.618v0.915l-3.904,1.516v-0.881l2.922-1.092l-2.922-1.092v-0.881L175.586,227.618z"/>
			</g>
		</g>
		<g>
			<g>
				<g>
					<g>
						<path fill="#FFFFFF" stroke="#253137" stroke-linecap="round" stroke-linejoin="round" stroke-miterlimit="10" d="        M74.165,185.759H88.07c1.805,0,3.268-1.463,3.268-3.269v-6.765c0-1.805-1.463-3.268-3.268-3.268h-3.634l0.792-6.242        l-7.428,6.242h-3.634c-1.805,0-3.269,1.463-3.269,3.268v6.765C70.896,184.296,72.36,185.759,74.165,185.759z"/>
					</g>
				</g>
			</g>
			<g>
				<path fill="#253137" d="M78.287,181.469c0-0.364,0.288-0.652,0.686-0.652c0.389,0,0.669,0.288,0.669,0.652      c0,0.364-0.279,0.66-0.669,0.66C78.575,182.129,78.287,181.833,78.287,181.469z M78.347,176.143H79.6l-0.212,3.963H78.55      L78.347,176.143z"/>
				<path fill="#253137" d="M80.691,177.658h3.904v0.846h-3.904V177.658z M80.691,179.707h3.904v0.847h-3.904V179.707z"/>
			</g>
		</g>
	</g>
	<g>
		<g>
			<g>
				<g>
					<defs>
						<path id="XMLID_4_" d="M296.81,178.089c0,2.715-0.226,5.346-0.642,7.822c-1.911,11.404-7.906,19.727-15.001,19.727        c-0.635,0-1.27-0.071-1.883-0.197c-7.744-1.643-13.753-13.259-13.753-27.351c0-15.213,7.003-20.594,15.636-20.594        C289.807,157.495,296.81,162.876,296.81,178.089z"/>
					</defs>
					<use xlink:href="#XMLID_4_" overflow="visible" fill="#FFFFFF"/>
					<clipPath id="XMLID_8_">
						<use xlink:href="#XMLID_4_" overflow="visible"/>
					</clipPath>
					<g clip-path="url(#XMLID_8_)">
						<path fill="#8AB996" d="M291.141,178.263c0.582,8.158-0.821,16.359-3.172,24.193c5.892-4.835,8.602-12.441,11.052-19.658        c1.779-5.241,3.581-10.645,3.26-16.17c-0.321-5.526-3.282-11.273-8.467-13.21c-2.533-0.946-5.483-0.876-7.99,0.129        c-4.345,1.743-1.966,3.158-0.142,6.278C288.947,165.411,290.683,171.833,291.141,178.263z"/>
						<path opacity="0.5" fill="#FFFFFF" d="M291.141,178.263c0.582,8.158-0.821,16.359-3.172,24.193        c5.892-4.835,8.602-12.441,11.052-19.658c1.779-5.241,3.581-10.645,3.26-16.17c-0.321-5.526-3.282-11.273-8.467-13.21        c-2.533-0.946-5.483-0.876-7.99,0.129c-4.345,1.743-1.966,3.158-0.142,6.278C288.947,165.411,290.683,171.833,291.141,178.263        z"/>
					</g>
					<use xlink:href="#XMLID_4_" overflow="visible" fill="none" stroke="#253137" stroke-miterlimit="10"/>
				</g>
				<g>
					<path fill="#FFFFFF" stroke="#253137" stroke-miterlimit="10" d="M289.569,192.086c-1.045,3.51-2.777,6.813-5.13,9.623"/>
					<path fill="none" stroke="#253137" stroke-miterlimit="10" d="M290.067,190.169c-0.083,0.372-0.173,0.743-0.271,1.111"/>
					<path fill="#FFFFFF" stroke="#253137" stroke-miterlimit="10" d="M290.027,178.053c0.834,3.509,0.916,7.178,0.311,10.732"/>
				</g>
				<path fill="none" stroke="#253137" stroke-miterlimit="10" d="M265.53,178.09c0,0,17.775-7.028,31.277,0"/>
				<path fill="#FFFFFF" stroke="#253137" stroke-miterlimit="10" d="M281.168,157.495c0,0,1.78,6.593,1.986,17.311"/>
				<path fill="#AFA9AB" stroke="#253137" stroke-linecap="round" stroke-linejoin="round" stroke-miterlimit="10" d="      M283.649,165.513c0.228,2.049-0.127,3.795-0.793,3.9c-0.666,0.105-1.391-1.47-1.619-3.519c-0.228-2.049,0.126-3.795,0.792-3.9      C282.696,161.889,283.421,163.465,283.649,165.513z"/>
			</g>
		</g>
		<path fill="none" stroke="#253137" stroke-miterlimit="10" d="M274.155,210.908h-20.841c-2.597,0-4.732-1.925-5.069-4.423    c-0.046-0.224-0.059-0.461-0.059-0.705v-49.163c0-0.237,0.013-0.475,0.059-0.712c0.336-2.498,2.472-4.416,5.069-4.416h59.136    c0.896,0,1.733,0.231,2.458,0.633"/>
	</g>
</g>
</svg>
